<?xml version="1.0" standalone="no"?>
<!DOCTYPE svg PUBLIC "-//W3C//DTD SVG 1.1//EN" "http://www.w3.org/Graphics/SVG/1.1/DTD/svg11.dtd" >
<svg xmlns="http://www.w3.org/2000/svg" xmlns:xlink="http://www.w3.org/1999/xlink" version="1.1">
<metadata>
Created by FontForge 20190801 at Sun Sep 13 20:32:15 2020
 By www-data
Copyright (c) 2020 by TipoType Team. All rights reserved.
</metadata>
<defs>
<font id="MundialLight" horiz-adv-x="1330" >
  <font-face 
    font-family="MundialLight"
    font-weight="300"
    font-stretch="normal"
    units-per-em="2048"
    panose-1="0 0 0 0 0 0 0 0 0 0"
    ascent="1638"
    descent="-410"
    x-height="959"
    cap-height="1358"
    bbox="-249 -513 2585 2296"
    underline-thickness="150"
    underline-position="-425"
    unicode-range="U+0020-FB04"
  />
<missing-glyph horiz-adv-x="1340" 
d="M912 1018l-241 -242l-243 242l-97 -97l242 -240l-244 -245l97 -97l245 242l243 -242l97 97l-244 245l242 240zM1179 1358v-1358h-1018v1358h1018z" />
    <glyph glyph-name="f_f" unicode="ff" horiz-adv-x="1486" 
d="M986 0v823h-181v137h182v119q0 164 97 256.5t262 92.5q84 0 158 -31l-19 -129q-54 24 -132 24q-210 0 -210 -224v-108h298v-137h-296v-823h-159zM232 0v823h-181v137h182v119q0 164 97 256.5t262 92.5q84 0 158 -31l-19 -129q-54 24 -132 24q-210 0 -210 -224v-108h298
v-137h-296v-823h-159z" />
    <glyph glyph-name="fi" unicode="fi" horiz-adv-x="1231" 
d="M232 823h-181v137h182v119q0 164 97 256.5t262 92.5q84 0 158 -31l-19 -129q-54 24 -132 24q-210 0 -210 -224v-108h298v-137h-296v-823h-159v823zM991 1183q-43 0 -70.5 27.5t-27.5 71.5t27.5 71t70.5 27q44 0 72 -27.5t28 -70.5t-28 -71t-72 -28zM1071 0h-159v960h159
v-960z" />
    <glyph glyph-name="fl" unicode="fl" horiz-adv-x="1231" 
d="M232 823h-181v137h182v119q0 164 97 256.5t262 92.5q84 0 158 -31l-19 -129q-54 24 -132 24q-210 0 -210 -224v-108h298v-137h-296v-823h-159v823zM1071 1408v-1408h-159v1408h159z" />
    <glyph glyph-name="f_f_i" unicode="ffi" horiz-adv-x="1986" 
d="M986 823h-181v137h182v119q0 164 97 256.5t262 92.5q84 0 158 -31l-19 -129q-54 24 -132 24q-210 0 -210 -224v-108h298v-137h-296v-823h-159v823zM232 823h-181v137h182v119q0 164 97 256.5t262 92.5q84 0 158 -31l-19 -129q-54 24 -132 24q-210 0 -210 -224v-108h298
v-137h-296v-823h-159v823zM1676 1211q-28 27 -28 71t27 71t71 27t72 -27t28 -71t-28 -71.5t-72 -27.5q-43 0 -70 28zM1826 0h-159v960h159v-960z" />
    <glyph glyph-name="f_f_l" unicode="ffl" horiz-adv-x="1986" 
d="M232 0v823h-181v137h182v119q0 164 97 256.5t262 92.5q84 0 158 -31l-19 -129q-54 24 -132 24q-210 0 -210 -224v-108h298v-137h-296v-823h-159zM986 823h-181v137h182v119q0 164 97 256.5t262 92.5q84 0 158 -31l-19 -129q-54 24 -132 24q-210 0 -210 -224v-108h298
v-137h-296v-823h-159v823zM1826 0h-159v1408h159v-1408z" />
    <glyph glyph-name=".notdef" horiz-adv-x="1340" 
d="M912 1018l-241 -242l-243 242l-97 -97l242 -240l-244 -245l97 -97l245 242l243 -242l97 97l-244 245l242 240zM1179 1358v-1358h-1018v1358h1018z" />
    <glyph glyph-name="uni0000" horiz-adv-x="0" 
 />
    <glyph glyph-name="uni0000" horiz-adv-x="0" 
 />
    <glyph glyph-name="nonmarkingreturn" horiz-adv-x="682" 
 />
    <glyph glyph-name="space" unicode=" " horiz-adv-x="460" 
 />
    <glyph glyph-name="exclam" unicode="!" horiz-adv-x="513" 
d="M325 368h-137l-20 990h181zM166 15q-28 29 -28 71t28 70t71 28t71 -28t28 -70t-28 -71t-71 -29t-71 29z" />
    <glyph glyph-name="quotedbl" unicode="&#x22;" horiz-adv-x="676" 
d="M141 956l-28 472h174l-28 -472h-118zM417 956l-28 472h174l-28 -472h-118z" />
    <glyph glyph-name="numbersign" unicode="#" horiz-adv-x="1395" 
d="M263 -1l67 365h-250l23 125h251q2 12 7.5 44.5t13 72t14.5 80.5q7 43 19.5 115t17.5 99h-250l22 124h249l60 334h144l-58 -334h324l60 334h145l-59 -334h254l-22 -124h-253l-73 -411h252l-24 -125h-250l-66 -365h-147l66 365h-323l-67 -365h-147zM898 900h-327l-73 -411
h326z" />
    <glyph glyph-name="dollar" unicode="$" horiz-adv-x="1199" 
d="M89 273l124 89q53 -94 136.5 -154t194.5 -74v490q-96 34 -163 66q-65 31 -124 78q-117 92 -117 248q0 80 34 148t93 113q115 89 277 100v159h131v-164q138 -19 236 -91q96 -73 148 -162l-129 -94q-98 155 -255 192v-461q92 -33 136 -52q59 -27 114 -61q60 -40 92 -77
q79 -89 79 -221q0 -145 -117 -246q-117 -99 -304 -116v-159h-131v159q-161 13 -281 94q-119 79 -174 196zM924 343q0 82 -58 134q-56 50 -191 101v-444q114 14 181.5 70t67.5 139zM312 1018q0 -78 56 -125q58 -49 176 -91v423q-102 -11 -166 -63q-66 -54 -66 -144z" />
    <glyph glyph-name="percent" unicode="%" horiz-adv-x="1818" 
d="M696 762q-106 -104 -262 -104t-262 104q-105 104 -105 256q0 154 105 257q104 103 262 103t262 -103q105 -103 105 -257q0 -152 -105 -256zM1646 84q-106 -104 -262 -104t-262 104q-105 103 -105 256q0 154 105 257q104 103 262 103t262 -103q105 -103 105 -257
q0 -153 -105 -256zM598 1181q-66 66 -164 66t-163 -66q-65 -67 -65 -163t65 -163q64 -66 163 -66q98 0 164 66q65 67 65 163t-65 163zM1548 503q-66 66 -164 66t-163 -66q-65 -67 -65 -163t65 -163q65 -66 163 -66t164 66q65 67 65 163t-65 163zM480 0v26l734 1332h124v-24
l-732 -1334h-126z" />
    <glyph glyph-name="ampersand" unicode="&#x26;" horiz-adv-x="1353" 
d="M584 -20q-220 0 -359 105q-140 105 -140 271q0 225 299 366q-90 90 -127 161q-39 72 -39 158q-1 153 114 247t275 90q167 0 273 -91q107 -92 107 -233q0 -116 -87.5 -206.5t-257.5 -165.5l356 -341q60 67 60 227q0 72 -12 154h152q10 -84 10 -149q0 -201 -101 -326
l262 -247h-221l-143 133q-78 -65 -179 -110q-98 -43 -242 -43zM897 229l-409 394q-40 -20 -55 -27q-18 -8 -60 -37q-40 -27 -61 -51q-59 -65 -59 -148q0 -103 94 -167q93 -66 239 -66q196 0 311 102zM609 1239q-94 0 -164 -50q-69 -49 -69 -143q0 -57 29 -115q11 -23 37 -52
q23 -27 42 -46q16 -17 54 -51q149 63 220 128.5t71 141.5q0 85 -61 136q-62 51 -159 51z" />
    <glyph glyph-name="quotesingle" unicode="'" horiz-adv-x="400" 
d="M287 1428l-28 -472h-118l-28 472h174z" />
    <glyph glyph-name="parenleft" unicode="(" horiz-adv-x="572" 
d="M95 580q0 278 78 513q75 231 215 467h162q-8 -11 -31 -51q-15 -26 -68 -139q-55 -117 -88 -215q-37 -109 -69 -267q-31 -155 -31 -308q0 -150 30 -306q30 -158 73 -271q43 -120 85 -211q43 -94 73 -143l30 -49h-165q-122 163 -209 436q-85 267 -85 544z" />
    <glyph glyph-name="parenright" unicode=")" horiz-adv-x="572" 
d="M183 -400h-165q16 25 32 51q21 35 69 139q55 117 88 215q40 117 70 267q31 155 31 308q0 147 -29 306q-30 157 -72 271q-87 240 -155 354l-30 49h162q139 -234 216 -467q77 -237 77 -513t-85 -543q-86 -271 -209 -437z" />
    <glyph glyph-name="asterisk" unicode="*" horiz-adv-x="926" 
d="M374 1015l-1 2l-266 75l41 127l260 -98l-12 285h133l-12 -285l261 98l41 -127l-267 -75v-2l183 -231l-107 -78l-165 248l-165 -248l-108 78z" />
    <glyph glyph-name="plus" unicode="+" horiz-adv-x="1175" 
d="M55 602v158h450v445h162v-445h452v-158h-452v-451h-162v451h-450z" />
    <glyph glyph-name="comma" unicode="," horiz-adv-x="439" 
d="M38 -259l117 475h166l-142 -475h-141z" />
    <glyph glyph-name="hyphen" unicode="-" horiz-adv-x="924" 
d="M134 652h656v-152h-656v152z" />
    <glyph glyph-name="period" unicode="." horiz-adv-x="406" 
d="M132 15q-28 29 -28 71t28 70t71 28t71 -28t28 -70t-28 -71t-71 -29t-71 29z" />
    <glyph glyph-name="slash" unicode="/" horiz-adv-x="1049" 
d="M833 1529h170l-786 -1929h-169z" />
    <glyph glyph-name="zero" unicode="0" horiz-adv-x="1286" 
d="M1035 170q-145 -190 -392 -190q-246 0 -391 190q-146 190 -146 509t146 509q146 189 391 189q247 0 392 -189q145 -188 145 -509t-145 -509zM909 1076q-99 147 -266 147t-265 -147q-99 -149 -99 -397q0 -249 99 -397t265 -148t265 148t99 397q0 248 -98 397z" />
    <glyph glyph-name="one" unicode="1" horiz-adv-x="673" 
d="M488 0h-165v1207h-279v151h444v-1358z" />
    <glyph glyph-name="two" unicode="2" horiz-adv-x="1088" 
d="M222 1016l-139 68q46 128 169 212q121 82 271 82q190 0 315 -112q126 -112 126 -298q0 -91 -33 -169q-26 -62 -90 -130q-16 -18 -64 -59q-42 -34 -69 -54q-28 -21 -78 -57q-11 -8 -25.5 -18.5t-17.5 -12.5q-20 -15 -102 -76q-32 -25 -91 -77q-103 -92 -107 -152h701v-163
h-891v74q5 120 54 199q45 70 82 107q35 35 48 47q18 17 54 45q39 31 55 42q6 4 25 17.5t32 23.5q32 24 53 39q4 4 42 31q13 9 44 31q3 2 8.5 6.5t14.5 11.5t16 13q33 26 40 33l33 33q11 10 19.5 20t12 15.5t12 19t12.5 19.5q14 22 21 43q16 52 16 94q0 119 -76 189
q-77 71 -197 71q-98 0 -180 -58q-83 -59 -116 -150z" />
    <glyph glyph-name="three" unicode="3" horiz-adv-x="1107" 
d="M85 262l134 79q41 -93 128 -149q86 -58 203 -58q120 0 199 67t79 169q0 112 -89 180q-88 67 -224 67h-157v143h157q119 0 199 62q79 61 79 179q0 101 -76 162t-201 61q-111 0 -185 -56q-73 -57 -108 -138l-138 70q51 121 161 199q110 79 274 79q196 0 321 -105t125 -269
q0 -110 -60 -191q-62 -82 -155 -119q108 -31 179 -121q71 -91 71 -206q0 -168 -127 -277q-128 -110 -324 -110q-156 0 -284 75q-127 75 -181 207z" />
    <glyph glyph-name="four" unicode="4" horiz-adv-x="1170" 
d="M725 362h-671v151l617 845h218v-850h207v-145h-207v-364h-164v363zM725 508v670l-484 -670h484z" />
    <glyph glyph-name="five" unicode="5" horiz-adv-x="1105" 
d="M536 -20q-156 0 -284 75q-127 75 -181 207l134 79q41 -93 128 -149q86 -58 203 -58q134 0 220 80t86 203q0 132 -83 212q-85 80 -222 80q-148 0 -255 -97l-136 55l64 691h739v-157h-597l-42 -424q36 35 102 58.5t147 23.5q200 0 328 -122t128 -320q0 -194 -136 -315
q-137 -122 -343 -122z" />
    <glyph glyph-name="six" unicode="6" horiz-adv-x="1184" 
d="M613 -20q-246 0 -377 170q-130 169 -130 459q0 375 155 572t437 197q195 0 340 -94l-60 -129q-127 76 -280 76q-195 0 -310 -134t-119 -421q55 91 154 142q97 51 210 51q192 0 327 -109q67 -54 104.5 -139t37.5 -188q0 -203 -137 -328q-139 -125 -352 -125zM615 726
q-134 0 -223 -86q-88 -87 -88 -212q0 -127 89 -214t222 -87q137 0 228 83q90 82 90 216q0 136 -89 219q-89 81 -229 81z" />
    <glyph glyph-name="seven" unicode="7" horiz-adv-x="989" 
d="M755 1198h-693v160h879l1 -150q-386 -607 -595 -1208h-181q207 598 589 1198z" />
    <glyph glyph-name="eight" unicode="8" horiz-adv-x="1168" 
d="M583 -20q-216 0 -348 108q-133 106 -133 284q0 118 64 207t183 135q-194 95 -194 305q0 166 117 265q116 98 311 98q196 0 314 -98q117 -99 117 -265q0 -211 -192 -305q118 -45 181 -134t63 -208q0 -178 -132 -285q-134 -107 -351 -107zM583 640q-145 0 -230 -69
q-86 -69 -86 -185q0 -115 88 -190q87 -75 228 -75q143 0 232 75q87 75 87 190q0 116 -86 185q-87 69 -233 69zM317 1010q0 -107 73 -168q72 -63 193 -63t195 63q73 61 73 168q0 99 -74 165q-74 65 -194 65q-118 0 -192 -65q-74 -66 -74 -165z" />
    <glyph glyph-name="nine" unicode="9" horiz-adv-x="1187" 
d="M85 924q0 204 138 329q137 125 351 125q242 0 375 -165q132 -167 132 -449q0 -387 -147.5 -585.5t-434.5 -198.5q-195 0 -337 88l64 137q122 -75 264 -75q202 0 308.5 134t118.5 417q-49 -91 -149 -143t-214 -52q-193 0 -326 110q-67 54 -105 139.5t-38 188.5zM254 931
q0 -136 89 -216q89 -81 228 -81q134 0 223 86q88 85 88 210q0 127 -88 214t-222 87q-139 0 -228 -82q-90 -83 -90 -218z" />
    <glyph glyph-name="colon" unicode=":" horiz-adv-x="464" 
d="M231 -14q-42 0 -70 28.5t-28 70.5t28 70.5t70 28.5q43 0 71.5 -28.5t28.5 -70.5t-28.5 -70.5t-71.5 -28.5zM161 802q-28 28 -28 70t28 71q28 28 70 28q43 0 71.5 -28.5t28.5 -70.5t-28 -70t-72 -28q-43 0 -70 28z" />
    <glyph glyph-name="semicolon" unicode=";" horiz-adv-x="491" 
d="M197 -259h-140l116 475h167zM191 802q-28 28 -28 70t28 71q28 28 71 28t71 -28q28 -29 28 -71t-28 -70t-71 -28t-71 28z" />
    <glyph glyph-name="less" unicode="&#x3c;" horiz-adv-x="1173" 
d="M1017 355v-173l-914 400v189l914 412v-173l-757 -332z" />
    <glyph glyph-name="equal" unicode="=" horiz-adv-x="1308" 
d="M138 345v162h1032v-162h-1032zM1170 1011v-161h-1032v161h1032z" />
    <glyph glyph-name="greater" unicode="&#x3e;" horiz-adv-x="1173" 
d="M156 355l757 323l-757 332v173l914 -412v-189l-914 -400v173z" />
    <glyph glyph-name="question" unicode="?" horiz-adv-x="1004" 
d="M198 1016l-139 69q46 128 169 212q122 81 271 81q112 3 206.5 -40.5t152.5 -130t58 -200.5q0 -78 -39 -156q-14 -29 -45 -71q-34 -44 -50 -61q-6 -7 -57 -62q-4 -4 -20.5 -21t-29.5 -30q-30 -30 -48 -50q-20 -22 -38 -46q-37 -48 -48 -109q-7 -30 -5 -71h-148
q-19 119 39 212q28 44 59 81q28 33 75 81q11 10 27 27.5t24 25.5q81 89 111 135q29 47 29 109q0 104 -74 164q-76 59 -184 59q-98 0 -180 -58q-83 -59 -116 -150zM371 15q-28 29 -28 71t28 70t71 28t71 -28q28 -29 28 -70.5t-28 -70.5t-71 -29t-71 29z" />
    <glyph glyph-name="at" unicode="@" horiz-adv-x="1931" 
d="M86 533q-1 230 99 417.5t272 301.5q228 156 530 156q170 0 326 -63q155 -65 270 -172q115 -109 184 -263q68 -156 68 -326q0 -240 -94.5 -370t-266.5 -130q-84 0 -147.5 50t-101.5 139q-37 -72 -123 -119q-85 -46 -195 -46q-173 0 -289 116q-115 115 -115 304
q0 187 116 306q115 117 288 117q189 0 304 -147l10 130h131v-542q0 -190 155 -190q92 0 143 108q50 108 50 274q0 192 -92 352q-93 159 -259 252q-167 92 -371 92q-340 0 -551 -206q-210 -207 -210 -543q0 -154 57.5 -291.5t158.5 -236.5t240.5 -155t293.5 -56
q210 0 418 106l26 -52q18 -37 26 -55q-237 -129 -470 -129q-180 0 -339 64q-160 64 -280 178q-120 113 -191 277q-71 165 -71 352zM646 534q0 -122 78 -207q77 -86 199 -86t203 86q80 86 80 207q0 119 -80 202q-81 82 -203 82q-123 0 -200 -81q-77 -83 -77 -203z" />
    <glyph glyph-name="A" unicode="A" horiz-adv-x="1353" 
d="M319 315l-127 -315h-174l561 1358h194l562 -1358h-175l-126 315h-715zM676 1186l-305 -730h611z" />
    <glyph glyph-name="B" unicode="B" horiz-adv-x="1320" 
d="M806 0h-622v1358h580q184 0 294 -106q111 -106 111 -263q0 -197 -162 -283q101 -41 158 -127t57 -195q0 -164 -118 -273q-118 -111 -298 -111zM806 624h-457v-475h457q112 0 182 70q69 71 69 169q0 95 -71 166q-70 70 -180 70zM349 1212v-448h415q108 0 172 64
q64 63 64 156q0 91 -63 160q-65 68 -173 68h-415z" />
    <glyph glyph-name="C" unicode="C" horiz-adv-x="1451" 
d="M150 402q-55 129 -55 277q0 149 55 278q54 131 148 222q94 94 223.5 146.5t271.5 52.5q181 0 336 -84q154 -85 254 -235l-129 -94q-176 258 -461 258q-221 0 -373 -155q-152 -157 -152 -389q0 -116 41.5 -217.5t112.5 -173t169 -113t207 -41.5q290 0 469 254l124 -89
q-97 -148 -252 -233q-158 -86 -341 -86q-143 0 -273.5 53t-225.5 147q-93 90 -149 222z" />
    <glyph glyph-name="D" unicode="D" horiz-adv-x="1519" 
d="M184 0v1358h540q199 0 359 -88t250 -243q90 -156 90 -349q0 -194 -90 -348q-91 -156 -250 -242q-160 -88 -359 -88h-540zM349 1207v-1056h375q152 -2 274 68.5t188 192t64 266.5q0 225 -146 377q-145 149 -380 151z" />
    <glyph glyph-name="E" unicode="E" horiz-adv-x="1234" 
d="M1139 0h-955v1358h934v-150h-769v-435h664v-150h-664v-474h790v-149z" />
    <glyph glyph-name="F" unicode="F" horiz-adv-x="1184" 
d="M184 0v1358h936v-150h-771v-438h617v-149h-617v-621h-165z" />
    <glyph glyph-name="G" unicode="G" horiz-adv-x="1534" 
d="M792 -20q-193 0 -354 92q-159 91 -251 252t-92 355q0 197 93 357q91 159 252 251q161 90 353 90q179 0 329.5 -80.5t250.5 -227.5l-129 -94q-171 248 -451 248q-221 0 -373 -155q-152 -157 -152 -389q-2 -152 66 -278t189.5 -197.5t269.5 -69.5q109 0 198.5 34t147.5 94
q113 117 136 277h-483v150h655q2 -40 2 -62q0 -132 -44.5 -249.5t-128.5 -206.5q-85 -90 -210.5 -140.5t-273.5 -50.5z" />
    <glyph glyph-name="H" unicode="H" horiz-adv-x="1514" 
d="M349 621v-621h-165v1358h165v-587h816v587h165v-1358h-165v621h-816z" />
    <glyph glyph-name="I" unicode="I" horiz-adv-x="533" 
d="M349 0h-165v1358h165v-1358z" />
    <glyph glyph-name="J" unicode="J" horiz-adv-x="1033" 
d="M405 -20q-115 0 -222 51q-109 52 -169 139l110 112q53 -69 127.5 -108.5t153.5 -39.5q138 0 214.5 91.5t76.5 256.5v876h166v-892q0 -230 -121 -357q-121 -129 -336 -129z" />
    <glyph glyph-name="K" unicode="K" horiz-adv-x="1282" 
d="M1277 0h-203l-465 678l-260 -280v-398h-165v1358h165v-741l687 741h212l-522 -563z" />
    <glyph glyph-name="L" unicode="L" horiz-adv-x="1188" 
d="M1147 150v-150h-963v1358h166v-1208h797z" />
    <glyph glyph-name="M" unicode="M" horiz-adv-x="1800" 
d="M349 0h-165v1358h211l505 -1034l505 1034h211v-1358h-165v1091l-491 -991h-120l-491 991v-1091z" />
    <glyph glyph-name="N" unicode="N" horiz-adv-x="1580" 
d="M184 0v1358h173l874 -1113v1113h165v-1358h-173l-873 1109v-1109h-166z" />
    <glyph glyph-name="O" unicode="O" horiz-adv-x="1584" 
d="M1068 31q-129 -51 -276 -51q-148 0 -275 51q-131 52 -221 142q-94 92 -147 223.5t-53 282.5q0 204 91 364t250 247q157 87 355 87q197 0 356 -87q158 -87 249 -247t91 -364q0 -151 -52.5 -282.5t-146.5 -223.5q-92 -90 -221 -142zM416 1073q-147 -152 -147 -394
q0 -243 147 -394q145 -151 376 -151q230 0 377 151q146 152 146 394t-146 394q-147 150 -377 150t-376 -150z" />
    <glyph glyph-name="P" unicode="P" horiz-adv-x="1253" 
d="M349 524v-524h-165v1358h552q207 0 331 -112q123 -113 123 -305q0 -191 -123 -303q-125 -114 -331 -114h-387zM730 1206h-381v-530h381q137 0 212 70.5t75 194.5t-75 194.5t-212 70.5z" />
    <glyph glyph-name="Q" unicode="Q" horiz-adv-x="1585" 
d="M778 -20q-146 0 -274.5 50.5t-221.5 142.5q-94 92 -147 223.5t-53 282.5q0 204 91 364t250 247q157 87 355 87q197 0 356 -87q158 -87 249 -247t91 -364q0 -165 -61.5 -304t-174.5 -235l169 -224l-130 -89l-172 227q-150 -74 -327 -74zM1155 1073q-147 150 -377 150
t-376 -150q-147 -152 -147 -394q0 -243 147 -394q145 -151 376 -151q125 0 230 48l-171 226l130 93l173 -230q161 153 161 408q0 242 -146 394z" />
    <glyph glyph-name="R" unicode="R" horiz-adv-x="1322" 
d="M184 0v1358h580q207 0 331 -109q123 -109 123 -294q0 -144 -79 -245t-218 -138l336 -572h-195l-319 552h-394v-552h-165zM758 1208h-409v-509h409q138 0 213 68.5t75 187.5q0 120 -74.5 186.5t-213.5 66.5z" />
    <glyph glyph-name="S" unicode="S" horiz-adv-x="1204" 
d="M100 273l124 89q60 -109 161 -170.5t237 -61.5q138 0 226 60q87 58 87 153q0 94 -77 150q-76 55 -262 117q-79 26 -144 53q-58 24 -120 60q-63 37 -98 76q-83 88 -83 217q0 85 38.5 156.5t103.5 116.5q130 89 302 89q188 0 313 -88q106 -75 162 -171l-129 -94
q-44 71 -120 131q-94 71 -226 71q-114 0 -193 -55t-79 -154q0 -73 54 -124q23 -22 69 -45q48 -25 88 -39q24 -10 114 -41q88 -30 147 -54q65 -27 124 -61q62 -36 102 -79q86 -95 86 -230q0 -158 -137 -262q-136 -103 -348 -103q-187 0 -324 83q-138 83 -198 210z" />
    <glyph glyph-name="T" unicode="T" horiz-adv-x="1145" 
d="M490 1204h-454v154h1073v-154h-454v-1204h-165v1204z" />
    <glyph glyph-name="U" unicode="U" horiz-adv-x="1474" 
d="M1151 117q-155 -137 -414 -137t-414 137q-154 136 -154 368v873h165v-864q0 -163 110 -261t293 -98q184 0 294 98q109 97 109 261v864h165v-873q0 -232 -154 -368z" />
    <glyph glyph-name="V" unicode="V" horiz-adv-x="1342" 
d="M773 0h-204l-545 1358h175l472 -1184l472 1184h175z" />
    <glyph glyph-name="W" unicode="W" horiz-adv-x="2038" 
d="M681 0h-241l-402 1358h169l356 -1189l368 1178h176l368 -1178l356 1189h169l-402 -1358h-241l-338 1106z" />
    <glyph glyph-name="X" unicode="X" horiz-adv-x="1266" 
d="M632 567l-416 -568h-203l511 696l-484 663h204l389 -535l390 535h203l-484 -662l511 -697h-206z" />
    <glyph glyph-name="Y" unicode="Y" horiz-adv-x="1280" 
d="M557 530l-534 828h196l421 -659l421 659h196l-534 -828v-530h-166v530z" />
    <glyph glyph-name="Z" unicode="Z" horiz-adv-x="1222" 
d="M88 0v133l831 1074h-821v151h1027v-151l-823 -1057h835v-150h-1049z" />
    <glyph glyph-name="bracketleft" unicode="[" horiz-adv-x="632" 
d="M584 -272v-128h-403v1953h403v-128h-253v-1697h253z" />
    <glyph glyph-name="backslash" unicode="\" horiz-adv-x="1049" 
d="M832 -400l-786 1929h170l785 -1929h-169z" />
    <glyph glyph-name="bracketright" unicode="]" horiz-adv-x="632" 
d="M301 -272v1697h-253v128h403v-1953h-403v128h253z" />
    <glyph glyph-name="asciicircum" unicode="^" horiz-adv-x="1105" 
d="M231 510h-186l418 848h179l418 -848h-186l-322 663z" />
    <glyph glyph-name="underscore" unicode="_" horiz-adv-x="1155" 
d="M1059 -89v-138h-963v138h963z" />
    <glyph glyph-name="grave" unicode="`" horiz-adv-x="607" 
d="M328 1473l-188 334h180l147 -334h-139z" />
    <glyph glyph-name="a" unicode="a" horiz-adv-x="1093" 
d="M476 -20q-170 0 -275 78t-105 216q0 134 116 218t303 84q141 0 273 -56v70q0 111 -75 177q-76 65 -194 65q-176 0 -297 -142l-103 98q65 88 174 140q108 52 225 52q195 0 312 -102q116 -104 116 -275v-603h-156v146q-46 -76 -129.5 -121t-184.5 -45zM523 451
q-119 0 -192 -45q-74 -47 -74 -129q0 -79 64 -122q65 -44 165 -44q129 0 216 84q86 84 86 193q-47 28 -121 46q-76 17 -144 17z" />
    <glyph glyph-name="b" unicode="b" horiz-adv-x="1264" 
d="M319 0h-159v1408h159v-606q59 83 154 130.5t216 47.5q206 0 346 -141q138 -143 138 -357q2 -139 -62.5 -255.5t-176.5 -182.5t-245 -64q-121 0 -216.5 46.5t-153.5 129.5v-156zM673 836q-153 0 -254 -102q-102 -102 -102 -252t102 -254t254 -104q147 0 245 104
q97 103 97 254t-96 253q-98 101 -246 101z" />
    <glyph glyph-name="c" unicode="c" horiz-adv-x="1108" 
d="M599 -20q-219 0 -364 145q-146 144 -146 355t148 356q147 144 361 144q146 0 261 -67q116 -68 179 -189l-127 -78q-52 89 -132.5 137.5t-180.5 48.5q-146 0 -248 -102t-102 -250q0 -150 100 -250q101 -102 251 -102q97 0 178.5 48.5t129.5 132.5l127 -78
q-59 -116 -176 -183q-119 -68 -259 -68z" />
    <glyph glyph-name="d" unicode="d" horiz-adv-x="1264" 
d="M575 -20q-133 -2 -245 64t-176.5 182.5t-62.5 255.5q0 215 139 357q138 141 345 141q121 0 216 -47.5t154 -130.5v606h159v-1408h-159v156q-58 -83 -153.5 -129.5t-216.5 -46.5zM591 836q-149 0 -245 -101q-97 -101 -97 -253q0 -151 97 -254q98 -104 245 -104
q152 0 254 104q102 103 102 254q0 149 -101 252q-102 102 -255 102z" />
    <glyph glyph-name="e" unicode="e" horiz-adv-x="1138" 
d="M90 480q0 104 39 197t105.5 159t157.5 105t192 39q89 0 173 -31t149 -88q66 -58 103.5 -144.5t37.5 -187.5q0 -50 -5 -88h-791q7 -135 102 -225q92 -91 239 -91q190 0 303 161l121 -88q-66 -102 -178 -160t-246 -58q-139 -2 -256 65t-183 183t-63 252zM585 835
q-127 0 -218 -73q-92 -74 -110 -190h631q-7 116 -93 190q-85 73 -210 73z" />
    <glyph glyph-name="f" unicode="f" horiz-adv-x="732" 
d="M232 823h-181v137h182v119q0 163 97 256q96 93 262 93q84 0 158 -31l-19 -129q-54 24 -132 24q-210 0 -210 -224v-108h298v-137h-296v-823h-159v823z" />
    <glyph glyph-name="g" unicode="g" horiz-adv-x="1264" 
d="M579 -20q-207 0 -345 144q-139 142 -139 359q0 216 139 356q138 141 345 141q121 0 216.5 -47t153.5 -130v157h159v-891q0 -224 -142 -357q-143 -132 -382 -132q-134 0 -250 49t-194 140l105 104q136 -148 339 -148q167 0 266 87t99 234v112q-58 -83 -154 -130.5
t-216 -47.5zM595 836q-149 0 -245 -101q-97 -101 -97 -252q0 -152 97 -255q98 -104 245 -104q152 0 254 104t102 255q0 148 -101 251q-102 102 -255 102z" />
    <glyph glyph-name="h" unicode="h" horiz-adv-x="1191" 
d="M319 542v-542h-159v1408h160v-592q45 73 128 118q83 46 193 46q188 0 296 -105q107 -107 107 -291v-584h-158v545q0 138 -70 211.5t-200 73.5q-125 0 -211 -80t-86 -208z" />
    <glyph glyph-name="i" unicode="i" horiz-adv-x="479" 
d="M160 0v960h159v-960h-159zM169 1211q-28 27 -28 71t28 71q27 27 70 27q44 0 72 -27.5t28 -70.5t-28 -71t-72 -28q-43 0 -70 28z" />
    <glyph glyph-name="j" unicode="j" horiz-adv-x="479" 
d="M16 -420q-94 0 -151 27l18 134q54 -20 123 -20q154 0 154 195v1044h159v-1055q0 -155 -78.5 -240t-224.5 -85zM239 1183q-43 0 -70.5 27.5t-27.5 71.5t27.5 71t70.5 27q44 0 72 -27.5t28 -70.5t-28 -71t-72 -28z" />
    <glyph glyph-name="k" unicode="k" horiz-adv-x="1036" 
d="M160 0v1408h159v-934l483 486h213l-414 -404l421 -556h-202l-331 448l-170 -167v-281h-159z" />
    <glyph glyph-name="l" unicode="l" horiz-adv-x="479" 
d="M319 0h-159v1408h159v-1408z" />
    <glyph glyph-name="m" unicode="m" horiz-adv-x="1882" 
d="M319 0h-159v960h159v-143q43 73 126.5 118t188.5 45q125 0 215.5 -52.5t135.5 -149.5q49 94 142 148t209 54q185 0 292 -107q107 -109 107 -286v-587h-159v548q0 133 -70 207.5t-195 74.5q-119 0 -202 -77t-83 -202v-551h-159v548q0 132 -69 207t-190 75q-124 0 -206 -78
q-83 -80 -83 -207v-545z" />
    <glyph glyph-name="n" unicode="n" horiz-adv-x="1193" 
d="M319 542v-542h-159v960h160v-144q45 73 128 118q83 46 193 46q190 0 298 -105q107 -107 107 -291v-584h-159v545q0 140 -69.5 212.5t-201.5 72.5q-125 0 -211 -80t-86 -208z" />
    <glyph glyph-name="o" unicode="o" horiz-adv-x="1198" 
d="M963 124q-145 -144 -364 -144t-364 144q-146 144 -146 356t146 356q145 144 364 144t364 -144q146 -144 146 -356t-146 -356zM348 731q-100 -101 -100 -251t100 -250q101 -102 251 -102q151 0 251 102q100 100 100 250t-100 251q-101 101 -251 101t-251 -101z" />
    <glyph glyph-name="p" unicode="p" horiz-adv-x="1264" 
d="M319 158v-558h-159v1360h159v-157q58 83 153.5 130t216.5 47q133 2 245 -64t176.5 -182.5t62.5 -255.5q0 -216 -138 -357q-140 -141 -346 -141q-121 0 -216 47.5t-154 130.5zM673 836q-152 0 -254 -104t-102 -254t102 -252q101 -102 254 -102q149 0 246 102
q96 100 96 252t-97 255t-245 103z" />
    <glyph glyph-name="q" unicode="q" horiz-adv-x="1260" 
d="M575 -20q-207 0 -345 141q-139 140 -139 357q-2 139 62.5 255.5t176.5 182.5t245 64q121 0 216.5 -47t153.5 -130v157h159v-1360h-159v558q-59 -83 -154 -130.5t-216 -47.5zM346 733q-97 -103 -97 -255t97 -252q96 -102 245 -102q153 0 255 102q101 103 101 252
q0 150 -102 254t-254 104q-148 0 -245 -103z" />
    <glyph glyph-name="r" unicode="r" horiz-adv-x="759" 
d="M320 533v-533h-160v960h160v-142q38 80 105.5 121t153.5 41q82 0 136 -25l-16 -147q-65 24 -126 24q-107 0 -180 -74t-73 -225z" />
    <glyph glyph-name="s" unicode="s" horiz-adv-x="966" 
d="M86 196l122 89q43 -77 116 -119.5t171 -42.5q95 0 154.5 37t59.5 98q0 64 -49 94q-51 31 -179 59q-133 30 -211 70q-48 25 -76 54q-64 64 -64 169q0 124 103 200q101 76 254 76q123 0 218 -51q93 -50 140 -127l-109 -90q-86 125 -249 125q-91 0 -145.5 -35.5t-54.5 -94.5
q0 -65 52 -93q51 -30 188 -63q162 -39 248 -98q94 -66 94 -195q0 -125 -109 -201q-110 -77 -265 -77q-144 0 -249.5 56.5t-159.5 159.5z" />
    <glyph glyph-name="t" unicode="t" horiz-adv-x="777" 
d="M224 278v545h-177v137h178v308h157v-308h317v-137h-316v-519q0 -89 43.5 -135t122.5 -46q91 0 164 37l21 -137q-33 -18 -89.5 -30.5t-112.5 -12.5q-143 0 -225.5 78t-82.5 220z" />
    <glyph glyph-name="u" unicode="u" horiz-adv-x="1189" 
d="M548 -20q-188 0 -294 105q-107 105 -107 290v585h158v-546q0 -138 69.5 -211t198.5 -73q127 0 212 79t85 208v543h159v-960h-159v144q-44 -74 -129 -119t-193 -45z" />
    <glyph glyph-name="v" unicode="v" horiz-adv-x="1018" 
d="M607 0h-196l-372 960h170l300 -808l299 808h171z" />
    <glyph glyph-name="w" unicode="w" horiz-adv-x="1597" 
d="M347 0l-300 960h169l238 -808l260 798h169l260 -799l239 809h168l-299 -960h-213l-239 728l-239 -728h-213z" />
    <glyph glyph-name="x" unicode="x" horiz-adv-x="1004" 
d="M500 381l-282 -381h-185l368 492l-358 467h189l271 -357l273 357h185l-358 -466l368 -493h-187z" />
    <glyph glyph-name="y" unicode="y" horiz-adv-x="1060" 
d="M430 -72l17 45l-415 987h173l327 -804l321 804h175l-453 -1082q-65 -155 -146 -226q-83 -72 -220 -72q-99 0 -164 33l19 135q58 -26 136 -26q80 0 135 50t95 156z" />
    <glyph glyph-name="z" unicode="z" horiz-adv-x="904" 
d="M827 0h-736v134l522 689h-515v137h700v-134l-522 -689h551v-137z" />
    <glyph glyph-name="braceleft" unicode="{" horiz-adv-x="654" 
d="M83 508q-30 2 -39 1v136q8 -1 37 1q88 7 120 53q30 45 30 133v360q0 94 12.5 156.5t43.5 114.5q65 108 248 108q35 0 70 -3v-130q-35 2 -64 0q-101 -4 -135 -63q-36 -59 -36 -217v-340q0 -194 -108 -241q113 -53 113 -241v-367q0 -140 35 -195q35 -54 129 -58q30 -2 66 0
v-129q-29 -4 -70 -4q-182 0 -248 110q-56 95 -56 275v354q0 91 -32 134t-116 52z" />
    <glyph glyph-name="bar" unicode="|" horiz-adv-x="515" 
d="M181 1758h153v-2158h-153v2158z" />
    <glyph glyph-name="braceright" unicode="}" horiz-adv-x="654" 
d="M49 1438v130q35 3 70 3q211 0 271 -150q33 -84 33 -229v-360q0 -89 31 -133q30 -45 119 -53q29 -2 37 -1v-136q-8 1 -38 -1q-85 -9 -117 -52t-32 -134v-354q0 -179 -55 -275q-64 -110 -249 -110q-41 0 -70 4v129q37 -2 66 0q99 4 132 63q32 59 32 223v334q0 188 113 241
q-108 47 -108 241v374q0 135 -38 188q-38 54 -132 58q-30 2 -65 0z" />
    <glyph glyph-name="asciitilde" unicode="~" horiz-adv-x="1122" 
d="M180 461l-100 121q147 144 295 144q113 0 199 -53q84 -53 178 -53q51 0 91.5 20.5t98.5 69.5l100 -121q-147 -144 -295 -144q-113 0 -196 54q-86 53 -181 53q-84 0 -190 -91z" />
    <glyph glyph-name="uni00A0" unicode="&#xa0;" horiz-adv-x="464" 
 />
    <glyph glyph-name="exclamdown" unicode="&#xa1;" horiz-adv-x="485" 
d="M334 -398h-181l20 990h137zM151 803q-28 29 -28 71t28 70t71 28t71 -28t28 -70t-28 -71q-29 -29 -71 -29t-71 29z" />
    <glyph glyph-name="cent" unicode="&#xa2;" horiz-adv-x="1167" 
d="M240 346q-124 139 -124 332q0 194 126 333q124 139 315 163v167h131v-166q124 -14 222.5 -80t154.5 -173l-127 -78q-88 154 -250 181v-694q79 14 143.5 60.5t102.5 115.5l127 -78q-52 -102 -151 -167q-101 -67 -222 -80v-182h-131v182q-192 24 -317 164zM275 678
q0 -131 79 -226q78 -97 203 -120v692q-122 -24 -202 -120q-80 -98 -80 -226z" />
    <glyph glyph-name="sterling" unicode="&#xa3;" horiz-adv-x="1194" 
d="M1081 0h-985v145q95 68 131 104q68 73 71 185v12v168h-195v141h195v221q0 184 117 293q116 109 301 109q142 0 251 -72t156 -204l-133 -72q-37 91 -107 142t-164 51q-120 0 -191 -71q-71 -73 -71 -191v-206h387v-141h-387v-136q0 -115 -28.5 -194.5t-97.5 -133.5h750
v-150z" />
    <glyph glyph-name="currency" unicode="&#xa4;" horiz-adv-x="1214" 
d="M397 337l-181 -180l-111 110l180 177q-66 104 -66 214q0 108 63 210l-176 173l111 112l173 -173q107 65 215 65q113 0 219 -66l172 173l110 -111l-175 -173q64 -94 64 -210q0 -109 -68 -213l182 -178l-113 -111l-179 180q-101 -61 -212 -61q-107 0 -208 62zM354 658
q0 -99 74 -170t176 -71q105 0 181 71q75 70 75 170q0 102 -75 176q-75 72 -181 72q-104 0 -177 -72q-73 -73 -73 -176z" />
    <glyph glyph-name="yen" unicode="&#xa5;" horiz-adv-x="1335" 
d="M535 607l-484 751h196l421 -659l421 659h196l-484 -751h289v-108h-339v-144h333v-108h-333v-247h-166v247h-332v108h332v144h-337v108h287z" />
    <glyph glyph-name="brokenbar" unicode="&#xa6;" horiz-adv-x="515" 
d="M334 1758v-848h-153v848h153zM181 -399v848h153v-848h-153z" />
    <glyph glyph-name="section" unicode="&#xa7;" horiz-adv-x="1111" 
d="M560 -341q-166 0 -291 77q-124 76 -177 197l114 79q50 -98 141.5 -154.5t212.5 -56.5q112 0 192 56q79 55 79 149q0 87 -71 140q-68 50 -226 95q-77 22 -98 29q-45 14 -86 31q-79 29 -141 80q-84 69 -90 206q0 135 111 222q-88 85 -88 221q0 81 35 149.5t94 111.5
q120 87 272 87q159 0 272 -70q114 -71 168 -175l-112 -83q-46 82 -130 133q-86 53 -198 53q-104 0 -177 -55q-74 -56 -74 -149q0 -66 48 -118q15 -18 66 -41q46 -21 78 -31q26 -9 107 -34q7 -2 19 -5.5t16 -5.5q73 -21 125 -42q49 -19 104 -49q57 -33 87 -65q73 -80 73 -203
q0 -140 -104 -224q67 -82 67 -206q0 -83 -35.5 -151.5t-97.5 -111.5q-124 -86 -285 -86zM590 648q-162 42 -251 86q-70 -55 -70 -145q0 -58 47 -103q17 -17 62 -35q43 -18 76 -28q30 -11 102 -30q3 -1 8 -2.5t6 -1.5q165 -47 242 -94q56 59 56 141q0 77 -65 125t-213 87z
" />
    <glyph glyph-name="dieresis" unicode="&#xa8;" horiz-adv-x="825" 
d="M517 1546q-28 28 -28 71t28 71q27 27 71 27t72 -27q27 -28 27 -71t-27 -71q-28 -28 -72 -28t-71 28zM138 1617q0 43 27 70.5t71 27.5t72 -27q28 -28 28 -71t-28 -71t-72 -28q-43 0 -70.5 27.5t-27.5 71.5z" />
    <glyph glyph-name="copyright" unicode="&#xa9;" horiz-adv-x="1692" 
d="M117 680q0 148 61 277q60 131 160 222q100 93 232 146q135 53 275 53q193 0 359 -90q168 -92 269 -253q102 -162 102 -355q0 -148 -60 -278q-60 -131 -159 -223q-103 -94 -233 -145q-133 -54 -278 -54q-143 0 -277 54t-233 147q-99 92 -158 223q-60 130 -60 276zM213 680
q0 -126 50.5 -240.5t138.5 -197.5q87 -83 203 -130t240 -47q123 0 239.5 47.5t204.5 130.5t139 198t51 239q0 168 -87 310q-88 141 -234 224q-146 81 -313 81t-312 -81q-146 -83 -232 -224q-88 -142 -88 -310zM443 678q0 168 115 282q116 113 291 113q104 0 191 -49.5
t138 -137.5l-70 -49q-94 148 -260 148q-134 0 -222 -88q-89 -89 -89 -219q0 -127 88 -215t220 -88q80 0 151 40t116 108l69 -49q-52 -87 -141 -136q-92 -51 -196 -51q-170 0 -286 113q-115 112 -115 278z" />
    <glyph glyph-name="ordfeminine" unicode="&#xaa;" horiz-adv-x="820" 
d="M139 935q0 85 72 138q71 52 188 52q87 0 151 -27v30q0 58 -42.5 95t-111.5 37q-99 0 -176 -83l-78 82q39 48 109 84q70 35 147 35q127 0 200 -64q74 -65 74 -175v-378h-122l2 78q-27 -42 -76.5 -66t-110.5 -24q-97 0 -162 50q-64 49 -64 136zM675 531h-525v120h525v-120z
M259 937q0 -41 32.5 -65t84.5 -24q76 0 125 43t49 104q-56 34 -148 34q-66 0 -104.5 -23.5t-38.5 -68.5z" />
    <glyph glyph-name="guillemotleft" unicode="&#xab;" horiz-adv-x="992" 
d="M723 86l-272 394l272 395h170l-259 -395l259 -394h-170zM543 86h-170l-272 394l272 395h170l-259 -395z" />
    <glyph glyph-name="logicalnot" unicode="&#xac;" horiz-adv-x="1305" 
d="M1162 428h-162v391h-919v159h1081v-550z" />
    <glyph glyph-name="uni00AD" unicode="&#xad;" horiz-adv-x="835" 
d="M134 652h567v-152h-567v152z" />
    <glyph glyph-name="registered" unicode="&#xae;" horiz-adv-x="1292" 
d="M643 541q-145 -3 -269 66.5t-195.5 189t-68.5 258.5q-3 139 68.5 258.5t195.5 188.5t269 66q145 3 271 -66t199 -188.5t70 -258.5q3 -139 -70 -259t-199 -189t-271 -66zM643 1488q-186 0 -314 -125q-129 -126 -129 -308q0 -181 129 -305q128 -125 314 -125q188 0 319 125
t131 305q0 182 -130 308q-131 125 -320 125zM538 805h-85v506h216q80 0 127.5 -42t47.5 -113q0 -51 -26.5 -88.5t-71.5 -51.5l123 -211h-99l-110 197h-122v-197zM538 1235v-157h129q42 0 65.5 21t23.5 57t-23.5 57.5t-65.5 21.5h-129z" />
    <glyph glyph-name="macron" unicode="&#xaf;" horiz-adv-x="871" 
d="M731 1671v-125h-591v125h591z" />
    <glyph glyph-name="degree" unicode="&#xb0;" horiz-adv-x="887" 
d="M442 678q-154 0 -254 99q-100 97 -100 249t100 252t254 100q156 0 256 -100q101 -101 101 -252t-101 -249q-100 -99 -256 -99zM222 1025q0 -97 63 -160q61 -64 157 -64t157 64q62 64 62 160q0 99 -62 164t-157 65t-157 -65q-63 -65 -63 -164z" />
    <glyph glyph-name="plusminus" unicode="&#xb1;" horiz-adv-x="1283" 
d="M136 824v158h424v374h162v-374h426v-158h-426v-381h-162v381h-424zM1163 54h-1044v160h1044v-160z" />
    <glyph glyph-name="twosuperior" unicode="&#xb2;" horiz-adv-x="732" 
d="M174 1129l-111 57q32 89 107 140q74 52 169 52q121 0 204 -71q81 -71 81 -187q0 -72 -38 -136q-15 -24 -48 -54q-28 -27 -53 -46q-19 -15 -67 -49l-49 -35q-136 -97 -148 -145h417v-121h-565v56q0 100 66 170q25 27 61 59q16 14 77 59l64 47q81 59 104 87q44 50 44 106
q0 65 -42.5 104.5t-110.5 39.5q-55 0 -98 -36t-64 -97z" />
    <glyph glyph-name="threesuperior" unicode="&#xb3;" horiz-adv-x="741" 
d="M47 703l110 60q24 -61 73.5 -97t111.5 -36t109 35q45 35 45 95q0 64 -49 103q-50 38 -124 38h-109v109h109q68 0 111.5 33.5t43.5 92.5t-40.5 92.5t-104.5 33.5q-62 0 -107.5 -35t-68.5 -92l-110 60q34 82 109.5 132.5t178.5 50.5q115 0 195 -63q79 -64 79 -177
q0 -62 -33 -110t-90 -70q62 -21 103 -77q41 -58 41 -123q0 -114 -84 -178q-86 -66 -201 -66q-105 0 -183.5 49.5t-114.5 139.5z" />
    <glyph glyph-name="acute" unicode="&#xb4;" horiz-adv-x="607" 
d="M287 1807h180l-188 -334h-139z" />
    <glyph glyph-name="paragraph" unicode="&#xb6;" horiz-adv-x="1215" 
d="M643 509h-130q-192 0 -320 119t-128 306t128 306q127 118 320 118h588v-103h-327v-1655h-131v909zM1036 -400h-116v1519h116v-1519z" />
    <glyph glyph-name="periodcentered" unicode="&#xb7;" horiz-adv-x="448" 
d="M153 379q-28 28 -28 70.5t28 70.5t70 28q43 0 71.5 -28.5t28.5 -70.5t-28 -70t-72 -28q-43 0 -70 28z" />
    <glyph glyph-name="cedilla" unicode="&#xb8;" horiz-adv-x="606" 
d="M225 -447q-81 0 -135 20v114q54 -19 124 -19q128 0 128 70q0 75 -146 75h-59l81 214h102l-40 -124q94 -7 149 -51t55 -115q0 -86 -69 -135t-190 -49z" />
    <glyph glyph-name="onesuperior" unicode="&#xb9;" horiz-adv-x="493" 
d="M40 1240v118h319v-824h-131v706h-188z" />
    <glyph glyph-name="ordmasculine" unicode="&#xba;" horiz-adv-x="905" 
d="M134 1067q0 135 91 223t227 88q137 0 228 -88t91 -223q0 -133 -91 -220q-91 -88 -228 -88q-136 0 -227 88q-91 87 -91 220zM264 1067q0 -79 54 -132q53 -53 134 -53t134 53t53 132q0 80 -53 135q-53 53 -134 53t-134 -53q-54 -54 -54 -135zM154 531v120h597v-120h-597z
" />
    <glyph glyph-name="guillemotright" unicode="&#xbb;" horiz-adv-x="992" 
d="M708 480l-259 395h170l272 -395l-272 -394h-170zM269 86h-170l259 394l-259 395h170l272 -395z" />
    <glyph glyph-name="onequarter" unicode="&#xbc;" horiz-adv-x="1633" 
d="M878 217v106l389 501h155v-496h124v-110h-124v-218h-129v217h-415zM306 0v26l734 1332h124v-24l-732 -1334h-126zM276 1236h-188v118h319v-824h-131v706zM1293 328v336l-261 -336h261z" />
    <glyph glyph-name="onehalf" unicode="&#xbd;" horiz-adv-x="1715" 
d="M1089 595l-111 57q32 89 107 140q74 52 169 52q121 0 204 -71q81 -71 81 -187q0 -72 -38 -136q-15 -24 -48 -54q-28 -27 -53 -46q-19 -15 -67 -49l-49 -35q-136 -97 -148 -145h417v-121h-565v56q0 100 66 170q25 27 61 59q16 14 77 59l64 47q81 59 104 87q44 50 44 106
q0 65 -42.5 104.5t-110.5 39.5q-55 0 -98 -36t-64 -97zM1164 1334l-732 -1334h-126v26l734 1332h124v-24zM276 530v706h-188v118h319v-824h-131z" />
    <glyph glyph-name="threequarters" unicode="&#xbe;" horiz-adv-x="1794" 
d="M1429 217h-415v106l389 501h155v-496h124v-110h-124v-218h-129v217zM351 520q-105 0 -183.5 49.5t-114.5 139.5l110 60q24 -61 73.5 -97t111.5 -36t109 35q45 35 45 95q0 64 -49 103q-50 38 -124 38h-109v109h109q68 0 111.5 33.5t43.5 92.5t-40.5 92.5t-104.5 33.5
q-62 0 -107.5 -35t-68.5 -92l-110 60q34 82 109.5 132.5t178.5 50.5q115 0 195 -63q79 -64 79 -177q0 -62 -33 -110t-90 -70q62 -21 103 -77q41 -58 41 -123q0 -114 -84 -178q-86 -66 -201 -66zM472 0v26l734 1332h124v-24l-732 -1334h-126zM1429 328v336l-261 -336h261z
" />
    <glyph glyph-name="questiondown" unicode="&#xbf;" horiz-adv-x="992" 
d="M22 -45q0 77 39 157q15 30 46 70q28 38 49 62q4 4 23.5 25t33.5 36q4 4 20.5 21.5t29.5 30.5q39 39 49 50q20 22 37 45q22 29 32 51.5t17 58.5q6 31 4 70h148q19 -119 -39 -211q-31 -50 -58 -81q-20 -24 -76 -82q-29 -29 -51 -53q-83 -90 -110 -135q-30 -47 -30 -109
q0 -104 75 -164q74 -59 183 -59q98 0 180 58q83 59 116 150l139 -69q-46 -129 -168 -212q-121 -81 -272 -81q-112 -3 -206.5 40.5t-152.5 130t-58 200.5zM425 807q-28 29 -28 71t28 70t71 28t71 -28t28 -70t-28 -71q-29 -29 -71 -29t-71 29z" />
    <glyph glyph-name="Agrave" unicode="&#xc0;" horiz-adv-x="1353" 
d="M192 0h-174l561 1358h194l562 -1358h-175l-126 315h-715zM982 456l-306 730l-305 -730h611zM733 1473h-139l-188 334h180z" />
    <glyph glyph-name="Aacute" unicode="&#xc1;" horiz-adv-x="1353" 
d="M192 0h-174l561 1358h194l562 -1358h-175l-126 315h-715zM982 456l-306 730l-305 -730h611zM935 1807l-188 -334h-139l147 334h180z" />
    <glyph glyph-name="Acircumflex" unicode="&#xc2;" horiz-adv-x="1353" 
d="M192 0h-174l561 1358h194l562 -1358h-175l-126 315h-715zM676 1186l-305 -730h611zM521 1471h-156l275 369h73l275 -369h-156l-155 221z" />
    <glyph glyph-name="Atilde" unicode="&#xc3;" horiz-adv-x="1353" 
d="M319 315l-127 -315h-174l561 1358h194l562 -1358h-175l-126 315h-715zM982 456l-306 730l-305 -730h611zM428 1534l-85 71q92 143 208 143q56 0 132 -41q74 -41 115 -41q40 0 68.5 18.5t62.5 62.5l82 -76q-47 -71 -96.5 -104t-115.5 -33q-57 0 -131 40q-76 39 -112 39
q-37 0 -63 -17t-65 -62z" />
    <glyph glyph-name="Adieresis" unicode="&#xc4;" horiz-adv-x="1353" 
d="M319 315l-127 -315h-174l561 1358h194l562 -1358h-175l-126 315h-715zM676 1186l-305 -730h611zM924 1546q-28 -28 -72 -28t-71 28q-28 28 -28 71t28 71q27 27 71 27t72 -27q27 -28 27 -71t-27 -71zM402 1617q0 43 27 70.5t71 27.5t72 -27q28 -28 28 -71t-28 -71t-72 -28
q-43 0 -70.5 27.5t-27.5 71.5z" />
    <glyph glyph-name="Aring" unicode="&#xc5;" horiz-adv-x="1353" 
d="M192 0h-174l561 1358h194l562 -1358h-175l-126 315h-715zM676 1186l-305 -730h611zM465 1692q0 88 60 146q60 57 152 57t152 -57q60 -58 60 -146q0 -86 -60 -143t-152 -57t-152 57t-60 143zM677 1796q-45 0 -74 -29.5t-29 -74.5q0 -44 28.5 -72t74.5 -28q45 0 73.5 28
t28.5 72q0 45 -28.5 74.5t-73.5 29.5z" />
    <glyph glyph-name="AE" unicode="&#xc6;" horiz-adv-x="1951" 
d="M149 0h-185l836 1358h1034v-150h-769v-435h664v-150h-664v-474h791v-149h-956v315h-556zM900 1208l-468 -752h468v752z" />
    <glyph glyph-name="Ccedilla" unicode="&#xc7;" horiz-adv-x="1451" 
d="M670 -187l64 170q-181 15 -325 109q-146 93 -230 248q-84 154 -84 339q0 145 54 275.5t149 224.5q94 94 223.5 146.5t271.5 52.5q181 0 336 -84q154 -85 254 -235l-129 -94q-176 258 -461 258q-221 0 -373 -155q-152 -157 -152 -389q0 -116 41.5 -217.5t112.5 -173
t169 -113t207 -41.5q290 0 469 254l124 -89q-90 -139 -235 -223q-144 -84 -318 -95l-25 -78q94 -7 149 -51t55 -115q0 -86 -69 -135t-190 -49q-81 0 -135 20v114q54 -19 124 -19q128 0 128 70q0 75 -146 75h-59z" />
    <glyph glyph-name="Egrave" unicode="&#xc8;" horiz-adv-x="1234" 
d="M1139 0h-955v1358h934v-150h-769v-435h664v-150h-664v-474h790v-149zM740 1473h-139l-188 334h180z" />
    <glyph glyph-name="Eacute" unicode="&#xc9;" horiz-adv-x="1234" 
d="M1139 0h-955v1358h934v-150h-769v-435h664v-150h-664v-474h790v-149zM737 1473h-139l147 334h180z" />
    <glyph glyph-name="Ecircumflex" unicode="&#xca;" horiz-adv-x="1234" 
d="M1139 149v-149h-955v1358h934v-150h-769v-435h664v-150h-664v-474h790zM505 1471h-156l275 369h73l275 -369h-156l-155 221z" />
    <glyph glyph-name="Edieresis" unicode="&#xcb;" horiz-adv-x="1234" 
d="M1139 0h-955v1358h934v-150h-769v-435h664v-150h-664v-474h790v-149zM908 1546q-28 -28 -72 -28t-71 28q-28 28 -28 71t28 71q27 27 71 27t72 -27q27 -28 27 -71t-27 -71zM484 1518q-43 0 -70.5 27.5t-27.5 71.5q0 43 27 70.5t71 27.5t72 -27q28 -28 28 -71t-28 -71
t-72 -28z" />
    <glyph glyph-name="Igrave" unicode="&#xcc;" horiz-adv-x="533" 
d="M349 0h-165v1358h165v-1358zM195 1473l-188 334h180l147 -334h-139z" />
    <glyph glyph-name="Iacute" unicode="&#xcd;" horiz-adv-x="533" 
d="M349 0h-165v1358h165v-1358zM350 1807h180l-188 -334h-139z" />
    <glyph glyph-name="Icircumflex" unicode="&#xce;" horiz-adv-x="533" 
d="M349 1358v-1358h-165v1358h165zM111 1471h-156l275 369h73l275 -369h-156l-155 221z" />
    <glyph glyph-name="Idieresis" unicode="&#xcf;" horiz-adv-x="533" 
d="M184 0v1358h165v-1358h-165zM371 1546q-28 28 -28 71t28 71q27 27 71 27t72 -27q27 -28 27 -71t-27 -71q-28 -28 -72 -28t-71 28zM90 1518q-43 0 -70.5 27.5t-27.5 71.5q0 43 27 70.5t71 27.5t72 -27q28 -28 28 -71t-28 -71t-72 -28z" />
    <glyph glyph-name="Eth" unicode="&#xd0;" horiz-adv-x="1509" 
d="M22 624v144h152v590h540q199 0 359 -88t250 -243q90 -156 90 -349q0 -194 -90 -348q-91 -156 -250 -242q-160 -88 -359 -88h-540v624h-152zM339 1207v-439h482v-144h-482v-473h375q152 -2 274 68.5t188 192t64 266.5q0 225 -146 377q-145 149 -380 151z" />
    <glyph glyph-name="Ntilde" unicode="&#xd1;" horiz-adv-x="1580" 
d="M350 0h-166v1358h173l874 -1113v1113h165v-1358h-173l-873 1109v-1109zM539 1534l-85 71q92 143 208 143q56 0 132 -41q74 -41 115 -41q40 0 68.5 18.5t62.5 62.5l82 -76q-47 -71 -96.5 -104t-115.5 -33q-57 0 -131 40q-77 39 -112 39q-37 0 -63 -17t-65 -62z" />
    <glyph glyph-name="Ograve" unicode="&#xd2;" horiz-adv-x="1584" 
d="M1068 31q-129 -51 -276 -51q-148 0 -275 51q-131 52 -221 142q-94 92 -147 223.5t-53 282.5q0 204 91 364t250 247q157 87 355 87q197 0 356 -87q158 -87 249 -247t91 -364q0 -151 -52.5 -282.5t-146.5 -223.5q-92 -90 -221 -142zM416 1073q-147 -152 -147 -394
q0 -243 147 -394q145 -151 376 -151q230 0 377 151q146 152 146 394t-146 394q-147 150 -377 150t-376 -150zM880 1473h-139l-188 334h180z" />
    <glyph glyph-name="Oacute" unicode="&#xd3;" horiz-adv-x="1584" 
d="M96 679q0 204 91 364t250 247q157 87 355 87q197 0 356 -87q158 -87 249 -247t91 -364q0 -151 -52.5 -282.5t-146.5 -223.5t-223 -142.5t-274 -50.5q-146 0 -274.5 50.5t-221.5 142.5q-94 92 -147 223.5t-53 282.5zM1169 1073q-147 150 -377 150t-376 -150
q-147 -152 -147 -394q0 -243 147 -394q145 -151 376 -151q230 0 377 151q146 152 146 394t-146 394zM901 1473h-139l147 334h180z" />
    <glyph glyph-name="Ocircumflex" unicode="&#xd4;" horiz-adv-x="1584" 
d="M1068 31q-129 -51 -276 -51q-148 0 -275 51q-131 52 -221 142q-94 92 -147 223.5t-53 282.5q0 204 91 364t250 247q157 87 355 87q197 0 356 -87q158 -87 249 -247t91 -364q0 -151 -52.5 -282.5t-146.5 -223.5q-92 -90 -221 -142zM1169 1073q-147 150 -377 150t-376 -150
q-147 -152 -147 -394q0 -243 147 -394q145 -151 376 -151q230 0 377 151q146 152 146 394t-146 394zM793 1692l-156 -221h-156l275 369h73l275 -369h-156z" />
    <glyph glyph-name="Otilde" unicode="&#xd5;" horiz-adv-x="1584" 
d="M1068 31q-129 -51 -276 -51q-148 0 -275 51q-131 52 -221 142q-94 92 -147 223.5t-53 282.5q0 204 91 364t250 247q157 87 355 87q197 0 356 -87q158 -87 249 -247t91 -364q0 -151 -52.5 -282.5t-146.5 -223.5q-92 -90 -221 -142zM416 1073q-147 -152 -147 -394
q0 -243 147 -394q145 -151 376 -151q230 0 377 151q146 152 146 394t-146 394q-147 150 -377 150t-376 -150zM550 1534l-85 71q92 143 208 143q56 0 132 -41q74 -41 115 -41q40 0 68.5 18.5t62.5 62.5l82 -76q-47 -71 -96.5 -104t-115.5 -33q-57 0 -131 40q-76 39 -112 39
q-37 0 -63 -17t-65 -62z" />
    <glyph glyph-name="Odieresis" unicode="&#xd6;" horiz-adv-x="1584" 
d="M96 679q0 204 91 364t250 247q157 87 355 87q197 0 356 -87q158 -87 249 -247t91 -364q0 -151 -52.5 -282.5t-146.5 -223.5t-223 -142.5t-274 -50.5q-146 0 -274.5 50.5t-221.5 142.5q-94 92 -147 223.5t-53 282.5zM416 1073q-147 -152 -147 -394q0 -243 147 -394
q145 -151 376 -151q230 0 377 151q146 152 146 394t-146 394q-147 150 -377 150t-376 -150zM897 1546q-28 28 -28 71t28 71q27 27 71 27t72 -27q27 -28 27 -71t-27 -71q-28 -28 -72 -28t-71 28zM616 1518q-43 0 -70.5 27.5t-27.5 71.5q0 43 27 70.5t71 27.5t72 -27
q28 -28 28 -71t-28 -71t-72 -28z" />
    <glyph glyph-name="multiply" unicode="&#xd7;" horiz-adv-x="1190" 
d="M595 557l-382 -382l-113 113l382 382l-382 382l113 113l382 -382l382 382l113 -113l-382 -382l382 -382l-113 -113z" />
    <glyph glyph-name="Oslash" unicode="&#xd8;" horiz-adv-x="1584" 
d="M96 679q0 204 91 364t250 247q157 87 355 87q186 0 336 -78l118 169l128 -88l-117 -167q111 -94 171 -231.5t60 -302.5q0 -151 -52.5 -282.5t-146.5 -223.5t-223 -142.5t-274 -50.5q-187 0 -339 79l-118 -169l-125 89l116 166q-110 96 -170 233.5t-60 300.5zM1163 1078
l-619 -888q115 -56 248 -56q230 0 377 151q146 152 146 394q0 247 -152 399zM420 281l617 887q-109 55 -245 55q-230 0 -376 -150q-147 -152 -147 -394q0 -247 151 -398z" />
    <glyph glyph-name="Ugrave" unicode="&#xd9;" horiz-adv-x="1474" 
d="M169 485v873h165v-864q0 -163 110 -261t293 -98q184 0 294 98q109 97 109 261v864h165v-873q0 -232 -154 -368q-155 -137 -414 -137t-414 137q-154 136 -154 368zM669 1473l-188 334h180l147 -334h-139z" />
    <glyph glyph-name="Uacute" unicode="&#xda;" horiz-adv-x="1474" 
d="M169 485v873h165v-864q0 -163 110 -261t293 -98q184 0 294 98q109 97 109 261v864h165v-873q0 -232 -154 -368q-155 -137 -414 -137t-414 137q-154 136 -154 368zM788 1473h-139l147 334h180z" />
    <glyph glyph-name="Ucircumflex" unicode="&#xdb;" horiz-adv-x="1474" 
d="M169 485v873h165v-864q0 -163 110 -261t293 -98q184 0 294 98q109 97 109 261v864h165v-873q0 -232 -154 -368q-155 -137 -414 -137t-414 137q-154 136 -154 368zM738 1692l-156 -221h-156l275 369h73l275 -369h-156z" />
    <glyph glyph-name="Udieresis" unicode="&#xdc;" horiz-adv-x="1474" 
d="M1151 117q-155 -137 -414 -137t-414 137q-154 136 -154 368v873h165v-864q0 -163 110 -261t293 -98q184 0 294 98q109 97 109 261v864h165v-873q0 -232 -154 -368zM984 1546q-28 -28 -71 -28t-71 28t-28 71t28 71q27 27 71 27q43 0 72 -27q27 -28 27 -71t-28 -71z
M561 1518q-43 0 -70.5 27.5t-27.5 71.5q0 43 27.5 70.5t70.5 27.5q44 0 72 -27.5t28 -70.5t-28 -71t-72 -28z" />
    <glyph glyph-name="Yacute" unicode="&#xdd;" horiz-adv-x="1280" 
d="M557 530l-534 828h196l421 -659l421 659h196l-534 -828v-530h-166v530zM875 1807l-188 -334h-139l147 334h180z" />
    <glyph glyph-name="Thorn" unicode="&#xde;" horiz-adv-x="1344" 
d="M350 220v-220h-166v1358h166v-210h417q196 0 331 -112q67 -57 105.5 -149t38.5 -206q0 -139 -65 -246q-66 -107 -173 -161q-106 -54 -237 -54h-417zM350 996v-627h386q151 0 244 84t93 226q0 154 -91 236q-92 81 -246 81h-386z" />
    <glyph glyph-name="germandbls" unicode="&#xdf;" horiz-adv-x="1284" 
d="M160 0v981q0 202 131 325q131 122 352 122q202 0 325 -105t123 -277q0 -104 -62 -192q-61 -87 -164 -123q150 -25 241 -124q90 -99 90 -243q0 -171 -108 -277q-109 -107 -284 -107q-119 0 -217.5 53.5t-154.5 144.5l121 87q44 -66 108.5 -104t142.5 -38q104 0 168 67
q64 65 64 171q0 130 -97 203t-260 73q-38 0 -89 -3v144q152 0 247 74q93 73 93 193q0 109 -81 175t-213 66q-141 0 -229 -86q-88 -87 -88 -228v-972h-159z" />
    <glyph glyph-name="agrave" unicode="&#xe0;" horiz-adv-x="1093" 
d="M96 274q0 134 116 218t303 84q141 0 273 -56v70q0 111 -75 177q-76 65 -194 65q-176 0 -297 -142l-103 98q65 88 174 140q108 52 225 52q195 0 312 -102q116 -104 116 -275v-603h-156v146q-46 -76 -129.5 -121t-184.5 -45q-170 0 -275 78t-105 216zM523 451
q-119 0 -192 -45q-74 -47 -74 -129q0 -79 64 -122q65 -44 165 -44q129 0 216 84q86 84 86 193q-47 28 -121 46q-76 17 -144 17zM584 1121h-139l-188 334h180z" />
    <glyph glyph-name="aacute" unicode="&#xe1;" horiz-adv-x="1093" 
d="M476 -20q-170 0 -275 78t-105 216q0 134 116 218t303 84q141 0 273 -56v70q0 111 -75 177q-76 65 -194 65q-176 0 -297 -142l-103 98q65 88 174 140q108 52 225 52q195 0 312 -102q116 -104 116 -275v-603h-156v146q-46 -76 -129.5 -121t-184.5 -45zM257 277
q0 -79 64 -122q65 -44 165 -44q129 0 216 84q86 84 86 193q-47 28 -121 46q-76 17 -144 17q-119 0 -192 -45q-74 -47 -74 -129zM610 1113h-139l147 334h180z" />
    <glyph glyph-name="acircumflex" unicode="&#xe2;" horiz-adv-x="1093" 
d="M96 274q0 134 116 218t303 84q141 0 273 -56v70q0 111 -75 177q-76 65 -194 65q-176 0 -297 -142l-103 98q65 88 174 140q108 52 225 52q195 0 312 -102q116 -104 116 -275v-603h-156v146q-46 -76 -129.5 -121t-184.5 -45q-170 0 -275 78t-105 216zM257 277
q0 -79 64 -122q65 -44 165 -44q129 0 216 84q86 84 86 193q-47 28 -121 46q-76 17 -144 17q-119 0 -192 -45q-74 -47 -74 -129zM358 1084h-156l275 369h73l275 -369h-156l-155 221z" />
    <glyph glyph-name="atilde" unicode="&#xe3;" horiz-adv-x="1093" 
d="M476 -20q-170 0 -275 78t-105 216q0 134 116 218t303 84q141 0 273 -56v70q0 111 -75 177q-76 65 -194 65q-176 0 -297 -142l-103 98q65 88 174 140q108 52 225 52q195 0 312 -102q116 -104 116 -275v-603h-156v146q-46 -76 -129.5 -121t-184.5 -45zM523 451
q-119 0 -192 -45q-74 -47 -74 -129q0 -79 64 -122q65 -44 165 -44q129 0 216 84q86 84 86 193q-47 28 -121 46q-76 17 -144 17zM264 1174l-85 71q92 143 208 143q56 0 132 -41q74 -41 115 -41q40 0 68.5 18.5t62.5 62.5l82 -76q-47 -71 -96.5 -104t-115.5 -33q-57 0 -131 40
q-76 39 -112 39q-37 0 -63 -17t-65 -62z" />
    <glyph glyph-name="adieresis" unicode="&#xe4;" horiz-adv-x="1093" 
d="M96 274q0 134 116 218t303 84q141 0 273 -56v70q0 111 -75 177q-76 65 -194 65q-176 0 -297 -142l-103 98q65 88 174 140q108 52 225 52q195 0 312 -102q116 -104 116 -275v-603h-156v146q-46 -76 -129.5 -121t-184.5 -45q-170 0 -275 78t-105 216zM257 277
q0 -79 64 -122q65 -44 165 -44q129 0 216 84q86 84 86 193q-47 28 -121 46q-76 17 -144 17q-119 0 -192 -45q-74 -47 -74 -129zM588 1280q0 43 27.5 70.5t71.5 27.5t71.5 -27.5t27.5 -70.5q0 -44 -28 -71.5t-71 -27.5t-71 27.5t-28 71.5zM265 1209q-28 27 -28 71t28 71
q27 27 70 27q44 0 72 -27.5t28 -70.5t-28 -71t-72 -28q-43 0 -70 28z" />
    <glyph glyph-name="aring" unicode="&#xe5;" horiz-adv-x="1093" 
d="M476 -20q-170 0 -275 78t-105 216q0 134 116 218t303 84q141 0 273 -56v70q0 111 -75 177q-76 65 -194 65q-176 0 -297 -142l-103 98q65 88 174 140q108 52 225 52q195 0 312 -102q116 -104 116 -275v-603h-156v146q-46 -76 -129.5 -121t-184.5 -45zM523 451
q-119 0 -192 -45q-74 -47 -74 -129q0 -79 64 -122q65 -44 165 -44q129 0 216 84q86 84 86 193q-47 28 -121 46q-76 17 -144 17zM322 1290q0 88 60 146q60 57 152 57t152 -57q60 -58 60 -146q0 -86 -60 -143t-152 -57t-152 57t-60 143zM534 1394q-45 0 -74 -29.5t-29 -74.5
q0 -44 28.5 -72t74.5 -28q45 0 73.5 28t28.5 72q0 45 -28.5 74.5t-73.5 29.5z" />
    <glyph glyph-name="ae" unicode="&#xe6;" horiz-adv-x="1821" 
d="M97 274q0 134 117 216q116 82 307 82q145 0 274 -52v70q0 111 -76 177q-77 65 -196 65q-177 0 -300 -142l-103 98q65 87 175 140q108 52 227 52q131 0 227 -52t144 -148q66 94 165.5 147t217.5 53q180 0 315 -119q64 -58 101 -144.5t37 -187.5q0 -50 -5 -88h-771
q7 -135 99 -225q90 -91 232 -91q183 0 293 161l121 -88q-65 -103 -174 -160.5t-240 -57.5q-129 0 -236 59.5t-171 164.5q-64 -107 -164.5 -165.5t-232.5 -58.5q-172 0 -277 78q-106 78 -106 216zM258 277q0 -78 63.5 -122t168.5 -44q131 0 218 84t87 193q-49 28 -122 44
q-76 17 -146 17q-121 0 -195 -45t-74 -127zM1277 835q-123 0 -211 -73q-91 -74 -107 -190h611q-7 116 -90 190q-82 73 -203 73z" />
    <glyph glyph-name="ccedilla" unicode="&#xe7;" horiz-adv-x="1108" 
d="M454 -187l65 173q-189 27 -309 166q-121 137 -121 328q0 211 148 356q147 144 361 144q146 0 261 -67q116 -68 179 -189l-127 -78q-52 89 -132.5 137.5t-180.5 48.5q-146 0 -248 -102t-102 -250q0 -150 100 -250q101 -102 251 -102q97 0 178.5 48.5t129.5 132.5l127 -78
q-55 -109 -167 -177t-245 -74l-25 -77q94 -7 149 -51t55 -115q0 -86 -69 -135t-190 -49q-81 0 -135 20v114q54 -19 124 -19q128 0 128 70q0 75 -146 75h-59z" />
    <glyph glyph-name="egrave" unicode="&#xe8;" horiz-adv-x="1138" 
d="M592 -20q-139 -2 -256 65t-183 183t-63 252q0 104 39 197t105.5 159t157.5 105t192 39q89 0 173 -31t149 -88q66 -58 103.5 -144.5t37.5 -187.5q0 -50 -5 -88h-791q7 -135 102 -225q92 -91 239 -91q190 0 303 161l121 -88q-66 -102 -178 -160t-246 -58zM257 572h631
q-7 116 -93 190q-85 73 -210 73q-127 0 -218 -73q-92 -74 -110 -190zM644 1121h-139l-188 334h180z" />
    <glyph glyph-name="eacute" unicode="&#xe9;" horiz-adv-x="1138" 
d="M90 480q0 104 39 197t105.5 159t157.5 105t192 39q89 0 173 -31t149 -88q66 -58 103.5 -144.5t37.5 -187.5q0 -50 -5 -88h-791q7 -135 102 -225q92 -91 239 -91q190 0 303 161l121 -88q-66 -102 -178 -160t-246 -58q-139 -2 -256 65t-183 183t-63 252zM257 572h631
q-7 116 -93 190q-85 73 -210 73q-127 0 -218 -73q-92 -74 -110 -190zM845 1447l-188 -334h-139l147 334h180z" />
    <glyph glyph-name="ecircumflex" unicode="&#xea;" horiz-adv-x="1138" 
d="M592 -20q-139 -2 -256 65t-183 183t-63 252q0 104 39 197t105.5 159t157.5 105t192 39q89 0 173 -31t149 -88q66 -58 103.5 -144.5t37.5 -187.5q0 -50 -5 -88h-791q7 -135 102 -225q92 -91 239 -91q190 0 303 161l121 -88q-66 -102 -178 -160t-246 -58zM257 572h631
q-7 116 -93 190q-85 73 -210 73q-127 0 -218 -73q-92 -74 -110 -190zM414 1084h-156l275 369h73l275 -369h-156l-155 221z" />
    <glyph glyph-name="edieresis" unicode="&#xeb;" horiz-adv-x="1138" 
d="M90 480q0 104 39 197t105.5 159t157.5 105t192 39q89 0 173 -31t149 -88q66 -58 103.5 -144.5t37.5 -187.5q0 -50 -5 -88h-791q7 -135 102 -225q92 -91 239 -91q190 0 303 161l121 -88q-66 -102 -178 -160t-246 -58q-139 -2 -256 65t-183 183t-63 252zM585 835
q-127 0 -218 -73q-92 -74 -110 -190h631q-7 116 -93 190q-85 73 -210 73zM816 1209q-28 -28 -71 -28t-71 28q-28 27 -28 71q0 43 27.5 70.5t71.5 27.5t71.5 -27.5t27.5 -70.5q0 -44 -28 -71zM393 1181q-43 0 -70.5 27.5t-27.5 71.5t27.5 71t70.5 27q44 0 72 -27.5t28 -70.5
t-28 -71t-72 -28z" />
    <glyph glyph-name="igrave" unicode="&#xec;" horiz-adv-x="479" 
d="M319 0h-159v960h159v-960zM162 1121l-188 334h180l147 -334h-139z" />
    <glyph glyph-name="iacute" unicode="&#xed;" horiz-adv-x="479" 
d="M319 0h-159v960h159v-960zM316 1447h180l-188 -334h-139z" />
    <glyph glyph-name="icircumflex" unicode="&#xee;" horiz-adv-x="479" 
d="M319 960v-960h-159v960h159zM84 1084h-156l275 369h73l275 -369h-156l-155 221z" />
    <glyph glyph-name="idieresis" unicode="&#xef;" horiz-adv-x="479" 
d="M160 0v960h159v-960h-159zM316 1280q0 43 27.5 70.5t71.5 27.5t71.5 -27.5t27.5 -70.5q0 -44 -28 -71.5t-71 -27.5t-71 27.5t-28 71.5zM63 1181q-43 0 -70.5 27.5t-27.5 71.5t27.5 71t70.5 27q44 0 72 -27.5t28 -70.5t-28 -71t-72 -28z" />
    <glyph glyph-name="eth" unicode="&#xf0;" horiz-adv-x="1158" 
d="M572 -20q-213 0 -346 129q-134 128 -134 334t129 335q128 128 335 128q106 0 188 -42q82 -43 124 -102q-19 113 -84 224t-168 199l-238 -177l-80 111l201 149q-90 55 -189 85l79 127q125 -43 238 -117l196 145l76 -112l-161 -120q151 -136 232 -325t81 -412
q0 -255 -132 -407q-134 -152 -347 -152zM789 675q-87 88 -226 88t-225 -89q-87 -88 -87 -231q0 -140 87 -227q85 -88 225 -88q139 0 226 88q87 87 87 227q0 143 -87 232z" />
    <glyph glyph-name="ntilde" unicode="&#xf1;" horiz-adv-x="1193" 
d="M160 0v960h160v-144q45 73 128 118q83 46 193 46q190 0 298 -105q107 -107 107 -291v-584h-159v545q0 140 -69.5 212.5t-201.5 72.5q-125 0 -211 -80t-86 -208v-542h-159zM350 1174l-85 71q92 143 208 143q56 0 132 -41q74 -41 115 -41q40 0 68.5 18.5t62.5 62.5l82 -76
q-47 -71 -96.5 -104t-115.5 -33q-57 0 -131 40q-76 39 -112 39q-37 0 -63 -17t-65 -62z" />
    <glyph glyph-name="ograve" unicode="&#xf2;" horiz-adv-x="1198" 
d="M963 124q-145 -144 -364 -144t-364 144q-146 144 -146 356t146 356q145 144 364 144t364 -144q146 -144 146 -356t-146 -356zM348 731q-100 -101 -100 -251t100 -250q101 -102 251 -102q151 0 251 102q100 100 100 250t-100 251q-101 101 -251 101t-251 -101zM656 1121
h-139l-188 334h180z" />
    <glyph glyph-name="oacute" unicode="&#xf3;" horiz-adv-x="1198" 
d="M235 124q-146 144 -146 356t146 356q145 144 364 144t364 -144q146 -144 146 -356t-146 -356q-145 -144 -364 -144t-364 144zM850 731q-101 101 -251 101t-251 -101q-100 -101 -100 -251t100 -250q101 -102 251 -102q151 0 251 102q100 100 100 250t-100 251zM668 1113
h-139l147 334h180z" />
    <glyph glyph-name="ocircumflex" unicode="&#xf4;" horiz-adv-x="1198" 
d="M963 124q-145 -144 -364 -144t-364 144q-146 144 -146 356t146 356q145 144 364 144t364 -144q146 -144 146 -356t-146 -356zM850 731q-101 101 -251 101t-251 -101q-100 -101 -100 -251t100 -250q101 -102 251 -102q151 0 251 102q100 100 100 250t-100 251zM600 1305
l-156 -221h-156l275 369h73l275 -369h-156z" />
    <glyph glyph-name="otilde" unicode="&#xf5;" horiz-adv-x="1198" 
d="M963 124q-145 -144 -364 -144t-364 144q-146 144 -146 356t146 356q145 144 364 144t364 -144q146 -144 146 -356t-146 -356zM348 731q-100 -101 -100 -251t100 -250q101 -102 251 -102q151 0 251 102q100 100 100 250t-100 251q-101 101 -251 101t-251 -101zM350 1174
l-85 71q92 143 208 143q56 0 132 -41q74 -41 115 -41q40 0 68.5 18.5t62.5 62.5l82 -76q-47 -71 -96.5 -104t-115.5 -33q-57 0 -131 40q-76 39 -112 39q-37 0 -63 -17t-65 -62z" />
    <glyph glyph-name="odieresis" unicode="&#xf6;" horiz-adv-x="1198" 
d="M235 124q-146 144 -146 356t146 356q145 144 364 144t364 -144q146 -144 146 -356t-146 -356q-145 -144 -364 -144t-364 144zM348 731q-100 -101 -100 -251t100 -250q101 -102 251 -102q151 0 251 102q100 100 100 250t-100 251q-101 101 -251 101t-251 -101zM676 1280
q0 43 27.5 70.5t71.5 27.5t71.5 -27.5t27.5 -70.5q0 -44 -28 -71.5t-71 -27.5t-71 27.5t-28 71.5zM423 1181q-43 0 -70.5 27.5t-27.5 71.5t27.5 71t70.5 27q44 0 72 -27.5t28 -70.5t-28 -71t-72 -28z" />
    <glyph glyph-name="divide" unicode="&#xf7;" horiz-adv-x="1271" 
d="M122 600v158h1027v-158h-1027zM539 280q0 43 27.5 70.5t71.5 27.5t71.5 -27.5t27.5 -70.5q0 -44 -27.5 -71.5t-71.5 -27.5t-71.5 27.5t-27.5 71.5zM710 1011q-28 -28 -72 -28t-71 28q-28 27 -28 70t28 71q27 28 71 28t72 -28q27 -28 27 -71t-27 -70z" />
    <glyph glyph-name="oslash" unicode="&#xf8;" horiz-adv-x="1198" 
d="M863 912l156 191l104 -85l-154 -188q140 -143 140 -350q0 -212 -146 -356q-145 -144 -364 -144q-145 0 -266 69l-155 -190l-103 83l153 189q-139 142 -139 349q0 212 146 356q145 144 364 144q143 0 264 -68zM870 708l-440 -539q80 -41 169 -41q151 0 251 102
q100 100 100 250q0 131 -80 228zM327 252l439 540q-74 40 -167 40q-150 0 -251 -101q-100 -101 -100 -251q0 -133 79 -228z" />
    <glyph glyph-name="ugrave" unicode="&#xf9;" horiz-adv-x="1189" 
d="M548 -20q-188 0 -294 105q-107 105 -107 290v585h158v-546q0 -138 69.5 -211t198.5 -73q127 0 212 79t85 208v543h159v-960h-159v144q-44 -74 -129 -119t-193 -45zM523 1121l-188 334h180l147 -334h-139z" />
    <glyph glyph-name="uacute" unicode="&#xfa;" horiz-adv-x="1189" 
d="M548 -20q-188 0 -294 105q-107 105 -107 290v585h158v-546q0 -138 69.5 -211t198.5 -73q127 0 212 79t85 208v543h159v-960h-159v144q-44 -74 -129 -119t-193 -45zM836 1447l-188 -334h-139l147 334h180z" />
    <glyph glyph-name="ucircumflex" unicode="&#xfb;" horiz-adv-x="1189" 
d="M147 375v585h158v-546q0 -138 69.5 -211t198.5 -73q127 0 212 79t85 208v543h159v-960h-159v144q-44 -74 -129 -119t-193 -45q-188 0 -294 105q-107 105 -107 290zM425 1084h-156l275 369h73l275 -369h-156l-155 221z" />
    <glyph glyph-name="udieresis" unicode="&#xfc;" horiz-adv-x="1189" 
d="M548 -20q-188 0 -294 105q-107 105 -107 290v585h158v-546q0 -138 69.5 -211t198.5 -73q127 0 212 79t85 208v543h159v-960h-159v144q-44 -74 -129 -119t-193 -45zM656 1280q0 43 27.5 70.5t71.5 27.5t71.5 -27.5t27.5 -70.5q0 -44 -28 -71.5t-71 -27.5t-71 27.5
t-28 71.5zM403 1181q-43 0 -70.5 27.5t-27.5 71.5t27.5 71t70.5 27q44 0 72 -27.5t28 -70.5t-28 -71t-72 -28z" />
    <glyph glyph-name="yacute" unicode="&#xfd;" horiz-adv-x="1060" 
d="M430 -72l17 45l-415 987h173l327 -804l321 804h175l-453 -1082q-65 -155 -146 -226q-83 -72 -220 -72q-99 0 -164 33l19 135q58 -26 136 -26q80 0 135 50t95 156zM592 1113h-139l147 334h180z" />
    <glyph glyph-name="thorn" unicode="&#xfe;" horiz-adv-x="1264" 
d="M319 158v-558h-159v1809h159v-606q58 83 153.5 130t216.5 47q206 0 346 -141q138 -141 138 -356q0 -217 -138 -359q-140 -144 -346 -144q-121 0 -216 47.5t-154 130.5zM673 836q-153 0 -254 -102q-102 -102 -102 -251q0 -151 102 -255t254 -104q147 0 245 104
q97 103 97 255q0 150 -96 252q-98 101 -246 101z" />
    <glyph glyph-name="ydieresis" unicode="&#xff;" horiz-adv-x="1060" 
d="M447 -27l-415 987h173l327 -804l321 804h175l-453 -1082q-65 -155 -146 -226q-83 -72 -220 -72q-99 0 -164 33l19 135q58 -26 136 -26q80 0 135 50t95 156zM586 1280q0 43 27.5 70.5t71.5 27.5t71.5 -27.5t27.5 -70.5q0 -44 -28 -71.5t-71 -27.5t-71 27.5t-28 71.5z
M263 1209q-28 27 -28 71t28 71q27 27 70 27q44 0 72 -27.5t28 -70.5t-28 -71t-72 -28q-43 0 -70 28z" />
    <glyph glyph-name="Amacron" unicode="&#x100;" horiz-adv-x="1353" 
d="M192 0h-174l561 1358h194l562 -1358h-175l-126 315h-715zM982 456l-306 730l-305 -730h611zM972 1671v-125h-591v125h591z" />
    <glyph glyph-name="amacron" unicode="&#x101;" horiz-adv-x="1093" 
d="M96 274q0 134 116 218t303 84q141 0 273 -56v70q0 111 -75 177q-76 65 -194 65q-176 0 -297 -142l-103 98q65 88 174 140q108 52 225 52q195 0 312 -102q116 -104 116 -275v-603h-156v146q-46 -76 -129.5 -121t-184.5 -45q-170 0 -275 78t-105 216zM257 277
q0 -79 64 -122q65 -44 165 -44q129 0 216 84q86 84 86 193q-47 28 -121 46q-76 17 -144 17q-119 0 -192 -45q-74 -47 -74 -129zM228 1210v125h591v-125h-591z" />
    <glyph glyph-name="Abreve" unicode="&#x102;" horiz-adv-x="1353" 
d="M192 0h-174l561 1358h194l562 -1358h-175l-126 315h-715zM676 1186l-305 -730h611zM405 1760h136q6 -66 43 -105.5t93 -39.5q57 0 94 39.5t42 105.5h136q-6 -122 -81 -195q-74 -73 -191 -73t-190 73q-74 73 -82 195z" />
    <glyph glyph-name="abreve" unicode="&#x103;" horiz-adv-x="1093" 
d="M96 274q0 134 116 218t303 84q141 0 273 -56v70q0 111 -75 177q-76 65 -194 65q-176 0 -297 -142l-103 98q65 88 174 140q108 52 225 52q195 0 312 -102q116 -104 116 -275v-603h-156v146q-46 -76 -129.5 -121t-184.5 -45q-170 0 -275 78t-105 216zM523 451
q-119 0 -192 -45q-74 -47 -74 -129q0 -79 64 -122q65 -44 165 -44q129 0 216 84q86 84 86 193q-47 28 -121 46q-76 17 -144 17zM712 1208q-74 -73 -191 -73t-190 73q-74 73 -82 195h136q6 -66 43 -105.5t93 -39.5q57 0 94 39.5t42 105.5h136q-6 -121 -81 -195z" />
    <glyph glyph-name="Aogonek" unicode="&#x104;" horiz-adv-x="1353" 
d="M192 0h-174l561 1358h194l562 -1358h-24q-93 -61 -145.5 -120.5t-52.5 -106.5q0 -41 28 -64t78 -23q57 0 119 30l39 -117q-74 -46 -180 -46q-104 0 -165 50q-60 51 -60 138q0 143 188 259l-126 315h-715zM982 456l-306 730l-305 -730h611z" />
    <glyph glyph-name="aogonek" unicode="&#x105;" horiz-adv-x="1093" 
d="M476 -20q-170 0 -275 78t-105 216q0 134 116 218t303 84q141 0 273 -56v70q0 111 -75 177q-76 65 -194 65q-176 0 -297 -142l-103 98q65 88 174 140q108 52 225 52q195 0 312 -102q116 -104 116 -275v-603h-5q-93 -61 -145.5 -120.5t-52.5 -106.5q0 -41 28 -64t78 -23
q57 0 119 30l39 -117q-74 -46 -180 -46q-104 0 -165 50q-60 51 -60 138q0 143 188 259v146q-46 -76 -129.5 -121t-184.5 -45zM523 451q-119 0 -192 -45q-74 -47 -74 -129q0 -79 64 -122q65 -44 165 -44q129 0 216 84q86 84 86 193q-47 28 -121 46q-76 17 -144 17z" />
    <glyph glyph-name="Cacute" unicode="&#x106;" horiz-adv-x="1451" 
d="M798 -20q-143 0 -273.5 53t-225.5 147t-149.5 224t-54.5 275t54 275.5t149 224.5q94 94 223.5 146.5t271.5 52.5q181 0 336 -84q154 -85 254 -235l-129 -94q-176 258 -461 258q-221 0 -373 -155q-152 -157 -152 -389q0 -116 41.5 -217.5t112.5 -173t169 -113t207 -41.5
q290 0 469 254l124 -89q-97 -148 -252 -233q-158 -86 -341 -86zM887 1473h-139l147 334h180z" />
    <glyph glyph-name="cacute" unicode="&#x107;" horiz-adv-x="1108" 
d="M235 125q-146 144 -146 355t148 356q147 144 361 144q146 0 261 -67q116 -68 179 -189l-127 -78q-52 89 -132.5 137.5t-180.5 48.5q-146 0 -248 -102t-102 -250q0 -150 100 -250q101 -102 251 -102q97 0 178.5 48.5t129.5 132.5l127 -78q-59 -116 -176 -183
q-119 -68 -259 -68q-219 0 -364 145zM667 1113h-139l147 334h180z" />
    <glyph glyph-name="Ccircumflex" unicode="&#x108;" horiz-adv-x="1451" 
d="M798 -20q-143 0 -273.5 53t-225.5 147t-149.5 224t-54.5 275t54 275.5t149 224.5q94 94 223.5 146.5t271.5 52.5q181 0 336 -84q154 -85 254 -235l-129 -94q-176 258 -461 258q-221 0 -373 -155q-152 -157 -152 -389q0 -116 41.5 -217.5t112.5 -173t169 -113t207 -41.5
q290 0 469 254l124 -89q-97 -148 -252 -233q-158 -86 -341 -86zM644 1471h-156l275 369h73l275 -369h-156l-155 221z" />
    <glyph glyph-name="ccircumflex" unicode="&#x109;" horiz-adv-x="1108" 
d="M235 125q-146 144 -146 355t148 356q147 144 361 144q146 0 261 -67q116 -68 179 -189l-127 -78q-52 89 -132.5 137.5t-180.5 48.5q-146 0 -248 -102t-102 -250q0 -150 100 -250q101 -102 251 -102q97 0 178.5 48.5t129.5 132.5l127 -78q-59 -116 -176 -183
q-119 -68 -259 -68q-219 0 -364 145zM426 1084h-156l275 369h73l275 -369h-156l-155 221z" />
    <glyph glyph-name="Cdotaccent" unicode="&#x10a;" horiz-adv-x="1451" 
d="M150 402q-55 129 -55 277q0 149 55 278q54 131 148 222q94 94 223.5 146.5t271.5 52.5q181 0 336 -84q154 -85 254 -235l-129 -94q-176 258 -461 258q-221 0 -373 -155q-152 -157 -152 -389q0 -116 41.5 -217.5t112.5 -173t169 -113t207 -41.5q290 0 469 254l124 -89
q-97 -148 -252 -233q-158 -86 -341 -86q-143 0 -273.5 53t-225.5 147q-93 90 -149 222zM723 1545q-28 27 -28 71t28 71q27 27 70 27q44 0 72 -27.5t28 -70.5t-28 -71t-72 -28q-43 0 -70 28z" />
    <glyph glyph-name="cdotaccent" unicode="&#x10b;" horiz-adv-x="1108" 
d="M599 -20q-219 0 -364 145q-146 144 -146 355t148 356q147 144 361 144q146 0 261 -67q116 -68 179 -189l-127 -78q-52 89 -132.5 137.5t-180.5 48.5q-146 0 -248 -102t-102 -250q0 -150 100 -250q101 -102 251 -102q97 0 178.5 48.5t129.5 132.5l127 -78
q-59 -116 -176 -183q-119 -68 -259 -68zM528 1211q-28 27 -28 71t27 71t71 27t72 -27q28 -28 28 -71t-28 -71t-72 -28q-43 0 -70 28z" />
    <glyph glyph-name="Ccaron" unicode="&#x10c;" horiz-adv-x="1451" 
d="M150 402q-55 129 -55 277q0 149 55 278q54 131 148 222q94 94 223.5 146.5t271.5 52.5q181 0 336 -84q154 -85 254 -235l-129 -94q-176 258 -461 258q-221 0 -373 -155q-152 -157 -152 -389q0 -116 41.5 -217.5t112.5 -173t169 -113t207 -41.5q290 0 469 254l124 -89
q-97 -148 -252 -233q-158 -86 -341 -86q-143 0 -273.5 53t-225.5 147q-93 90 -149 222zM828 1474h-73l-275 369h156l154 -222l157 222h156z" />
    <glyph glyph-name="ccaron" unicode="&#x10d;" horiz-adv-x="1108" 
d="M235 125q-146 144 -146 355t148 356q147 144 361 144q146 0 261 -67q116 -68 179 -189l-127 -78q-52 89 -132.5 137.5t-180.5 48.5q-146 0 -248 -102t-102 -250q0 -150 100 -250q101 -102 251 -102q97 0 178.5 48.5t129.5 132.5l127 -78q-59 -116 -176 -183
q-119 -68 -259 -68q-219 0 -364 145zM552 1089l-275 369h156l154 -222l157 222h156l-275 -369h-73z" />
    <glyph glyph-name="Dcaron" unicode="&#x10e;" horiz-adv-x="1519" 
d="M184 0v1358h540q199 0 359 -88t250 -243q90 -156 90 -349q0 -194 -90 -348q-91 -156 -250 -242q-160 -88 -359 -88h-540zM724 1206l-375 1v-1056h375q152 -2 274 68.5t188 192t64 266.5q0 225 -146 377q-145 149 -380 151zM696 1474h-73l-275 369h156l154 -222l157 222
h156z" />
    <glyph glyph-name="dcaron" unicode="&#x10f;" horiz-adv-x="1319" 
d="M1436 1410l-39 -392h-130v392h169zM575 -20q-133 -2 -245 64t-176.5 182.5t-62.5 255.5q0 139 61 253t172 179.5t251 65.5q121 0 216 -47.5t154 -130.5v606h159v-1408h-159v156q-58 -83 -153.5 -129.5t-216.5 -46.5zM591 836q-150 0 -246 -101.5t-96 -252.5
q0 -150 96.5 -254t245.5 -104q152 0 254 103t102 255q0 153 -101.5 253.5t-254.5 100.5z" />
    <glyph glyph-name="Dcroat" unicode="&#x110;" horiz-adv-x="1509" 
d="M22 624v144h152v590h540q195 0 354 -84.5t252 -240.5t93 -355q0 -195 -91 -350.5t-250.5 -241.5t-357.5 -86h-540v624h-152zM339 1207v-439h482v-144h-482v-473h375q152 -2 274 68.5t188 192t64 266.5q0 225 -146 377q-145 149 -380 151z" />
    <glyph glyph-name="dcroat" unicode="&#x111;" horiz-adv-x="1293" 
d="M575 -20q-133 -2 -245 64t-176.5 182.5t-62.5 255.5q0 139 61 253t172 179.5t251 65.5q121 0 216 -47.5t154 -130.5v318h-336v136h336v152h159v-152h147v-136h-147v-1120h-159v156q-58 -83 -153.5 -129.5t-216.5 -46.5zM591 836q-150 0 -246 -101.5t-96 -252.5
q0 -150 96.5 -254t245.5 -104q152 0 254 103t102 255q0 153 -101.5 253.5t-254.5 100.5z" />
    <glyph glyph-name="Emacron" unicode="&#x112;" horiz-adv-x="1234" 
d="M959 1671v-125h-591v125h591zM1139 0h-955v1358h934v-150h-769v-435h664v-150h-664v-474h790v-149z" />
    <glyph glyph-name="emacron" unicode="&#x113;" horiz-adv-x="1138" 
d="M867 1210h-591v125h591v-125zM90 480q0 104 39 197t105.5 159t157.5 105t192 39q89 0 173 -31t149 -88q66 -58 103.5 -144.5t37.5 -187.5q0 -50 -5 -88h-791q7 -140 103.5 -228t237.5 -88q190 0 303 161l121 -88q-68 -106 -181 -162t-243 -56q-139 -2 -256 65t-183 183
t-63 252zM257 572h631q-8 120 -94.5 191.5t-208.5 71.5q-124 0 -217 -71.5t-111 -191.5z" />
    <glyph glyph-name="Ebreve" unicode="&#x114;" horiz-adv-x="1234" 
d="M393 1760h136q6 -66 43 -105.5t93 -39.5q57 0 94 39.5t42 105.5h136q-6 -120 -79.5 -194t-192.5 -74t-191.5 74t-80.5 194zM1139 0h-955v1358h934v-150h-769v-435h664v-150h-664v-474h790v-149z" />
    <glyph glyph-name="ebreve" unicode="&#x115;" horiz-adv-x="1138" 
d="M841 1403q-6 -120 -79.5 -194t-192.5 -74t-191.5 74t-80.5 194h136q6 -66 43 -105.5t93 -39.5q57 0 94 39.5t42 105.5h136zM592 -20q-139 -2 -256 65t-183 183t-63 252q0 104 39 197t105.5 159t157.5 105t192 39q89 0 173 -31t149 -88q66 -58 103.5 -144.5t37.5 -187.5
q0 -50 -5 -88h-791q7 -140 103.5 -228t237.5 -88q190 0 303 161l121 -88q-68 -106 -181 -162t-243 -56zM585 835q-124 0 -217 -71.5t-111 -191.5h631q-8 120 -94.5 191.5t-208.5 71.5z" />
    <glyph glyph-name="Edotaccent" unicode="&#x116;" horiz-adv-x="1234" 
d="M666 1517q-43 0 -70.5 27.5t-27.5 71.5t27 71t71 27t72 -27.5t28 -70.5t-28 -71t-72 -28zM1139 0h-955v1358h934v-150h-769v-435h664v-150h-664v-474h790v-149z" />
    <glyph glyph-name="edotaccent" unicode="&#x117;" horiz-adv-x="1138" 
d="M579 1183q-43 0 -70.5 27.5t-27.5 71.5t27.5 71t70.5 27q44 0 72 -27.5t28 -70.5t-28 -71t-72 -28zM90 480q0 104 39 197t105.5 159t157.5 105t192 39q89 0 173 -31t149 -88q66 -58 103.5 -144.5t37.5 -187.5q0 -50 -5 -88h-791q7 -140 103.5 -228t237.5 -88
q190 0 303 161l121 -88q-68 -106 -181 -162t-243 -56q-139 -2 -256 65t-183 183t-63 252zM585 835q-124 0 -217 -71.5t-111 -191.5h631q-8 120 -94.5 191.5t-208.5 71.5z" />
    <glyph glyph-name="Eogonek" unicode="&#x118;" horiz-adv-x="1234" 
d="M988 0h-804v1358h934v-150h-769v-435h664v-150h-664v-474h790v-149q-93 -61 -145.5 -120.5t-52.5 -106.5q0 -41 28 -64t78 -23q57 0 119 30l39 -117q-74 -46 -180 -46q-98 0 -161.5 47t-63.5 141q0 143 188 259z" />
    <glyph glyph-name="eogonek" unicode="&#x119;" horiz-adv-x="1138" 
d="M90 480q0 104 39 197t105.5 159t157.5 105t192 39q89 0 173 -31t149 -88q66 -58 103.5 -144.5t37.5 -187.5q0 -50 -5 -88h-791q7 -140 103.5 -228t237.5 -88q190 0 303 161l121 -88q-96 -148 -275 -198q-93 -61 -145.5 -120.5t-52.5 -106.5q0 -41 28 -64t78 -23
q57 0 119 30l39 -117q-74 -46 -180 -46q-98 0 -161.5 47t-63.5 141q0 129 159 240q-134 7 -242 74t-168.5 179t-60.5 246zM257 572h631q-8 120 -94.5 191.5t-208.5 71.5q-124 0 -217 -71.5t-111 -191.5z" />
    <glyph glyph-name="Ecaron" unicode="&#x11a;" horiz-adv-x="1234" 
d="M623 1474l-275 369h156l154 -222l157 222h156l-275 -369h-73zM1139 0h-955v1358h934v-150h-769v-435h664v-150h-664v-474h790v-149z" />
    <glyph glyph-name="ecaron" unicode="&#x11b;" horiz-adv-x="1138" 
d="M533 1089l-275 369h156l154 -222l157 222h156l-275 -369h-73zM592 -20q-139 -2 -256 65t-183 183t-63 252q0 104 39 197t105.5 159t157.5 105t192 39q89 0 173 -31t149 -88q66 -58 103.5 -144.5t37.5 -187.5q0 -50 -5 -88h-791q7 -140 103.5 -228t237.5 -88
q190 0 303 161l121 -88q-68 -106 -181 -162t-243 -56zM257 572h631q-8 120 -94.5 191.5t-208.5 71.5q-124 0 -217 -71.5t-111 -191.5z" />
    <glyph glyph-name="Gcircumflex" unicode="&#x11c;" horiz-adv-x="1534" 
d="M797 1692l-156 -221h-156l275 369h73l275 -369h-156zM792 -20q-145 0 -274 53.5t-222 146t-147 222.5t-54 277q0 195 90 354.5t250.5 251.5t357.5 92q179 0 329.5 -80.5t250.5 -227.5l-129 -94q-171 248 -451 248q-150 0 -271 -73t-187.5 -197t-66.5 -274
q-2 -152 66 -278t189.5 -197.5t269.5 -69.5q109 0 198.5 34t147.5 94q113 117 136 277h-483v150h655q2 -40 2 -62q0 -190 -84.5 -337.5t-234 -228.5t-338.5 -81z" />
    <glyph glyph-name="gcircumflex" unicode="&#x11d;" horiz-adv-x="1264" 
d="M424 1084h-156l275 369h73l275 -369h-156l-155 221zM579 -20q-207 0 -345 144q-139 142 -139 359q0 212 136.5 354.5t347.5 142.5q121 0 216.5 -47t153.5 -130v157h159v-891q0 -231 -145 -360t-379 -129q-134 0 -250 49t-194 140l105 104q136 -148 339 -148q159 0 262 83
t103 238v112q-58 -83 -154 -130.5t-216 -47.5zM595 836q-150 0 -246 -101t-96 -252t96 -255t246 -104q153 0 254.5 103t101.5 256q0 152 -102 252.5t-254 100.5z" />
    <glyph glyph-name="Gbreve" unicode="&#x11e;" horiz-adv-x="1534" 
d="M1059 1760q-6 -120 -79.5 -194t-192.5 -74t-191.5 74t-80.5 194h136q6 -66 43 -105.5t93 -39.5q57 0 94 39.5t42 105.5h136zM792 -20q-145 0 -274 53.5t-222 146t-147 222.5t-54 277q0 195 90 354.5t250.5 251.5t357.5 92q179 0 329.5 -80.5t250.5 -227.5l-129 -94
q-171 248 -451 248q-150 0 -271 -73t-187.5 -197t-66.5 -274q-2 -152 66 -278t189.5 -197.5t269.5 -69.5q109 0 198.5 34t147.5 94q113 117 136 277h-483v150h655q2 -40 2 -62q0 -190 -84.5 -337.5t-234 -228.5t-338.5 -81z" />
    <glyph glyph-name="gbreve" unicode="&#x11f;" horiz-adv-x="1264" 
d="M846 1403q-6 -120 -79.5 -194t-192.5 -74t-191.5 74t-80.5 194h136q6 -66 43 -105.5t93 -39.5q57 0 94 39.5t42 105.5h136zM95 483q0 212 136.5 354.5t347.5 142.5q121 0 216.5 -47t153.5 -130v157h159v-891q0 -231 -145 -360t-379 -129q-134 0 -250 49t-194 140l105 104
q136 -148 339 -148q159 0 262 83t103 238v112q-58 -83 -154 -130.5t-216 -47.5q-207 0 -345 144q-139 142 -139 359zM253 483q0 -151 96 -255t246 -104q153 0 254.5 103t101.5 256q0 152 -102 252.5t-254 100.5q-150 0 -246 -101t-96 -252z" />
    <glyph glyph-name="Gdotaccent" unicode="&#x120;" horiz-adv-x="1534" 
d="M772 1517q-43 0 -70.5 27.5t-27.5 71.5t27 71t71 27t72 -27.5t28 -70.5t-28 -71t-72 -28zM792 -20q-145 0 -274 53.5t-222 146t-147 222.5t-54 277q0 195 90 354.5t250.5 251.5t357.5 92q179 0 329.5 -80.5t250.5 -227.5l-129 -94q-171 248 -451 248q-150 0 -271 -73
t-187.5 -197t-66.5 -274q-2 -152 66 -278t189.5 -197.5t269.5 -69.5q109 0 198.5 34t147.5 94q113 117 136 277h-483v150h655q2 -40 2 -62q0 -190 -84.5 -337.5t-234 -228.5t-338.5 -81z" />
    <glyph glyph-name="gdotaccent" unicode="&#x121;" horiz-adv-x="1264" 
d="M495 1211q-28 27 -28 71t27.5 71t70.5 27q44 0 72 -27.5t28 -70.5t-28 -71t-72 -28q-43 0 -70 28zM95 483q0 212 136.5 354.5t347.5 142.5q121 0 216.5 -47t153.5 -130v157h159v-891q0 -231 -145 -360t-379 -129q-134 0 -250 49t-194 140l105 104q136 -148 339 -148
q159 0 262 83t103 238v112q-58 -83 -154 -130.5t-216 -47.5q-207 0 -345 144q-139 142 -139 359zM595 836q-150 0 -246 -101t-96 -252t96 -255t246 -104q153 0 254.5 103t101.5 256q0 152 -102 252.5t-254 100.5z" />
    <glyph glyph-name="uni0122" unicode="&#x122;" horiz-adv-x="1534" 
d="M792 -20q-145 0 -274 53.5t-222 146t-147 222.5t-54 277q0 195 90 354.5t250.5 251.5t357.5 92q179 0 329.5 -80.5t250.5 -227.5l-129 -94q-171 248 -451 248q-150 0 -271 -73t-187.5 -197t-66.5 -274q-2 -152 66 -278t189.5 -197.5t269.5 -69.5q109 0 198.5 34t147.5 94
q113 117 136 277h-483v150h655q2 -40 2 -62q0 -190 -84.5 -337.5t-234 -228.5t-338.5 -81zM891 -122l-53 -391h-132l14 391h171z" />
    <glyph glyph-name="uni0123" unicode="&#x123;" horiz-adv-x="1264" 
d="M725 1501l-14 -391h-171l53 391h132zM579 -20q-207 0 -345 144q-139 142 -139 359q0 212 136.5 354.5t347.5 142.5q121 0 216.5 -47t153.5 -130v157h159v-891q0 -231 -145 -360t-379 -129q-134 0 -250 49t-194 140l105 104q136 -148 339 -148q159 0 262 83t103 238v112
q-58 -83 -154 -130.5t-216 -47.5zM253 483q0 -151 96 -255t246 -104q153 0 254.5 103t101.5 256q0 152 -102 252.5t-254 100.5q-150 0 -246 -101t-96 -252z" />
    <glyph glyph-name="Hcircumflex" unicode="&#x124;" horiz-adv-x="1514" 
d="M758 1692l-156 -221h-156l275 369h73l275 -369h-156zM349 621v-621h-165v1358h165v-587h816v587h165v-1358h-165v621h-816z" />
    <glyph glyph-name="hcircumflex" unicode="&#x125;" horiz-adv-x="1191" 
d="M236 1710l-156 -221h-156l275 369h73l275 -369h-156zM319 0h-159v1408h160v-592q49 80 135.5 122t185.5 42q188 0 295.5 -104.5t107.5 -291.5v-584h-158v545q0 138 -70 211.5t-200 73.5q-127 0 -212 -80.5t-85 -207.5v-542z" />
    <glyph glyph-name="Hbar" unicode="&#x126;" horiz-adv-x="1583" 
d="M1365 1358v-160h168v-145h-168v-1053h-165v621h-816v-621h-165v1053h-169v145h169v160h165v-160h816v160h165zM1200 771v282h-816v-282h816z" />
    <glyph glyph-name="hbar" unicode="&#x127;" horiz-adv-x="1183" 
d="M152 0v1120h-147v136h147v152h160v-152h344v-136h-344v-304q49 80 135.5 122t185.5 42q188 0 295.5 -104.5t107.5 -291.5v-584h-158v545q0 138 -70 211.5t-200 73.5q-127 0 -212 -80.5t-85 -207.5v-542h-159z" />
    <glyph glyph-name="Itilde" unicode="&#x128;" horiz-adv-x="533" 
d="M17 1534l-85 71q92 143 208 143q56 0 132 -41q74 -41 115 -41q40 0 68.5 18.5t62.5 62.5l82 -76q-47 -71 -96.5 -104t-115.5 -33q-57 0 -131 40q-77 39 -112 39q-37 0 -63 -17t-65 -62zM349 1358v-1358h-165v1358h165z" />
    <glyph glyph-name="itilde" unicode="&#x129;" horiz-adv-x="479" 
d="M-10 1174l-85 71q92 143 208 143q56 0 132 -41q74 -41 115 -41q40 0 68.5 18.5t62.5 62.5l82 -76q-47 -71 -96.5 -104t-115.5 -33q-57 0 -131 40q-76 39 -112 39q-37 0 -63 -17t-65 -62zM319 960v-960h-159v960h159z" />
    <glyph glyph-name="Imacron" unicode="&#x12a;" horiz-adv-x="533" 
d="M562 1671v-125h-591v125h591zM349 0h-165v1358h165v-1358z" />
    <glyph glyph-name="imacron" unicode="&#x12b;" horiz-adv-x="479" 
d="M535 1335v-125h-591v125h591zM319 0h-159v960h159v-960z" />
    <glyph glyph-name="Ibreve" unicode="&#x12c;" horiz-adv-x="533" 
d="M-6 1760h136q6 -66 43 -105.5t93 -39.5q57 0 94 39.5t42 105.5h136q-6 -120 -79.5 -194t-192.5 -74t-191.5 74t-80.5 194zM184 0v1358h165v-1358h-165z" />
    <glyph glyph-name="ibreve" unicode="&#x12d;" horiz-adv-x="479" 
d="M-33 1403h136q6 -66 43 -105.5t93 -39.5q57 0 94 39.5t42 105.5h136q-6 -120 -79.5 -194t-192.5 -74t-191.5 74t-80.5 194zM160 0v960h159v-960h-159z" />
    <glyph glyph-name="Iogonek" unicode="&#x12e;" horiz-adv-x="533" 
d="M4 -259q0 143 188 259h-8v1358h165v-1358h-6q-93 -61 -145.5 -120.5t-52.5 -106.5q0 -41 28 -64t78 -23q57 0 119 30l39 -117q-74 -46 -180 -46q-98 0 -161.5 47t-63.5 141z" />
    <glyph glyph-name="iogonek" unicode="&#x12f;" horiz-adv-x="479" 
d="M239 1183q-43 0 -70.5 27.5t-27.5 71.5t27.5 71t70.5 27q44 0 72 -27.5t28 -70.5t-28 -71t-72 -28zM-24 -259q0 143 188 259h-4v960h159v-960h-4q-93 -61 -145.5 -120.5t-52.5 -106.5q0 -41 28 -64t78 -23q57 0 119 30l39 -117q-74 -46 -180 -46q-98 0 -161.5 47
t-63.5 141z" />
    <glyph glyph-name="Idotaccent" unicode="&#x130;" horiz-adv-x="533" 
d="M196 1545q-28 27 -28 71t27 71t71 27t72 -27t28 -71t-28 -71.5t-72 -27.5q-43 0 -70 28zM184 0v1358h165v-1358h-165z" />
    <glyph glyph-name="dotlessi" unicode="&#x131;" horiz-adv-x="479" 
d="M319 0h-159v960h159v-960z" />
    <glyph glyph-name="IJ" unicode="&#x132;" horiz-adv-x="1586" 
d="M567 170l110 112q53 -69 127.5 -108.5t153.5 -39.5q138 0 214.5 91.5t76.5 256.5v876h166v-892q0 -224 -118 -355t-339 -131q-113 0 -221 50.5t-170 139.5zM184 0v1358h165v-1358h-165z" />
    <glyph glyph-name="ij" unicode="&#x133;" horiz-adv-x="978" 
d="M668 1211q-28 27 -28 71t27 71t71 27t72 -27t28 -71t-28 -71.5t-72 -27.5q-43 0 -70 28zM239 1183q-43 0 -70.5 27.5t-27.5 71.5t27.5 71t70.5 27q44 0 72 -27.5t28 -70.5t-28 -71t-72 -28zM515 -420q-94 0 -151 27l18 134q54 -20 123 -20q154 0 154 195v1044h159v-1055
q0 -155 -78.5 -240t-224.5 -85zM319 0h-159v960h159v-960z" />
    <glyph glyph-name="Jcircumflex" unicode="&#x134;" horiz-adv-x="1033" 
d="M624 1471h-156l275 369h73l275 -369h-156l-155 221zM14 170l110 112q53 -69 127.5 -108.5t153.5 -39.5q138 0 214.5 91.5t76.5 256.5v876h166v-892q0 -224 -118 -355t-339 -131q-113 0 -221 50.5t-170 139.5z" />
    <glyph glyph-name="jcircumflex" unicode="&#x135;" horiz-adv-x="488" 
d="M251 1305l-156 -221h-156l275 369h73l275 -369h-156zM25 -420q-94 0 -151 27l18 134q54 -20 123 -20q154 0 154 195v1044h159v-1055q0 -155 -78.5 -240t-224.5 -85z" />
    <glyph glyph-name="uni0136" unicode="&#x136;" horiz-adv-x="1282" 
d="M1277 0h-203l-465 678l-260 -280v-398h-165v1358h165v-741l687 741h212l-522 -563zM688 -513h-132l14 391h171z" />
    <glyph glyph-name="uni0137" unicode="&#x137;" horiz-adv-x="1036" 
d="M319 0h-159v1408h159v-934l483 486h213l-414 -404l421 -556h-202l-331 448l-170 -167v-281zM580 -513h-132l14 391h171z" />
    <glyph glyph-name="kgreenlandic" unicode="&#x138;" horiz-adv-x="1036" 
d="M160 0v960h159v-486l483 486h213l-414 -404l421 -556h-202l-331 448l-170 -167v-281h-159z" />
    <glyph glyph-name="Lacute" unicode="&#x139;" horiz-adv-x="1188" 
d="M352 1807h180l-188 -334h-139zM1147 150v-150h-963v1358h166v-1208h797z" />
    <glyph glyph-name="lacute" unicode="&#x13a;" horiz-adv-x="479" 
d="M313 1826h180l-188 -334h-139zM319 0h-159v1408h159v-1408z" />
    <glyph glyph-name="uni013B" unicode="&#x13b;" horiz-adv-x="1188" 
d="M1147 150v-150h-963v1358h166v-1208h797zM709 -513h-132l14 391h171z" />
    <glyph glyph-name="uni013C" unicode="&#x13c;" horiz-adv-x="479" 
d="M319 0h-159v1408h159v-1408zM272 -513h-132l14 391h171z" />
    <glyph glyph-name="Lcaron" unicode="&#x13d;" horiz-adv-x="1188" 
d="M1147 150v-150h-963v1358h166v-1208h797zM885 943h-132l14 391h172z" />
    <glyph glyph-name="lcaron" unicode="&#x13e;" horiz-adv-x="479" 
d="M319 1408v-1408h-159v1408h159zM685 1408l-39 -392h-130v392h169z" />
    <glyph glyph-name="Ldot" unicode="&#x13f;" horiz-adv-x="1188" 
d="M1147 0h-963v1358h166v-1208h797v-150zM794 675q0 43 27 70.5t71 27.5t72 -27t28 -71t-28 -71.5t-72 -27.5q-43 0 -70.5 27.5t-27.5 71.5z" />
    <glyph glyph-name="ldot" unicode="&#x140;" horiz-adv-x="749" 
d="M160 0v1408h159v-1408h-159zM510 678q0 43 27.5 70.5t71.5 27.5t71.5 -27.5t27.5 -70.5q0 -44 -28 -71.5t-71 -27.5t-71 27.5t-28 71.5z" />
    <glyph glyph-name="Lslash" unicode="&#x141;" horiz-adv-x="1281" 
d="M443 1358v-505l403 36v-145l-403 -37v-557h797v-150h-963v692l-220 -20v147l220 20v519h166z" />
    <glyph glyph-name="lslash" unicode="&#x142;" horiz-adv-x="708" 
d="M422 1408v-733l217 90v-151l-217 -89v-525h-159v460l-194 -80v148l194 81v799h159z" />
    <glyph glyph-name="Nacute" unicode="&#x143;" horiz-adv-x="1580" 
d="M887 1473h-139l147 334h180zM184 0v1358h173l874 -1113v1113h165v-1358h-173l-873 1109v-1109h-166z" />
    <glyph glyph-name="nacute" unicode="&#x144;" horiz-adv-x="1193" 
d="M698 1113h-139l147 334h180zM319 542v-542h-159v960h160v-144q49 80 135.5 122t185.5 42q189 0 297 -104t108 -292v-584h-159v545q0 140 -69.5 212.5t-201.5 72.5q-127 0 -212 -80.5t-85 -207.5z" />
    <glyph glyph-name="uni0145" unicode="&#x145;" horiz-adv-x="1580" 
d="M350 1109v-1109h-166v1358h173l874 -1113v1113h165v-1358h-173zM892 -122l-53 -391h-132l14 391h171z" />
    <glyph glyph-name="uni0146" unicode="&#x146;" horiz-adv-x="1193" 
d="M160 0v960h160v-144q49 80 135.5 122t185.5 42q189 0 297 -104t108 -292v-584h-159v545q0 140 -69.5 212.5t-201.5 72.5q-127 0 -212 -80.5t-85 -207.5v-542h-159zM689 -122l-53 -391h-132l14 391h171z" />
    <glyph glyph-name="Ncaron" unicode="&#x147;" horiz-adv-x="1580" 
d="M763 1474l-275 369h156l154 -222l157 222h156l-275 -369h-73zM350 1109v-1109h-166v1358h173l874 -1113v1113h165v-1358h-173z" />
    <glyph glyph-name="ncaron" unicode="&#x148;" horiz-adv-x="1193" 
d="M656 1089h-73l-275 369h156l154 -222l157 222h156zM319 0h-159v960h160v-144q49 80 135.5 122t185.5 42q189 0 297 -104t108 -292v-584h-159v545q0 140 -69.5 212.5t-201.5 72.5q-127 0 -212 -80.5t-85 -207.5v-542z" />
    <glyph glyph-name="napostrophe" unicode="&#x149;" horiz-adv-x="1419" 
d="M331 1387l-154 -475h-145l121 475h178zM386 0v960h160v-144q49 80 135.5 122t185.5 42q189 0 297 -104t108 -292v-584h-159v545q0 140 -69.5 212.5t-201.5 72.5q-127 0 -212 -80.5t-85 -207.5v-542h-159z" />
    <glyph glyph-name="Eng" unicode="&#x14a;" horiz-adv-x="1602" 
d="M350 0h-166v1358h173l874 -1113v1113h165v-1463q0 -150 -77 -232.5t-221 -82.5q-88 0 -142 27l18 134q46 -20 113 -20q71 0 103.5 44.5t32.5 140.5v94l-873 1109v-1109z" />
    <glyph glyph-name="eng" unicode="&#x14b;" horiz-adv-x="1193" 
d="M319 0h-159v960h160v-144q49 80 135.5 122t185.5 42q189 0 297 -104t108 -292v-679q0 -155 -73 -240t-210 -85q-83 0 -134 27l18 134q46 -20 106 -20q134 0 134 195v629q0 140 -69.5 212.5t-201.5 72.5q-127 0 -212 -80.5t-85 -207.5v-542z" />
    <glyph glyph-name="Omacron" unicode="&#x14c;" horiz-adv-x="1584" 
d="M497 1546v125h591v-125h-591zM96 679q0 150 51 279t141.5 221.5t221 145t282.5 52.5q200 0 358.5 -87.5t248 -247.5t89.5 -363q0 -201 -89 -360.5t-248 -249t-359 -89.5t-359.5 90t-248 249.5t-88.5 359.5zM1315 679q0 239 -143 391.5t-380 152.5t-380 -153t-143 -391
q0 -156 63.5 -279.5t183.5 -194.5t276 -71q237 0 380 153.5t143 391.5z" />
    <glyph glyph-name="omacron" unicode="&#x14d;" horiz-adv-x="1198" 
d="M304 1210v125h591v-125h-591zM599 -20q-217 0 -363.5 142t-146.5 358t146.5 358t363.5 142t363.5 -142t146.5 -358t-146.5 -358t-363.5 -142zM950 480q0 151 -100 251.5t-251 100.5t-251 -100.5t-100 -251.5t100 -251.5t251 -100.5t251 100.5t100 251.5z" />
    <glyph glyph-name="Obreve" unicode="&#x14e;" horiz-adv-x="1584" 
d="M1064 1760q-6 -120 -79.5 -194t-192.5 -74t-191.5 74t-80.5 194h136q6 -66 43 -105.5t93 -39.5q57 0 94 39.5t42 105.5h136zM1488 679q0 -150 -52 -280t-143 -222t-221 -144.5t-280 -52.5q-148 0 -277 52t-221 143.5t-145 222t-53 281.5q0 150 51 279t141.5 221.5
t221 145t282.5 52.5q200 0 358.5 -87.5t248 -247.5t89.5 -363zM1315 679q0 239 -143 391.5t-380 152.5t-380 -153t-143 -391q0 -156 63.5 -279.5t183.5 -194.5t276 -71q237 0 380 153.5t143 391.5z" />
    <glyph glyph-name="obreve" unicode="&#x14f;" horiz-adv-x="1198" 
d="M871 1403q-6 -120 -79.5 -194t-192.5 -74t-191.5 74t-80.5 194h136q6 -66 43 -105.5t93 -39.5q57 0 94 39.5t42 105.5h136zM1109 480q0 -216 -146.5 -358t-363.5 -142t-363.5 142t-146.5 358t146.5 358t363.5 142t363.5 -142t146.5 -358zM950 480q0 151 -100 251.5
t-251 100.5t-251 -100.5t-100 -251.5t100 -251.5t251 -100.5t251 100.5t100 251.5z" />
    <glyph glyph-name="Ohungarumlaut" unicode="&#x150;" horiz-adv-x="1584" 
d="M1202 1807l-188 -334h-139l147 334h180zM684 1473h-139l147 334h180zM1488 679q0 -150 -52 -280t-143 -222t-221 -144.5t-280 -52.5q-148 0 -277 52t-221 143.5t-145 222t-53 281.5q0 150 51 279t141.5 221.5t221 145t282.5 52.5q200 0 358.5 -87.5t248 -247.5t89.5 -363
zM1315 679q0 239 -143 391.5t-380 152.5t-380 -153t-143 -391q0 -156 63.5 -279.5t183.5 -194.5t276 -71q237 0 380 153.5t143 391.5z" />
    <glyph glyph-name="ohungarumlaut" unicode="&#x151;" horiz-adv-x="1198" 
d="M1016 1447l-188 -334h-139l147 334h180zM498 1113h-139l147 334h180zM1109 480q0 -216 -146.5 -358t-363.5 -142t-363.5 142t-146.5 358t146.5 358t363.5 142t363.5 -142t146.5 -358zM950 480q0 151 -100 251.5t-251 100.5t-251 -100.5t-100 -251.5t100 -251.5
t251 -100.5t251 100.5t100 251.5z" />
    <glyph glyph-name="OE" unicode="&#x152;" horiz-adv-x="2330" 
d="M778 -21q-196 -3 -353 86t-244.5 248.5t-84.5 358.5q0 150 49 280.5t137 224.5t216 147.5t280 53.5q320 0 500 -223v203h935v-150h-770v-435h665v-150h-665v-474h792v-149h-957v196q-86 -104 -213 -160.5t-287 -56.5zM267 673q0 -238 138 -389t373 -151t372 151t137 389
q0 157 -58.5 280.5t-175.5 196.5t-275 73t-275.5 -73t-176.5 -196.5t-59 -280.5z" />
    <glyph glyph-name="oe" unicode="&#x153;" horiz-adv-x="1952" 
d="M589 -20q-138 -2 -254.5 65t-182 183t-63.5 252q-2 136 63.5 252t182 183t254.5 65q132 0 241 -63.5t172 -175.5q64 111 171 175t234 64q180 0 315 -119q64 -58 101 -144.5t37 -187.5q0 -50 -5 -88h-771q7 -129 100 -223q92 -93 231 -93q183 0 293 161l121 -88
q-65 -103 -174 -160.5t-240 -57.5q-133 0 -241.5 63t-171.5 174q-64 -112 -173.5 -174.5t-239.5 -62.5zM1090 572h611q-7 119 -90 191t-203 72q-121 0 -211 -72.5t-107 -190.5zM930 480q0 149 -96.5 250.5t-244.5 101.5t-244.5 -101.5t-96.5 -250.5q0 -148 97 -250t244 -102
q148 0 244.5 101.5t96.5 250.5z" />
    <glyph glyph-name="Racute" unicode="&#x154;" horiz-adv-x="1322" 
d="M887 1807l-188 -334h-139l147 334h180zM349 0h-165v1358h580q96 0 177.5 -25.5t143.5 -74.5t97.5 -127t35.5 -176q0 -144 -79 -245t-218 -138l336 -572h-195l-319 552h-394v-552zM758 1208h-409v-509h409q138 0 213 68.5t75 187.5q0 120 -74.5 186.5t-213.5 66.5z" />
    <glyph glyph-name="racute" unicode="&#x155;" horiz-adv-x="759" 
d="M508 1113h-139l147 334h180zM320 533v-533h-160v960h160v-142q38 80 105.5 121t153.5 41q82 0 136 -25l-16 -147q-65 24 -126 24q-107 0 -180 -74t-73 -225z" />
    <glyph glyph-name="uni0156" unicode="&#x156;" horiz-adv-x="1322" 
d="M349 0h-165v1358h580q96 0 177.5 -25.5t143.5 -74.5t97.5 -127t35.5 -176q0 -144 -79 -245t-218 -138l336 -572h-195l-319 552h-394v-552zM758 1208h-409v-509h409q138 0 213 68.5t75 187.5q0 120 -74.5 186.5t-213.5 66.5zM774 -122l-53 -391h-132l14 391h171z" />
    <glyph glyph-name="uni0157" unicode="&#x157;" horiz-adv-x="759" 
d="M320 533v-533h-160v960h160v-142q38 80 105.5 121t153.5 41q82 0 136 -25l-16 -147q-65 24 -126 24q-107 0 -180 -74t-73 -225zM270 -513h-132l14 391h171z" />
    <glyph glyph-name="Rcaron" unicode="&#x158;" horiz-adv-x="1322" 
d="M678 1474h-73l-275 369h156l154 -222l157 222h156zM349 0h-165v1358h580q96 0 177.5 -25.5t143.5 -74.5t97.5 -127t35.5 -176q0 -144 -79 -245t-218 -138l336 -572h-195l-319 552h-394v-552zM758 1208h-409v-509h409q138 0 213 68.5t75 187.5q0 120 -74.5 186.5
t-213.5 66.5z" />
    <glyph glyph-name="rcaron" unicode="&#x159;" horiz-adv-x="759" 
d="M403 1089l-275 369h156l154 -222l157 222h156l-275 -369h-73zM160 0v960h160v-142q38 80 105.5 121t153.5 41q82 0 136 -25l-16 -147q-65 24 -126 24q-107 0 -180 -74t-73 -225v-533h-160z" />
    <glyph glyph-name="Sacute" unicode="&#x15a;" horiz-adv-x="1204" 
d="M694 1473h-139l147 334h180zM100 273l124 89q60 -109 161 -170.5t237 -61.5q138 0 226 60q87 58 87 153q0 94 -77 150q-76 55 -262 117q-53 18 -88 30.5t-86 35t-85.5 43.5t-72.5 53t-60.5 66t-37.5 80t-15 98q0 70 25.5 130t68.5 102t100.5 72t120.5 44t129 14
q188 0 313 -88q106 -75 162 -171l-129 -94q-59 96 -147.5 149t-198.5 53q-51 0 -97.5 -12t-86.5 -36t-64 -65.5t-24 -95.5q0 -43 18 -77.5t52 -59t65.5 -40t75.5 -31.5q24 -10 114 -41q45 -15 72 -24.5t70 -27t70.5 -31.5t64.5 -35.5t60.5 -43t49 -50.5t39.5 -60t23.5 -70
t9.5 -82q0 -158 -137 -262q-136 -103 -348 -103q-187 0 -324 83q-138 83 -198 210z" />
    <glyph glyph-name="sacute" unicode="&#x15b;" horiz-adv-x="966" 
d="M560 1113h-139l147 334h180zM86 196l122 89q43 -77 116 -119.5t171 -42.5q95 0 154.5 37t59.5 98q0 64 -49 94q-51 31 -179 59q-59 13 -100 25t-92.5 35.5t-83 52.5t-53.5 75.5t-22 104.5q0 69 32 123.5t84.5 86.5t114 49t126.5 17q109 0 207 -45.5t151 -132.5l-109 -90
q-86 125 -249 125q-91 0 -145.5 -35.5t-54.5 -94.5q0 -65 52 -93q51 -30 188 -63q162 -39 248 -98q94 -66 94 -195q0 -70 -34.5 -125t-90.5 -87.5t-120 -49t-129 -16.5q-144 0 -249.5 56.5t-159.5 159.5z" />
    <glyph glyph-name="Scircumflex" unicode="&#x15c;" horiz-adv-x="1204" 
d="M454 1471h-156l275 369h73l275 -369h-156l-155 221zM622 -20q-187 0 -324 83q-138 83 -198 210l124 89q60 -109 161 -170.5t237 -61.5q138 0 226 60q87 58 87 153q0 94 -77 150q-76 55 -262 117q-53 18 -88 30.5t-86 35t-85.5 43.5t-72.5 53t-60.5 66t-37.5 80t-15 98
q0 70 25.5 130t68.5 102t100.5 72t120.5 44t129 14q188 0 313 -88q106 -75 162 -171l-129 -94q-59 96 -147.5 149t-198.5 53q-51 0 -97.5 -12t-86.5 -36t-64 -65.5t-24 -95.5q0 -43 18 -77.5t52 -59t65.5 -40t75.5 -31.5q24 -10 114 -41q45 -15 72 -24.5t70 -27t70.5 -31.5
t64.5 -35.5t60.5 -43t49 -50.5t39.5 -60t23.5 -70t9.5 -82q0 -158 -137 -262q-136 -103 -348 -103z" />
    <glyph glyph-name="scircumflex" unicode="&#x15d;" horiz-adv-x="966" 
d="M327 1084h-156l275 369h73l275 -369h-156l-155 221zM86 196l122 89q43 -77 116 -119.5t171 -42.5q95 0 154.5 37t59.5 98q0 64 -49 94q-51 31 -179 59q-59 13 -100 25t-92.5 35.5t-83 52.5t-53.5 75.5t-22 104.5q0 69 32 123.5t84.5 86.5t114 49t126.5 17
q109 0 207 -45.5t151 -132.5l-109 -90q-86 125 -249 125q-91 0 -145.5 -35.5t-54.5 -94.5q0 -65 52 -93q51 -30 188 -63q162 -39 248 -98q94 -66 94 -195q0 -70 -34.5 -125t-90.5 -87.5t-120 -49t-129 -16.5q-144 0 -249.5 56.5t-159.5 159.5z" />
    <glyph glyph-name="Scedilla" unicode="&#x15e;" horiz-adv-x="1204" 
d="M100 273l124 89q60 -109 161 -170.5t237 -61.5q138 0 226 60q87 58 87 153q0 94 -77 150q-76 55 -262 117q-53 18 -88 30.5t-86 35t-85.5 43.5t-72.5 53t-60.5 66t-37.5 80t-15 98q0 70 25.5 130t68.5 102t100.5 72t120.5 44t129 14q188 0 313 -88q106 -75 162 -171
l-129 -94q-59 96 -147.5 149t-198.5 53q-51 0 -97.5 -12t-86.5 -36t-64 -65.5t-24 -95.5q0 -43 18 -77.5t52 -59t65.5 -40t75.5 -31.5q24 -10 114 -41q45 -15 72 -24.5t70 -27t70.5 -31.5t64.5 -35.5t60.5 -43t49 -50.5t39.5 -60t23.5 -70t9.5 -82q0 -154 -127 -254
q-128 -103 -327 -110l-25 -78q94 -7 149 -51t55 -115q0 -86 -69 -135t-190 -49q-81 0 -135 20v114q54 -19 124 -19q128 0 128 70q0 75 -146 75h-59l65 171q-95 9 -181 43.5t-158 98t-111 147.5z" />
    <glyph glyph-name="scedilla" unicode="&#x15f;" horiz-adv-x="966" 
d="M86 196l122 89q43 -77 116 -119.5t171 -42.5q95 0 154.5 37t59.5 98q0 64 -49 94q-51 31 -179 59q-59 13 -100 25t-92.5 35.5t-83 52.5t-53.5 75.5t-22 104.5q0 69 32 123.5t84.5 86.5t114 49t126.5 17q109 0 207 -45.5t151 -132.5l-109 -90q-86 125 -249 125
q-91 0 -145.5 -35.5t-54.5 -94.5q0 -65 52 -93q51 -30 188 -63q162 -39 248 -98q94 -66 94 -195q0 -67 -32.5 -121t-85 -86.5t-113 -50.5t-123.5 -20l-25 -77q94 -7 149 -51t55 -115q0 -86 -69 -135t-190 -49q-81 0 -135 20v114q54 -19 124 -19q128 0 128 70q0 75 -146 75
h-59l65 172q-113 15 -197 69.5t-129 141.5z" />
    <glyph glyph-name="Scaron" unicode="&#x160;" horiz-adv-x="1204" 
d="M639 1474h-73l-275 369h156l154 -222l157 222h156zM100 273l124 89q60 -109 161 -170.5t237 -61.5q138 0 226 60q87 58 87 153q0 94 -77 150q-76 55 -262 117q-53 18 -88 30.5t-86 35t-85.5 43.5t-72.5 53t-60.5 66t-37.5 80t-15 98q0 70 25.5 130t68.5 102t100.5 72
t120.5 44t129 14q188 0 313 -88q106 -75 162 -171l-129 -94q-59 96 -147.5 149t-198.5 53q-51 0 -97.5 -12t-86.5 -36t-64 -65.5t-24 -95.5q0 -43 18 -77.5t52 -59t65.5 -40t75.5 -31.5q24 -10 114 -41q45 -15 72 -24.5t70 -27t70.5 -31.5t64.5 -35.5t60.5 -43t49 -50.5
t39.5 -60t23.5 -70t9.5 -82q0 -158 -137 -262q-136 -103 -348 -103q-187 0 -324 83q-138 83 -198 210z" />
    <glyph glyph-name="scaron" unicode="&#x161;" horiz-adv-x="966" 
d="M526 1089h-73l-275 369h156l154 -222l157 222h156zM86 196l122 89q43 -77 116 -119.5t171 -42.5q95 0 154.5 37t59.5 98q0 64 -49 94q-51 31 -179 59q-59 13 -100 25t-92.5 35.5t-83 52.5t-53.5 75.5t-22 104.5q0 69 32 123.5t84.5 86.5t114 49t126.5 17q109 0 207 -45.5
t151 -132.5l-109 -90q-86 125 -249 125q-91 0 -145.5 -35.5t-54.5 -94.5q0 -65 52 -93q51 -30 188 -63q162 -39 248 -98q94 -66 94 -195q0 -70 -34.5 -125t-90.5 -87.5t-120 -49t-129 -16.5q-144 0 -249.5 56.5t-159.5 159.5z" />
    <glyph glyph-name="uni0162" unicode="&#x162;" horiz-adv-x="1145" 
d="M490 1204h-454v154h1073v-154h-454v-1204h-30l-31 -97q94 -7 149 -51t55 -115q0 -86 -69 -135t-190 -49q-81 0 -135 20v114q54 -19 124 -19q128 0 128 70q0 75 -146 75h-59l71 187h-32v1204z" />
    <glyph glyph-name="uni0163" unicode="&#x163;" horiz-adv-x="777" 
d="M224 278v545h-177v137h178v308h157v-308h317v-137h-316v-519q0 -89 43.5 -135t122.5 -46q91 0 164 37l21 -137q-33 -18 -89.5 -30.5t-112.5 -12.5q-38 0 -62 4l-26 -81q94 -7 149 -51t55 -115q0 -86 -69 -135t-190 -49q-81 0 -135 20v114q54 -19 124 -19q128 0 128 70
q0 75 -146 75h-59l75 198q-152 71 -152 267z" />
    <glyph glyph-name="Tcaron" unicode="&#x164;" horiz-adv-x="1145" 
d="M536 1474l-275 369h156l154 -222l157 222h156l-275 -369h-73zM490 0v1204h-454v154h1073v-154h-454v-1204h-165z" />
    <glyph glyph-name="tcaron" unicode="&#x165;" horiz-adv-x="777" 
d="M533 1118v392h169l-39 -392h-130zM224 823h-177v137h178v308h157v-308h317v-137h-316v-519q0 -89 43.5 -135t122.5 -46q91 0 164 37l21 -137q-33 -18 -89.5 -30.5t-112.5 -12.5q-143 0 -225.5 78t-82.5 220v545z" />
    <glyph glyph-name="Tbar" unicode="&#x166;" horiz-adv-x="1211" 
d="M523 1204h-454v154h1073v-154h-454v-427h369v-141h-369v-636h-165v636h-369v141h369v427z" />
    <glyph glyph-name="tbar" unicode="&#x167;" horiz-adv-x="796" 
d="M238 578v245h-177v137h178v308h157v-308h317v-137h-316v-245h311v-137h-311v-137q0 -89 43.5 -135t122.5 -46q91 0 164 37l21 -137q-33 -18 -89.5 -30.5t-112.5 -12.5q-143 0 -225.5 78t-82.5 220v163h-162v137h162z" />
    <glyph glyph-name="Utilde" unicode="&#x168;" horiz-adv-x="1474" 
d="M488 1534l-85 71q92 143 208 143q56 0 132 -41q74 -41 115 -41q40 0 68.5 18.5t62.5 62.5l82 -76q-47 -71 -96.5 -104t-115.5 -33q-57 0 -131 40q-77 39 -112 39q-37 0 -63 -17t-65 -62zM1305 485q0 -163 -77 -279t-203.5 -171t-287.5 -55t-287.5 55t-203.5 171t-77 279
v873h165v-864q0 -171 114 -265t289 -94q176 0 289.5 93.5t113.5 265.5v864h165v-873z" />
    <glyph glyph-name="utilde" unicode="&#x169;" horiz-adv-x="1189" 
d="M320 1174l-85 71q92 143 208 143q56 0 132 -41q74 -41 115 -41q40 0 68.5 18.5t62.5 62.5l82 -76q-47 -71 -96.5 -104t-115.5 -33q-57 0 -131 40q-76 39 -112 39q-37 0 -63 -17t-65 -62zM147 375v585h158v-546q0 -138 69.5 -211t198.5 -73t213 79.5t84 207.5v543h159
v-960h-159v144q-44 -74 -129 -119t-193 -45q-186 0 -293.5 104.5t-107.5 290.5z" />
    <glyph glyph-name="Umacron" unicode="&#x16a;" horiz-adv-x="1474" 
d="M442 1546v125h591v-125h-591zM169 485v873h165v-864q0 -171 114 -265t289 -94q176 0 289.5 93.5t113.5 265.5v864h165v-873q0 -163 -77 -279t-203.5 -171t-287.5 -55t-287.5 55t-203.5 171t-77 279z" />
    <glyph glyph-name="umacron" unicode="&#x16b;" horiz-adv-x="1189" 
d="M871 1335v-125h-591v125h591zM147 375v585h158v-546q0 -138 69.5 -211t198.5 -73t213 79.5t84 207.5v543h159v-960h-159v144q-44 -74 -129 -119t-193 -45q-186 0 -293.5 104.5t-107.5 290.5z" />
    <glyph glyph-name="Ubreve" unicode="&#x16c;" horiz-adv-x="1474" 
d="M1009 1760q-6 -120 -79.5 -194t-192.5 -74t-191.5 74t-80.5 194h136q6 -66 43 -105.5t93 -39.5q57 0 94 39.5t42 105.5h136zM169 485v873h165v-864q0 -171 114 -265t289 -94q176 0 289.5 93.5t113.5 265.5v864h165v-873q0 -163 -77 -279t-203.5 -171t-287.5 -55
t-287.5 55t-203.5 171t-77 279z" />
    <glyph glyph-name="ubreve" unicode="&#x16d;" horiz-adv-x="1189" 
d="M841 1403q-6 -120 -79.5 -194t-192.5 -74t-191.5 74t-80.5 194h136q6 -66 43 -105.5t93 -39.5q57 0 94 39.5t42 105.5h136zM147 375v585h158v-546q0 -138 69.5 -211t198.5 -73t213 79.5t84 207.5v543h159v-960h-159v144q-44 -74 -129 -119t-193 -45q-186 0 -293.5 104.5
t-107.5 290.5z" />
    <glyph glyph-name="Uring" unicode="&#x16e;" horiz-adv-x="1474" 
d="M525 1692q0 90 60.5 146.5t151.5 56.5t151.5 -56.5t60.5 -146.5q0 -89 -61 -144.5t-151 -55.5t-151 55.5t-61 144.5zM634 1692q0 -44 28.5 -72t74.5 -28q45 0 73.5 28t28.5 72q0 45 -28.5 74.5t-73.5 29.5t-74 -29.5t-29 -74.5zM1305 485q0 -163 -77 -279t-203.5 -171
t-287.5 -55t-287.5 55t-203.5 171t-77 279v873h165v-864q0 -171 114 -265t289 -94q176 0 289.5 93.5t113.5 265.5v864h165v-873z" />
    <glyph glyph-name="uring" unicode="&#x16f;" horiz-adv-x="1189" 
d="M363 1290q0 90 60.5 146.5t151.5 56.5t151.5 -56.5t60.5 -146.5q0 -89 -61 -144.5t-151 -55.5t-151 55.5t-61 144.5zM575 1394q-45 0 -74 -29.5t-29 -74.5q0 -44 28.5 -72t74.5 -28q45 0 73.5 28t28.5 72q0 45 -28.5 74.5t-73.5 29.5zM147 375v585h158v-546
q0 -138 69.5 -211t198.5 -73t213 79.5t84 207.5v543h159v-960h-159v144q-44 -74 -129 -119t-193 -45q-186 0 -293.5 104.5t-107.5 290.5z" />
    <glyph glyph-name="Uhungarumlaut" unicode="&#x170;" horiz-adv-x="1474" 
d="M960 1473h-139l147 334h180zM631 1473h-139l147 334h180zM1305 485q0 -163 -77 -279t-203.5 -171t-287.5 -55t-287.5 55t-203.5 171t-77 279v873h165v-864q0 -171 114 -265t289 -94q176 0 289.5 93.5t113.5 265.5v864h165v-873z" />
    <glyph glyph-name="uhungarumlaut" unicode="&#x171;" horiz-adv-x="1189" 
d="M808 1113h-139l147 334h180zM666 1447l-188 -334h-139l147 334h180zM147 375v585h158v-546q0 -138 69.5 -211t198.5 -73t213 79.5t84 207.5v543h159v-960h-159v144q-44 -74 -129 -119t-193 -45q-186 0 -293.5 104.5t-107.5 290.5z" />
    <glyph glyph-name="Uogonek" unicode="&#x172;" horiz-adv-x="1474" 
d="M169 485v873h165v-864q0 -171 114 -265t289 -94q176 0 289.5 93.5t113.5 265.5v864h165v-873q0 -190 -105 -317.5t-291 -169.5q-92 -60 -143.5 -119t-51.5 -106q0 -41 28 -64t78 -23q58 0 119 30l39 -117q-74 -46 -180 -46q-98 0 -161.5 47t-63.5 141q0 128 158 239
q-119 1 -220 33.5t-178 94.5t-120.5 158.5t-43.5 218.5z" />
    <glyph glyph-name="uogonek" unicode="&#x173;" horiz-adv-x="1189" 
d="M147 375v585h158v-546q0 -138 69.5 -211t198.5 -73t213 79.5t84 207.5v543h159v-960h-8q-93 -61 -145.5 -120.5t-52.5 -106.5q0 -41 28 -64t78 -23q57 0 119 30l39 -117q-74 -46 -180 -46q-98 0 -161.5 47t-63.5 141q0 143 188 259v144q-44 -74 -129 -119t-193 -45
q-186 0 -293.5 104.5t-107.5 290.5z" />
    <glyph glyph-name="Wcircumflex" unicode="&#x174;" horiz-adv-x="2038" 
d="M1020 1692l-156 -221h-156l275 369h73l275 -369h-156zM681 0h-241l-402 1358h169l356 -1189l368 1178h176l368 -1178l356 1189h169l-402 -1358h-241l-338 1106z" />
    <glyph glyph-name="wcircumflex" unicode="&#x175;" horiz-adv-x="1597" 
d="M643 1084h-156l275 369h73l275 -369h-156l-155 221zM347 0l-300 960h169l238 -808l260 798h169l260 -799l239 809h168l-299 -960h-213l-239 728l-239 -728h-213z" />
    <glyph glyph-name="Ycircumflex" unicode="&#x176;" horiz-adv-x="1280" 
d="M641 1692l-156 -221h-156l275 369h73l275 -369h-156zM557 0v530l-534 828h196l421 -659l421 659h196l-534 -828v-530h-166z" />
    <glyph glyph-name="ycircumflex" unicode="&#x177;" horiz-adv-x="1060" 
d="M357 1084h-156l275 369h73l275 -369h-156l-155 221zM447 -27l-415 987h173l327 -804l321 804h175l-453 -1082q-30 -72 -60 -121.5t-72.5 -92t-100.5 -63.5t-133 -21q-99 0 -164 33l19 135q58 -26 136 -26q80 0 135 50t95 156z" />
    <glyph glyph-name="Ydieresis" unicode="&#x178;" horiz-adv-x="1280" 
d="M816 1518q-44 0 -71.5 28t-27.5 71t27.5 70.5t71.5 27.5t72 -27q27 -28 27 -71q0 -44 -27.5 -71.5t-71.5 -27.5zM464 1518q-43 0 -70.5 27.5t-27.5 71.5q0 43 27 70.5t71 27.5t72 -27t28 -71t-28 -71.5t-72 -27.5zM557 530l-534 828h196l421 -659l421 659h196l-534 -828
v-530h-166v530z" />
    <glyph glyph-name="Zacute" unicode="&#x179;" horiz-adv-x="1222" 
d="M665 1807h180l-188 -334h-139zM88 0v133l831 1074h-821v151h1027v-151l-823 -1057h835v-150h-1049z" />
    <glyph glyph-name="zacute" unicode="&#x17a;" horiz-adv-x="904" 
d="M506 1447h180l-188 -334h-139zM827 0h-736v134l522 689h-515v137h700v-134l-522 -689h551v-137z" />
    <glyph glyph-name="Zdotaccent" unicode="&#x17b;" horiz-adv-x="1222" 
d="M534 1545q-28 27 -28 71t27 71t71 27t72 -27t28 -71t-28 -71.5t-72 -27.5q-43 0 -70 28zM88 0v133l831 1074h-821v151h1027v-151l-823 -1057h835v-150h-1049z" />
    <glyph glyph-name="zdotaccent" unicode="&#x17c;" horiz-adv-x="904" 
d="M389 1211q-28 27 -28 71t27.5 71t70.5 27q44 0 72 -27.5t28 -70.5t-28 -71t-72 -28q-43 0 -70 28zM827 0h-736v134l522 689h-515v137h700v-134l-522 -689h551v-137z" />
    <glyph glyph-name="Zcaron" unicode="&#x17d;" horiz-adv-x="1222" 
d="M583 1474l-275 369h156l154 -222l157 222h156l-275 -369h-73zM1137 150v-150h-1049v133l831 1074h-821v151h1027v-151l-823 -1057h835z" />
    <glyph glyph-name="zcaron" unicode="&#x17e;" horiz-adv-x="904" 
d="M412 1089l-275 369h156l154 -222l157 222h156l-275 -369h-73zM827 0h-736v134l522 689h-515v137h700v-134l-522 -689h551v-137z" />
    <glyph glyph-name="uni018F" unicode="&#x18f;" horiz-adv-x="1540" 
d="M751 -20q-154 0 -282.5 56.5t-210.5 155.5q-81 96 -124.5 218.5t-43.5 257.5q0 22 2 62h1178q-17 217 -161.5 355t-361.5 138q-131 0 -243 -57t-192 -165l-128 93q97 136 245.5 210t317.5 74q146 0 275.5 -53t222 -145t146.5 -222.5t54 -278.5q0 -145 -52.5 -274
t-143.5 -222.5t-220.5 -148t-277.5 -54.5zM1265 583h-1001q31 -210 153 -329.5t333 -119.5q202 0 343.5 124t171.5 325z" />
    <glyph glyph-name="florin" unicode="&#x192;" horiz-adv-x="1162" 
d="M54 32l68 128q58 -35 129 -35q80 0 133.5 51.5t63.5 139.5l54 434h-189l16 137h189l20 159q19 153 121.5 242.5t257.5 89.5q106 0 183 -52l-67 -128q-59 35 -129 35q-84 0 -140.5 -51.5t-67.5 -139.5l-19 -155h290l-16 -137h-290l-54 -438q-18 -152 -117.5 -242
t-251.5 -90q-107 0 -184 52z" />
    <glyph glyph-name="uni019D" unicode="&#x19d;" horiz-adv-x="1580" 
d="M-81 -393l18 134q46 -20 109 -20q138 0 138 180v1457h173l874 -1113v1113h165v-1358h-173l-873 1109v-1219q0 -148 -75.5 -229t-218.5 -81q-84 0 -137 27z" />
    <glyph glyph-name="Gcaron" unicode="&#x1e6;" horiz-adv-x="1534" 
d="M750 1474l-275 369h156l154 -222l157 222h156l-275 -369h-73zM792 -20q-145 0 -274 53.5t-222 146t-147 222.5t-54 277q0 195 90 354.5t250.5 251.5t357.5 92q179 0 329.5 -80.5t250.5 -227.5l-129 -94q-171 248 -451 248q-150 0 -271 -73t-187.5 -197t-66.5 -274
q-2 -152 66 -278t189.5 -197.5t269.5 -69.5q109 0 198.5 34t147.5 94q113 117 136 277h-483v150h655q2 -40 2 -62q0 -190 -84.5 -337.5t-234 -228.5t-338.5 -81z" />
    <glyph glyph-name="gcaron" unicode="&#x1e7;" horiz-adv-x="1264" 
d="M543 1089l-275 369h156l154 -222l157 222h156l-275 -369h-73zM95 483q0 212 136.5 354.5t347.5 142.5q121 0 216.5 -47t153.5 -130v157h159v-891q0 -231 -145 -360t-379 -129q-134 0 -250 49t-194 140l105 104q136 -148 339 -148q159 0 262 83t103 238v112
q-58 -83 -154 -130.5t-216 -47.5q-207 0 -345 144q-139 142 -139 359zM253 483q0 -151 96 -255t246 -104q153 0 254.5 103t101.5 256q0 152 -102 252.5t-254 100.5q-150 0 -246 -101t-96 -252z" />
    <glyph glyph-name="uni01EA" unicode="&#x1ea;" horiz-adv-x="1584" 
d="M787 -20q-149 1 -277 53t-219 143.5t-143 221.5t-52 281q0 150 51 279t141.5 221.5t221 145t282.5 52.5q200 0 358.5 -87.5t248 -247.5t89.5 -363q0 -252 -139.5 -438t-381.5 -241q-93 -61 -145 -120t-52 -107q0 -41 28 -64t78 -23q58 0 119 30l39 -117q-74 -46 -180 -46
q-98 0 -161.5 47t-63.5 141q0 128 158 239zM792 1223q-237 0 -380 -153t-143 -391q0 -156 63.5 -279.5t183.5 -194.5t276 -71q237 0 380 153.5t143 391.5q0 239 -143 391.5t-380 152.5z" />
    <glyph glyph-name="uni01EB" unicode="&#x1eb;" horiz-adv-x="1198" 
d="M566 -19q-206 12 -341.5 153t-135.5 346q0 216 146.5 358t363.5 142t363.5 -142t146.5 -358q0 -172 -99.5 -303.5t-264.5 -177.5q-93 -60 -145 -119t-52 -107q0 -41 28 -64t78 -23q58 0 119 30l39 -117q-74 -46 -180 -46q-98 0 -161.5 47t-63.5 141q0 129 159 240z
M599 832q-151 0 -251 -100.5t-100 -251.5t100 -251.5t251 -100.5t251 100.5t100 251.5t-100 251.5t-251 100.5z" />
    <glyph glyph-name="Aringacute" unicode="&#x1fa;" horiz-adv-x="1353" 
d="M937 2296l-188 -334h-139l147 334h180zM889 1692q0 -89 -61 -144.5t-151 -55.5t-151 55.5t-61 144.5q0 90 60.5 146.5t151.5 56.5t151.5 -56.5t60.5 -146.5zM677 1796q-45 0 -74 -29.5t-29 -74.5q0 -44 28.5 -72t74.5 -28q45 0 73.5 28t28.5 72q0 45 -28.5 74.5
t-73.5 29.5zM192 0h-174l561 1358h194l562 -1358h-175l-126 315h-715zM676 1186l-305 -730h611z" />
    <glyph glyph-name="aringacute" unicode="&#x1fb;" horiz-adv-x="1093" 
d="M781 1901l-188 -334h-139l147 334h180zM322 1290q0 90 60.5 146.5t151.5 56.5t151.5 -56.5t60.5 -146.5q0 -89 -61 -144.5t-151 -55.5t-151 55.5t-61 144.5zM431 1290q0 -44 28.5 -72t74.5 -28q45 0 73.5 28t28.5 72q0 45 -28.5 74.5t-73.5 29.5t-74 -29.5t-29 -74.5z
M476 -20q-73 0 -138.5 16.5t-121 50t-88 92t-32.5 135.5q0 134 116 218t303 84q141 0 273 -56v70q0 114 -76 178t-193 64q-176 0 -297 -142l-103 98q66 90 175 141t224 51q121 0 216 -40.5t153.5 -127.5t58.5 -209v-603h-156v146q-46 -76 -129.5 -121t-184.5 -45zM523 451
q-46 0 -89 -8t-84.5 -26.5t-67 -54.5t-25.5 -85q0 -44 20.5 -77.5t55 -52t73 -27.5t80.5 -9q129 0 216 84q86 84 86 193q-51 31 -124.5 47t-140.5 16z" />
    <glyph glyph-name="AEacute" unicode="&#x1fc;" horiz-adv-x="1951" 
d="M1371 1473h-139l147 334h180zM149 0h-185l836 1358h1034v-150h-769v-435h664v-150h-664v-474h791v-149h-956v315h-556zM900 1208l-468 -752h468v752z" />
    <glyph glyph-name="aeacute" unicode="&#x1fd;" horiz-adv-x="1821" 
d="M958 1113h-139l147 334h180zM97 274q0 134 117 216q116 82 307 82q145 0 274 -52v70q0 115 -77.5 178.5t-194.5 63.5q-177 0 -300 -142l-103 98q67 90 177 141t225 51q131 0 227 -52t144 -148q66 94 165.5 147t217.5 53q180 0 315 -119q64 -58 101 -144.5t37 -187.5
q0 -50 -5 -88h-771q8 -138 100.5 -227t230.5 -89q183 0 293 161l121 -88q-65 -103 -174 -160.5t-240 -57.5q-129 0 -236 59.5t-171 164.5q-64 -107 -164.5 -165.5t-232.5 -58.5q-58 0 -111.5 9.5t-103.5 32t-87 56t-59 84t-22 112.5zM1277 835q-121 0 -211 -72.5
t-107 -190.5h611q-7 119 -90 191t-203 72zM527 449q-46 0 -89 -8t-85.5 -26t-68.5 -53.5t-26 -84.5q0 -78 63.5 -122t168.5 -44q131 0 218 84t87 193q-52 29 -126.5 45t-141.5 16z" />
    <glyph glyph-name="Oslashacute" unicode="&#x1fe;" horiz-adv-x="1584" 
d="M1082 1807l-188 -334h-139l147 334h180zM96 679q0 150 51 279t141.5 221.5t221 145t282.5 52.5q186 0 336 -78l118 169l128 -88l-117 -167q111 -94 171 -231.5t60 -302.5q0 -201 -89 -360.5t-248 -249t-359 -89.5q-187 0 -339 79l-118 -169l-125 89l116 166
q-110 96 -170 233.5t-60 300.5zM420 281l617 887q-109 55 -245 55q-237 0 -380 -153t-143 -391q0 -247 151 -398zM1163 1078l-619 -888q115 -56 248 -56q237 0 380 153.5t143 391.5q0 247 -152 399z" />
    <glyph glyph-name="oslashacute" unicode="&#x1ff;" horiz-adv-x="1198" 
d="M856 1447l-188 -334h-139l147 334h180zM333 49l-155 -190l-103 83l153 189q-139 142 -139 349q0 216 146.5 358t363.5 142q143 0 264 -68l156 191l104 -85l-154 -188q140 -143 140 -350q0 -216 -146.5 -358t-363.5 -142q-145 0 -266 69zM327 252l439 540q-74 40 -167 40
q-151 0 -251 -100.5t-100 -251.5q0 -133 79 -228zM870 708l-440 -539q80 -41 169 -41q151 0 251 100.5t100 251.5q0 131 -80 228z" />
    <glyph glyph-name="uni0218" unicode="&#x218;" horiz-adv-x="1204" 
d="M100 273l124 89q60 -109 161 -170.5t237 -61.5q138 0 226 60q87 58 87 153q0 94 -77 150q-76 55 -262 117q-53 18 -88 30.5t-86 35t-85.5 43.5t-72.5 53t-60.5 66t-37.5 80t-15 98q0 70 25.5 130t68.5 102t100.5 72t120.5 44t129 14q188 0 313 -88q106 -75 162 -171
l-129 -94q-59 96 -147.5 149t-198.5 53q-51 0 -97.5 -12t-86.5 -36t-64 -65.5t-24 -95.5q0 -43 18 -77.5t52 -59t65.5 -40t75.5 -31.5q24 -10 114 -41q45 -15 72 -24.5t70 -27t70.5 -31.5t64.5 -35.5t60.5 -43t49 -50.5t39.5 -60t23.5 -70t9.5 -82q0 -158 -137 -262
q-136 -103 -348 -103q-187 0 -324 83q-138 83 -198 210zM693 -122l-53 -391h-132l14 391h171z" />
    <glyph glyph-name="uni0219" unicode="&#x219;" horiz-adv-x="966" 
d="M86 196l122 89q43 -77 116 -119.5t171 -42.5q95 0 154.5 37t59.5 98q0 64 -49 94q-51 31 -179 59q-59 13 -100 25t-92.5 35.5t-83 52.5t-53.5 75.5t-22 104.5q0 69 32 123.5t84.5 86.5t114 49t126.5 17q109 0 207 -45.5t151 -132.5l-109 -90q-86 125 -249 125
q-91 0 -145.5 -35.5t-54.5 -94.5q0 -65 52 -93q51 -30 188 -63q162 -39 248 -98q94 -66 94 -195q0 -70 -34.5 -125t-90.5 -87.5t-120 -49t-129 -16.5q-144 0 -249.5 56.5t-159.5 159.5zM582 -122l-53 -391h-132l14 391h171z" />
    <glyph glyph-name="uni021A" unicode="&#x21a;" horiz-adv-x="1145" 
d="M490 0v1204h-454v154h1073v-154h-454v-1204h-165zM601 -513h-132l14 391h171z" />
    <glyph glyph-name="uni021B" unicode="&#x21b;" horiz-adv-x="777" 
d="M47 823v137h178v308h157v-308h317v-137h-316v-519q0 -89 43.5 -135t122.5 -46q91 0 164 37l21 -137q-33 -18 -89.5 -30.5t-112.5 -12.5q-143 0 -225.5 78t-82.5 220v545h-177zM527 -122l-53 -391h-132l14 391h171z" />
    <glyph glyph-name="uni0232" unicode="&#x232;" horiz-adv-x="1280" 
d="M936 1546h-591v125h591v-125zM557 530l-534 828h196l421 -659l421 659h196l-534 -828v-530h-166v530z" />
    <glyph glyph-name="uni0233" unicode="&#x233;" horiz-adv-x="1060" 
d="M234 1210v125h591v-125h-591zM447 -27l-415 987h173l327 -804l321 804h175l-453 -1082q-30 -72 -60 -121.5t-72.5 -92t-100.5 -63.5t-133 -21q-99 0 -164 33l19 135q58 -26 136 -26q80 0 135 50t95 156z" />
    <glyph glyph-name="uni0237" unicode="&#x237;" horiz-adv-x="488" 
d="M-126 -393l18 134q54 -20 123 -20q154 0 154 195v1044h159v-1055q0 -155 -78.5 -240t-224.5 -85q-94 0 -151 27z" />
    <glyph glyph-name="uni0259" unicode="&#x259;" horiz-adv-x="1138" 
d="M74 431q0 50 5 88h791q-8 141 -103.5 228.5t-237.5 87.5q-190 0 -303 -161l-121 88q68 106 181 162t243 56q139 2 256 -65t183 -183t63 -252q0 -104 -39 -197t-105.5 -159t-157.5 -105t-192 -39q-195 0 -329 128t-134 323zM864 388h-631q7 -119 94 -191t209 -72
q124 0 217 71.5t111 191.5z" />
    <glyph glyph-name="uni0272" unicode="&#x272;" horiz-adv-x="1193" 
d="M36 -420q-83 0 -134 27l18 134q46 -20 106 -20q134 0 134 195v1044h160v-144q49 80 135.5 122t185.5 42q189 0 297 -104t108 -292v-584h-159v545q0 140 -69.5 212.5t-201.5 72.5q-127 0 -212 -80.5t-85 -207.5v-637q0 -155 -73 -240t-210 -85z" />
    <glyph glyph-name="circumflex" unicode="&#x2c6;" horiz-adv-x="903" 
d="M452 1692l-156 -221h-156l275 369h73l275 -369h-156z" />
    <glyph glyph-name="caron" unicode="&#x2c7;" horiz-adv-x="903" 
d="M415 1474l-275 369h156l154 -222l157 222h156l-275 -369h-73z" />
    <glyph glyph-name="breve" unicode="&#x2d8;" horiz-adv-x="804" 
d="M130 1760h136q6 -66 43 -105.5t93 -39.5q57 0 94 39.5t42 105.5h136q-6 -120 -79.5 -194t-192.5 -74t-191.5 74t-80.5 194z" />
    <glyph glyph-name="dotaccent" unicode="&#x2d9;" horiz-adv-x="478" 
d="M168 1545q-28 27 -28 71t27 71t71 27t72 -27t28 -71t-28 -71.5t-72 -27.5q-43 0 -70 28z" />
    <glyph glyph-name="ring" unicode="&#x2da;" horiz-adv-x="704" 
d="M564 1692q0 -89 -61 -144.5t-151 -55.5t-151 55.5t-61 144.5q0 90 60.5 146.5t151.5 56.5t151.5 -56.5t60.5 -146.5zM249 1692q0 -44 28.5 -72t74.5 -28q45 0 73.5 28t28.5 72q0 45 -28.5 74.5t-73.5 29.5t-74 -29.5t-29 -74.5z" />
    <glyph glyph-name="ogonek" unicode="&#x2db;" horiz-adv-x="633" 
d="M121 -259q0 48 22.5 94t60.5 83t78.5 65t85.5 50l92 -33q-93 -61 -145.5 -120.5t-52.5 -106.5q0 -41 28 -64t78 -23q58 0 119 30l39 -117q-74 -46 -180 -46q-98 0 -161.5 47t-63.5 141z" />
    <glyph glyph-name="tilde" unicode="&#x2dc;" horiz-adv-x="948" 
d="M225 1534l-85 71q92 143 208 143q56 0 132 -41q74 -41 115 -41q40 0 68.5 18.5t62.5 62.5l82 -76q-47 -71 -96.5 -104t-115.5 -33q-57 0 -131 40q-77 39 -112 39q-37 0 -63 -17t-65 -62z" />
    <glyph glyph-name="hungarumlaut" unicode="&#x2dd;" horiz-adv-x="941" 
d="M598 1473h-134l152 334h185zM476 1807l-203 -334h-133l152 334h184z" />
    <glyph glyph-name="acutecomb" unicode="&#x301;" horiz-adv-x="607" 
d="M287 2277h180l-188 -334h-139z" />
    <glyph glyph-name="uni030A" unicode="&#x30a;" horiz-adv-x="704" 
d="M564 1692q0 -89 -61 -144.5t-151 -55.5t-151 55.5t-61 144.5q0 90 60.5 146.5t151.5 56.5t151.5 -56.5t60.5 -146.5zM249 1692q0 -44 28.5 -72t74.5 -28q45 0 73.5 28t28.5 72q0 45 -28.5 74.5t-73.5 29.5t-74 -29.5t-29 -74.5z" />
    <glyph glyph-name="dotbelowcomb" unicode="&#x323;" horiz-adv-x="478" 
d="M238 -381q-43 0 -70.5 27.5t-27.5 71.5t27 71t71 27t72 -27.5t28 -70.5q0 -44 -28 -71.5t-72 -27.5z" />
    <glyph glyph-name="uni0326" unicode="&#x326;" horiz-adv-x="465" 
d="M272 -513h-132l14 391h171z" />
    <glyph glyph-name="uni03BC" unicode="&#x3bc;" horiz-adv-x="1202" 
d="M173 -400v658q-13 51 -13 117v585h158v-546q0 -138 69.5 -211t198.5 -73t213 79.5t84 207.5v543h159v-960h-159v144q-44 -74 -129 -119t-193 -45q-135 0 -229 55v-435h-159z" />
    <glyph glyph-name="pi" unicode="&#x3c0;" horiz-adv-x="1265" 
d="M232 0v938h-187v157h1133v-157h-189v-612q0 -105 32 -153.5t129 -48.5h21v-140q-15 -3 -52 -3q-284 0 -284 308v649h-448v-938h-155z" />
    <glyph glyph-name="Wgrave" unicode="&#x1e80;" horiz-adv-x="2038" 
d="M1072 1473h-139l-188 334h180zM440 0l-402 1358h169l356 -1189l368 1178h176l368 -1178l356 1189h169l-402 -1358h-241l-338 1106l-338 -1106h-241z" />
    <glyph glyph-name="wgrave" unicode="&#x1e81;" horiz-adv-x="1597" 
d="M845 1121h-139l-188 334h180zM347 0l-300 960h169l238 -808l260 798h169l260 -799l239 809h168l-299 -960h-213l-239 728l-239 -728h-213z" />
    <glyph glyph-name="Wacute" unicode="&#x1e82;" horiz-adv-x="2038" 
d="M1099 1473h-139l147 334h180zM440 0l-402 1358h169l356 -1189l368 1178h176l368 -1178l356 1189h169l-402 -1358h-241l-338 1106l-338 -1106h-241z" />
    <glyph glyph-name="wacute" unicode="&#x1e83;" horiz-adv-x="1597" 
d="M1079 1447l-188 -334h-139l147 334h180zM347 0l-300 960h169l238 -808l260 798h169l260 -799l239 809h168l-299 -960h-213l-239 728l-239 -728h-213z" />
    <glyph glyph-name="Wdieresis" unicode="&#x1e84;" horiz-adv-x="2038" 
d="M1195 1518q-43 0 -71 28t-28 71t27.5 70.5t71.5 27.5q43 0 72 -27q27 -28 27 -71t-28 -71t-71 -28zM745 1617q0 43 27.5 70.5t70.5 27.5q44 0 72 -27.5t28 -70.5t-28 -71t-72 -28q-43 0 -70.5 27.5t-27.5 71.5zM440 0l-402 1358h169l356 -1189l368 1178h176l368 -1178
l356 1189h169l-402 -1358h-241l-338 1106l-338 -1106h-241z" />
    <glyph glyph-name="wdieresis" unicode="&#x1e85;" horiz-adv-x="1597" 
d="M1073 1280q0 -44 -27.5 -71.5t-71.5 -27.5t-71 28q-28 27 -28 71q0 43 27.5 70.5t71.5 27.5t71.5 -27.5t27.5 -70.5zM622 1181q-43 0 -70.5 27.5t-27.5 71.5t27 71t71 27t72 -27.5t28 -70.5t-28 -71t-72 -28zM560 0h-213l-300 960h169l238 -808l260 798h169l260 -799
l239 809h168l-299 -960h-213l-239 728z" />
    <glyph glyph-name="Germandbls" unicode="&#x1e9e;" horiz-adv-x="1400" 
d="M333 0h-165v830q0 249 159.5 398.5t410.5 149.5q149 0 281 -63.5t200 -185.5v-69l-400 -332h63q189 0 307 -97q119 -98 119 -255q0 -183 -124 -289.5t-311 -106.5q-119 0 -231 56t-167 154l124 89q41 -67 117 -108t157 -41q114 0 190.5 64t76.5 176q0 107 -82.5 164.5
t-194.5 57.5h-259v122l443 385q-46 63 -135 95.5t-179 32.5q-178 0 -289 -111.5t-111 -290.5v-825z" />
    <glyph glyph-name="uni1EA0" unicode="&#x1ea0;" horiz-adv-x="1353" 
d="M319 315l-127 -315h-174l561 1358h194l562 -1358h-175l-126 315h-715zM982 456l-306 730l-305 -730h611zM676 -381q-43 0 -70.5 27.5t-27.5 71.5t27 71t71 27t72 -27.5t28 -70.5q0 -44 -28 -71.5t-72 -27.5z" />
    <glyph glyph-name="uni1EA1" unicode="&#x1ea1;" horiz-adv-x="1093" 
d="M476 -20q-73 0 -138.5 16.5t-121 50t-88 92t-32.5 135.5q0 134 116 218t303 84q141 0 273 -56v70q0 114 -76 178t-193 64q-176 0 -297 -142l-103 98q66 90 175 141t224 51q121 0 216 -40.5t153.5 -127.5t58.5 -209v-603h-156v146q-46 -76 -129.5 -121t-184.5 -45z
M257 277q0 -44 20.5 -77.5t55 -52t73 -27.5t80.5 -9q129 0 216 84q86 84 86 193q-51 31 -124.5 47t-140.5 16q-46 0 -89 -8t-84.5 -26.5t-67 -54.5t-25.5 -85zM528 -381q-43 0 -70.5 27.5t-27.5 71.5t27 71t71 27t72 -27.5t28 -70.5t-28 -71t-72 -28z" />
    <glyph glyph-name="uni1EB8" unicode="&#x1eb8;" horiz-adv-x="1234" 
d="M1139 0h-955v1358h934v-150h-769v-435h664v-150h-664v-474h790v-149zM705 -381q-43 0 -70.5 27.5t-27.5 71.5t27.5 71t70.5 27q44 0 72 -27.5t28 -70.5t-28 -71t-72 -28z" />
    <glyph glyph-name="uni1EB9" unicode="&#x1eb9;" horiz-adv-x="1138" 
d="M90 480q0 104 39 197t105.5 159t157.5 105t192 39q89 0 173 -31t149 -88q66 -58 103.5 -144.5t37.5 -187.5q0 -50 -5 -88h-791q7 -140 103.5 -228t237.5 -88q190 0 303 161l121 -88q-68 -106 -181 -162t-243 -56q-139 -2 -256 65t-183 183t-63 252zM585 835
q-124 0 -217 -71.5t-111 -191.5h631q-8 120 -94.5 191.5t-208.5 71.5zM577 -381q-43 0 -70.5 27.5t-27.5 71.5t27.5 71t70.5 27q44 0 72 -27.5t28 -70.5t-28 -71t-72 -28z" />
    <glyph glyph-name="uni1EBC" unicode="&#x1ebc;" horiz-adv-x="1234" 
d="M405 1534l-85 71q92 143 208 143q56 0 132 -41q74 -41 115 -41q40 0 68.5 18.5t62.5 62.5l82 -76q-47 -71 -96.5 -104t-115.5 -33q-57 0 -131 40q-77 39 -112 39q-37 0 -63 -17t-65 -62zM184 0v1358h934v-150h-769v-435h664v-150h-664v-474h790v-149h-955z" />
    <glyph glyph-name="uni1EBD" unicode="&#x1ebd;" horiz-adv-x="1138" 
d="M311 1174l-85 71q92 143 208 143q56 0 132 -41q74 -41 115 -41q40 0 68.5 18.5t62.5 62.5l82 -76q-47 -71 -96.5 -104t-115.5 -33q-57 0 -131 40q-76 39 -112 39q-37 0 -63 -17t-65 -62zM90 480q0 104 39 197t105.5 159t157.5 105t192 39q89 0 173 -31t149 -88
q66 -58 103.5 -144.5t37.5 -187.5q0 -50 -5 -88h-791q7 -140 103.5 -228t237.5 -88q190 0 303 161l121 -88q-68 -106 -181 -162t-243 -56q-139 -2 -256 65t-183 183t-63 252zM585 835q-124 0 -217 -71.5t-111 -191.5h631q-8 120 -94.5 191.5t-208.5 71.5z" />
    <glyph glyph-name="uni1ECA" unicode="&#x1eca;" horiz-adv-x="533" 
d="M184 0v1358h165v-1358h-165zM266 -381q-43 0 -70.5 27.5t-27.5 71.5t27 71t71 27t72 -27.5t28 -70.5q0 -44 -28 -71.5t-72 -27.5z" />
    <glyph glyph-name="uni1ECB" unicode="&#x1ecb;" horiz-adv-x="479" 
d="M239 1183q-43 0 -70.5 27.5t-27.5 71.5t27.5 71t70.5 27q44 0 72 -27.5t28 -70.5t-28 -71t-72 -28zM319 960v-960h-159v960h159zM239 -381q-43 0 -70.5 27.5t-27.5 71.5t27.5 71t70.5 27q44 0 72 -27.5t28 -70.5t-28 -71t-72 -28z" />
    <glyph glyph-name="uni1ECC" unicode="&#x1ecc;" horiz-adv-x="1584" 
d="M1488 679q0 -150 -52 -280t-143 -222t-221 -144.5t-280 -52.5q-148 0 -277 52t-221 143.5t-145 222t-53 281.5q0 150 51 279t141.5 221.5t221 145t282.5 52.5q200 0 358.5 -87.5t248 -247.5t89.5 -363zM792 1223q-237 0 -380 -153t-143 -391q0 -156 63.5 -279.5
t183.5 -194.5t276 -71q237 0 380 153.5t143 391.5q0 239 -143 391.5t-380 152.5zM791 -381q-43 0 -70.5 27.5t-27.5 71.5t27.5 71t70.5 27q44 0 72 -27.5t28 -70.5t-28 -71t-72 -28z" />
    <glyph glyph-name="uni1ECD" unicode="&#x1ecd;" horiz-adv-x="1198" 
d="M1109 480q0 -216 -146.5 -358t-363.5 -142t-363.5 142t-146.5 358t146.5 358t363.5 142t363.5 -142t146.5 -358zM599 832q-151 0 -251 -100.5t-100 -251.5t100 -251.5t251 -100.5t251 100.5t100 251.5t-100 251.5t-251 100.5zM598 -381q-43 0 -70.5 27.5t-27.5 71.5
t27 71t71 27t72 -27.5t28 -70.5q0 -44 -28 -71.5t-72 -27.5z" />
    <glyph glyph-name="uni1EE4" unicode="&#x1ee4;" horiz-adv-x="1474" 
d="M1305 485q0 -163 -77 -279t-203.5 -171t-287.5 -55t-287.5 55t-203.5 171t-77 279v873h165v-864q0 -171 114 -265t289 -94q176 0 289.5 93.5t113.5 265.5v864h165v-873zM736 -381q-43 0 -70.5 27.5t-27.5 71.5t27 71t71 27t72 -27.5t28 -70.5t-28 -71t-72 -28z" />
    <glyph glyph-name="uni1EE5" unicode="&#x1ee5;" horiz-adv-x="1189" 
d="M147 375v585h158v-546q0 -138 69.5 -211t198.5 -73t213 79.5t84 207.5v543h159v-960h-159v144q-44 -74 -129 -119t-193 -45q-186 0 -293.5 104.5t-107.5 290.5zM577 -381q-43 0 -70.5 27.5t-27.5 71.5t27.5 71t70.5 27q44 0 72 -27.5t28 -70.5t-28 -71t-72 -28z" />
    <glyph glyph-name="Ygrave" unicode="&#x1ef2;" horiz-adv-x="1280" 
d="M706 1473h-139l-188 334h180zM557 530l-534 828h196l421 -659l421 659h196l-534 -828v-530h-166v530z" />
    <glyph glyph-name="ygrave" unicode="&#x1ef3;" horiz-adv-x="1060" 
d="M583 1121h-139l-188 334h180zM447 -27l-415 987h173l327 -804l321 804h175l-453 -1082q-30 -72 -60 -121.5t-72.5 -92t-100.5 -63.5t-133 -21q-99 0 -164 33l19 135q58 -26 136 -26q80 0 135 50t95 156z" />
    <glyph glyph-name="uni1EF8" unicode="&#x1ef8;" horiz-adv-x="1280" 
d="M391 1534l-85 71q92 143 208 143q56 0 132 -41q74 -41 115 -41q40 0 68.5 18.5t62.5 62.5l82 -76q-47 -71 -96.5 -104t-115.5 -33q-57 0 -131 40q-76 39 -112 39q-37 0 -63 -17t-65 -62zM557 530l-534 828h196l421 -659l421 659h196l-534 -828v-530h-166v530z" />
    <glyph glyph-name="uni1EF9" unicode="&#x1ef9;" horiz-adv-x="1060" 
d="M266 1174l-85 71q92 143 208 143q56 0 132 -41q74 -41 115 -41q40 0 68.5 18.5t62.5 62.5l82 -76q-47 -71 -96.5 -104t-115.5 -33q-57 0 -131 40q-76 39 -112 39q-37 0 -63 -17t-65 -62zM430 -72l17 45l-415 987h173l327 -804l321 804h175l-453 -1082q-30 -72 -60 -121.5
t-72.5 -92t-100.5 -63.5t-133 -21q-99 0 -164 33l19 135q58 -26 136 -26q80 0 135 50t95 156z" />
    <glyph glyph-name="uni2000" unicode="&#x2000;" horiz-adv-x="1148" 
 />
    <glyph glyph-name="uni2001" unicode="&#x2001;" horiz-adv-x="2296" 
 />
    <glyph glyph-name="uni2002" unicode="&#x2002;" horiz-adv-x="1148" 
 />
    <glyph glyph-name="uni2003" unicode="&#x2003;" horiz-adv-x="2296" 
 />
    <glyph glyph-name="uni2004" unicode="&#x2004;" horiz-adv-x="765" 
 />
    <glyph glyph-name="uni2005" unicode="&#x2005;" horiz-adv-x="574" 
 />
    <glyph glyph-name="uni2006" unicode="&#x2006;" horiz-adv-x="382" 
 />
    <glyph glyph-name="uni2007" unicode="&#x2007;" horiz-adv-x="382" 
 />
    <glyph glyph-name="uni2008" unicode="&#x2008;" horiz-adv-x="287" 
 />
    <glyph glyph-name="uni2009" unicode="&#x2009;" horiz-adv-x="459" 
 />
    <glyph glyph-name="uni200A" unicode="&#x200a;" horiz-adv-x="127" 
 />
    <glyph glyph-name="uni2010" unicode="&#x2010;" horiz-adv-x="924" 
d="M134 652h656v-152h-656v152z" />
    <glyph glyph-name="uni2011" unicode="&#x2011;" horiz-adv-x="924" 
d="M134 652h656v-152h-656v152z" />
    <glyph glyph-name="figuredash" unicode="&#x2012;" horiz-adv-x="924" 
d="M134 652h656v-152h-656v152z" />
    <glyph glyph-name="endash" unicode="&#x2013;" horiz-adv-x="1254" 
d="M134 652h986v-152h-986v152z" />
    <glyph glyph-name="emdash" unicode="&#x2014;" horiz-adv-x="2296" 
d="M134 652h2028v-152h-2028v152z" />
    <glyph glyph-name="quoteleft" unicode="&#x2018;" horiz-adv-x="450" 
d="M384 1428l-121 -475h-179l154 475h146z" />
    <glyph glyph-name="quoteright" unicode="&#x2019;" horiz-adv-x="441" 
d="M92 953l121 475h178l-154 -475h-145z" />
    <glyph glyph-name="quotesinglbase" unicode="&#x201a;" horiz-adv-x="436" 
d="M23 -269l122 475h178l-154 -475h-146z" />
    <glyph glyph-name="quotedblleft" unicode="&#x201c;" horiz-adv-x="765" 
d="M578 953h-179l154 475h146zM384 1428l-121 -475h-179l154 475h146z" />
    <glyph glyph-name="quotedblright" unicode="&#x201d;" horiz-adv-x="756" 
d="M552 953h-145l121 475h178zM237 953h-145l121 475h178z" />
    <glyph glyph-name="quotedblbase" unicode="&#x201e;" horiz-adv-x="756" 
d="M484 -272h-146l121 475h179zM169 -272h-146l121 475h179z" />
    <glyph glyph-name="dagger" unicode="&#x2020;" horiz-adv-x="756" 
d="M76 1187v124h232v296h139v-296h234v-124h-234v-680h-139v680h-232z" />
    <glyph glyph-name="daggerdbl" unicode="&#x2021;" horiz-adv-x="827" 
d="M343 1260h-232v124h232v254h139v-254h234v-124h-234v-405h234v-124h-234v-254h-139v254h-232v124h232v405z" />
    <glyph glyph-name="bullet" unicode="&#x2022;" horiz-adv-x="619" 
d="M309 496q-76 0 -126 50t-50 126q0 75 50.5 126t125.5 51q76 0 127 -50.5t51 -126.5t-51 -126t-127 -50z" />
    <glyph glyph-name="ellipsis" unicode="&#x2026;" horiz-adv-x="1245" 
d="M971 15q-22 20 -26.5 51t6 57.5t35 45t55.5 15.5q43 0 71.5 -28.5t28.5 -70.5t-28.5 -70.5t-71.5 -28.5q-42 0 -70 29zM693 15q-28 -29 -71 -29t-71 29q-28 28 -28 70.5t28 70.5t71 28t71 -28q28 -29 28 -71t-28 -70zM132 15q-28 29 -28 71t28 70t71 28t71 -28t28 -70
t-28 -71t-71 -29t-71 29z" />
    <glyph glyph-name="uni202F" unicode="&#x202f;" horiz-adv-x="459" 
 />
    <glyph glyph-name="perthousand" unicode="&#x2030;" horiz-adv-x="2655" 
d="M801 1018q0 -155 -105.5 -257.5t-261.5 -102.5t-261.5 102.5t-105.5 257.5q0 156 105.5 258t261.5 102t261.5 -102t105.5 -258zM480 0v26l734 1332h124v-24l-732 -1334h-126zM434 1247q-98 0 -163 -65.5t-65 -163.5t65 -163.5t163 -65.5t163.5 65.5t65.5 163.5
t-65.5 163.5t-163.5 65.5zM1751 340q0 -155 -105.5 -257.5t-261.5 -102.5t-261.5 102.5t-105.5 257.5q0 156 105.5 258t261.5 102t261.5 -102t105.5 -258zM2585 340q0 -155 -105.5 -257.5t-261.5 -102.5t-261.5 102.5t-105.5 257.5q0 156 105.5 258t261.5 102t261.5 -102
t105.5 -258zM1613 340q0 98 -65.5 163.5t-163.5 65.5t-163 -65.5t-65 -163.5t65 -163.5t163 -65.5t163.5 65.5t65.5 163.5zM2218 569q-98 0 -163 -65.5t-65 -163.5t65 -163.5t163 -65.5t163.5 65.5t65.5 163.5t-65.5 163.5t-163.5 65.5z" />
    <glyph glyph-name="guilsinglleft" unicode="&#x2039;" horiz-adv-x="642" 
d="M284 480l259 -394h-170l-272 394l272 395h170z" />
    <glyph glyph-name="guilsinglright" unicode="&#x203a;" horiz-adv-x="642" 
d="M541 480l-272 -394h-170l259 394l-259 395h170z" />
    <glyph glyph-name="fraction" unicode="&#x2044;" horiz-adv-x="355" 
d="M-123 0h-126v26l734 1332h124v-24z" />
    <glyph glyph-name="uni205F" unicode="&#x205f;" horiz-adv-x="574" 
 />
    <glyph glyph-name="uni2070" unicode="&#x2070;" horiz-adv-x="845" 
d="M749 946q0 -83 -19 -157.5t-57.5 -137.5t-105.5 -100t-155 -37q-71 0 -128.5 24.5t-96 66t-64.5 97.5t-37.5 117t-11.5 127t11.5 127t37.5 117t64.5 97.5t96 66t128.5 24.5q88 0 155 -37t105.5 -100t57.5 -137.5t19 -157.5zM412 1262q-46 0 -82.5 -21t-58.5 -53.5
t-36 -76t-19.5 -84t-5.5 -81.5q0 -145 55 -230q54 -86 147 -86q92 0 148 86q55 85 55 230t-55 230q-56 86 -148 86z" />
    <glyph glyph-name="uni2074" unicode="&#x2074;" horiz-adv-x="783" 
d="M467 751h-415v106l389 501h155v-496h124v-110h-124v-218h-129v217zM467 862v336l-261 -336h261z" />
    <glyph glyph-name="uni2075" unicode="&#x2075;" horiz-adv-x="734" 
d="M344 514q-102 0 -179.5 49.5t-113.5 139.5l110 60q24 -61 72.5 -97t110.5 -36q72 0 119.5 44t47.5 115t-45.5 116t-124.5 45q-81 0 -145 -59l-103 40l40 427h474v-118h-360l-20 -210q55 32 128 32q127 0 209 -74t82 -199t-87.5 -200t-214.5 -75z" />
    <glyph glyph-name="uni2076" unicode="&#x2076;" horiz-adv-x="788" 
d="M389 514q-81 0 -143 31.5t-99.5 85.5t-56 121.5t-18.5 144.5q0 103 20.5 186.5t65 151.5t122.5 105.5t185 37.5q52 0 112 -16t102 -43l-46 -102q-87 45 -170 45q-103 0 -171 -66t-83 -190q65 83 196 83q124 0 207.5 -78t83.5 -201q0 -139 -91 -217.5t-216 -78.5zM391 978
q-74 -2 -125.5 -51.5t-51.5 -123.5q0 -73 52 -123.5t125 -50.5q78 0 127 49.5t49 127.5q0 77 -49.5 124.5t-126.5 47.5z" />
    <glyph glyph-name="uni2077" unicode="&#x2077;" horiz-adv-x="667" 
d="M481 1239h-406v119h558l1 -104q-240 -374 -360 -720h-143q133 369 350 705z" />
    <glyph glyph-name="uni2078" unicode="&#x2078;" horiz-adv-x="778" 
d="M362 514q-79 0 -145.5 24.5t-112 81t-45.5 136.5q0 141 142 204q-111 62 -111 189q0 112 78 170.5t194 58.5q117 0 195.5 -58t78.5 -171q0 -126 -111 -189q69 -31 106 -84t37 -120q0 -81 -46.5 -137.5t-113.5 -80.5t-146 -24zM219 1143q0 -61 39 -97.5t104 -36.5
q67 0 106.5 36.5t39.5 97.5q0 55 -40.5 91t-105.5 36q-63 0 -103 -36t-40 -91zM362 903q-78 0 -125.5 -37.5t-47.5 -100.5t48 -103t125 -40q78 0 127 40t49 103t-48 100.5t-128 37.5z" />
    <glyph glyph-name="uni2079" unicode="&#x2079;" horiz-adv-x="787" 
d="M386 803q-123 0 -207 78.5t-84 200.5q0 139 91 217.5t216 78.5q82 0 144 -31t99 -85.5t55.5 -121.5t18.5 -145q0 -103 -20.5 -186.5t-65 -151.5t-122.5 -105.5t-185 -37.5q-49 0 -112 17t-102 42l46 102q87 -45 170 -45q103 0 171 66t83 190q-65 -83 -196 -83zM400 1263
q-78 0 -127 -49.5t-49 -127.5q0 -76 50 -124t126 -48q74 2 125.5 51.5t51.5 123.5q0 73 -52 123.5t-125 50.5z" />
    <glyph glyph-name="uni2080" unicode="&#x2080;" horiz-adv-x="845" 
d="M760 412q0 -83 -19 -157.5t-57.5 -137.5t-105.5 -100t-155 -37q-71 0 -128.5 24.5t-96 66t-64.5 97.5t-37.5 117t-11.5 127t11.5 127t37.5 117t64.5 97.5t96 66t128.5 24.5q88 0 155 -37t105.5 -100t57.5 -137.5t19 -157.5zM423 728q-46 0 -82.5 -21t-58.5 -53.5t-36 -76
t-19.5 -84t-5.5 -81.5q0 -145 55 -230q54 -86 147 -86q92 0 148 86q55 85 55 230t-55 230q-56 86 -148 86z" />
    <glyph glyph-name="uni2081" unicode="&#x2081;" horiz-adv-x="493" 
d="M43 706v118h319v-824h-131v706h-188z" />
    <glyph glyph-name="uni2082" unicode="&#x2082;" horiz-adv-x="732" 
d="M184 595l-111 57q32 88 107 140t169 52q121 0 203 -70t82 -188q0 -72 -38 -136q-34 -53 -168 -149l-49 -35q-136 -97 -148 -145h417v-121h-565v56q0 100 66 170q53 57 138 118l64 47q81 59 104 87q44 50 44 106q0 65 -42.5 104.5t-110.5 39.5q-55 0 -98 -36t-64 -97z" />
    <glyph glyph-name="uni2083" unicode="&#x2083;" horiz-adv-x="741" 
d="M72 169l110 60q24 -61 73.5 -97t111.5 -36q63 0 108.5 34.5t45.5 95.5q0 68 -51 104.5t-122 36.5h-109v109h109q68 0 111.5 33.5t43.5 92.5t-40.5 92.5t-104.5 33.5q-62 0 -107.5 -35t-68.5 -92l-110 60q34 82 109.5 132.5t178.5 50.5q116 0 195 -63t79 -177
q0 -62 -33 -110t-90 -70q63 -22 103.5 -77.5t40.5 -122.5q0 -76 -41.5 -133t-105 -84t-138.5 -27q-105 0 -183.5 49.5t-114.5 139.5z" />
    <glyph glyph-name="uni2084" unicode="&#x2084;" horiz-adv-x="785" 
d="M468 217h-415v106l389 501h155v-496h124v-110h-124v-218h-129v217zM468 328v336l-261 -336h261z" />
    <glyph glyph-name="uni2085" unicode="&#x2085;" horiz-adv-x="734" 
d="M355 -20q-102 0 -179.5 49.5t-113.5 139.5l110 60q24 -61 72.5 -97t110.5 -36q72 0 119.5 44t47.5 115t-45.5 116t-124.5 45q-81 0 -145 -59l-103 40l40 427h474v-118h-360l-20 -210q55 32 128 32q127 0 209 -74t82 -199q0 -124 -87.5 -199.5t-214.5 -75.5z" />
    <glyph glyph-name="uni2086" unicode="&#x2086;" horiz-adv-x="789" 
d="M403 -20q-81 0 -143 31.5t-99.5 85.5t-56 121.5t-18.5 144.5q0 103 20.5 186.5t65 151.5t122.5 105.5t185 37.5q52 0 112 -16t102 -43l-46 -102q-87 45 -170 45q-103 0 -171 -66t-83 -190q65 83 196 83q124 0 207.5 -78t83.5 -201q0 -139 -91 -217.5t-216 -78.5zM405 444
q-74 -2 -125.5 -51.5t-51.5 -123.5q0 -73 52 -123.5t125 -50.5q78 0 127 49.5t49 127.5q0 77 -49.5 124.5t-126.5 47.5z" />
    <glyph glyph-name="uni2087" unicode="&#x2087;" horiz-adv-x="668" 
d="M467 705h-406v119h558l1 -104q-240 -374 -360 -720h-143q133 369 350 705z" />
    <glyph glyph-name="uni2088" unicode="&#x2088;" horiz-adv-x="779" 
d="M388 -20q-79 0 -145.5 24.5t-112 81t-45.5 136.5q0 141 142 204q-111 62 -111 189q0 112 78 170.5t194 58.5q117 0 195.5 -58t78.5 -171q0 -126 -111 -189q69 -31 106 -84t37 -120q0 -81 -46.5 -137.5t-113.5 -80.5t-146 -24zM245 609q0 -61 39 -97.5t104 -36.5
q67 0 106.5 36.5t39.5 97.5q0 55 -40.5 91t-105.5 36q-63 0 -103 -36t-40 -91zM388 369q-78 0 -125.5 -37.5t-47.5 -100.5t48 -103t125 -40q78 0 127 40t49 103t-48 100.5t-128 37.5z" />
    <glyph glyph-name="uni2089" unicode="&#x2089;" horiz-adv-x="789" 
d="M397 269q-123 0 -207 78.5t-84 200.5q0 139 91 217.5t216 78.5q82 0 144 -31t99 -85.5t55.5 -121.5t18.5 -145q0 -103 -20.5 -186.5t-65 -151.5t-122.5 -105.5t-185 -37.5q-50 0 -111.5 16.5t-102.5 42.5l46 102q87 -45 170 -45q103 0 171 66t83 190q-65 -83 -196 -83z
M411 729q-78 0 -127 -49.5t-49 -127.5q0 -76 50 -124t126 -48q74 2 125.5 51.5t51.5 123.5q0 73 -52 123.5t-125 50.5z" />
    <glyph glyph-name="Euro" unicode="&#x20ac;" horiz-adv-x="1448" 
d="M443 858h540v-118h-556q-2 -54 -2 -61q0 -8 2 -56h556v-121h-540q36 -163 139 -265t262 -102q121 0 220 65.5t157 180.5l132 -77q-66 -150 -205 -237t-304 -87q-232 0 -385.5 144t-196.5 378h-158v121h143q-1 12 -1 56q0 7 2 61h-144v118h158q45 232 197 376t381 144
q167 0 302.5 -86t205.5 -238l-141 -81q-52 115 -148 182.5t-219 67.5q-158 0 -259.5 -101.5t-137.5 -263.5z" />
    <glyph glyph-name="trademark" unicode="&#x2122;" horiz-adv-x="1403" 
d="M715 818h-85v590h99l210 -433l209 433h99v-590h-85v431l-193 -389h-61l-193 388v-430zM265 818v510h-197v80h479v-80h-197v-510h-85z" />
    <glyph glyph-name="estimated" unicode="&#x212e;" horiz-adv-x="1741" 
d="M893 -20q-215 0 -394 93q-176 92 -279 251t-103 353q0 122 42 232.5t116 195t171.5 146.5t212.5 94.5t234 32.5q151 0 295.5 -54.5t253.5 -154.5q106 -98 166 -229t60 -272v-23h-1257q-11 0 -11 -9v-359q0 -24 17 -47q185 -177 478 -177q150 0 279.5 51.5t219.5 147.5
h113q-111 -132 -273.5 -202t-340.5 -70zM400 1077v-351q0 -13 11 -13h966q6 0 6 13v358q0 23 -17 46q-86 84 -209.5 129.5t-261.5 45.5q-294 0 -475 -175q-20 -25 -20 -53z" />
    <glyph glyph-name="onethird" unicode="&#x2153;" horiz-adv-x="1737" 
d="M1164 1334l-732 -1334h-126v26l734 1332h124v-24zM276 530v706h-188v118h319v-824h-131zM977 169l110 60q24 -61 73.5 -97t111.5 -36q63 0 108.5 34.5t45.5 95.5q0 68 -51 104.5t-122 36.5h-109v109h109q68 0 111.5 33.5t43.5 92.5t-40.5 92.5t-104.5 33.5
q-62 0 -107.5 -35t-68.5 -92l-110 60q34 82 109.5 132.5t178.5 50.5q116 0 195 -63t79 -177q0 -62 -33 -110t-90 -70q63 -22 103.5 -77.5t40.5 -122.5q0 -76 -41.5 -133t-105 -84t-138.5 -27q-105 0 -183.5 49.5t-114.5 139.5z" />
    <glyph glyph-name="twothirds" unicode="&#x2154;" horiz-adv-x="1935" 
d="M186 1135l-111 57q32 88 107 140t169 52q121 0 203 -70t82 -188q0 -72 -38 -136q-34 -53 -168 -149l-49 -35q-136 -97 -148 -145h417v-121h-565v56q0 100 66 170q49 53 138 118l64 47q81 59 104 87q44 50 44 106q0 65 -42.5 104.5t-110.5 39.5q-55 0 -98 -36t-64 -97z
M508 0v26l734 1332h124v-24l-732 -1334h-126zM1299 601l-110 60q34 82 109.5 132.5t178.5 50.5q116 0 195 -63t79 -177q0 -62 -33 -110t-90 -70q63 -22 103.5 -77.5t40.5 -122.5q0 -76 -41.5 -133t-105 -84t-138.5 -27q-105 0 -183.5 49.5t-114.5 139.5l110 60
q24 -61 73.5 -97t111.5 -36q63 0 108.5 34.5t45.5 95.5q0 68 -51 104.5t-122 36.5h-109v109h109q68 0 111.5 33.5t43.5 92.5t-40.5 92.5t-104.5 33.5q-62 0 -107.5 -35t-68.5 -92z" />
    <glyph glyph-name="minus" unicode="&#x2212;" horiz-adv-x="1160" 
d="M121 766h918v-159h-918v159z" />
    <glyph glyph-name="uni2215" unicode="&#x2215;" horiz-adv-x="826" 
d="M113 0h-126v26l734 1332h124v-24z" />
    <glyph glyph-name="uni2219" unicode="&#x2219;" horiz-adv-x="476" 
d="M167 379q-28 28 -28 70.5t28 70.5t70 28q43 0 71.5 -28.5t28.5 -70.5q0 -43 -28.5 -70.5t-71.5 -27.5t-70 28z" />
    <glyph glyph-name="approxequal" unicode="&#x2248;" horiz-adv-x="1210" 
d="M216 769l-97 121q147 144 295 144q113 0 199 -53q84 -53 178 -53q51 0 94 21t99 69l97 -121q-147 -144 -295 -144q-113 0 -196 54q-86 53 -181 53q-86 0 -193 -91zM226 325l-97 121q147 144 295 144q113 0 199 -53q84 -53 178 -53q51 0 94 21t99 69l97 -121
q-147 -144 -295 -144q-113 0 -196 54q-86 53 -181 53q-86 0 -193 -91z" />
    <glyph glyph-name="notequal" unicode="&#x2260;" horiz-adv-x="1308" 
d="M316 70l123 275h-301v162h373l152 343h-525v161h598l140 313l121 -47l-119 -266h292v-161h-366l-153 -343h519v-162h-592l-147 -325z" />
    <glyph glyph-name="lessequal" unicode="&#x2264;" horiz-adv-x="1327" 
d="M319 656h847v-159h-1033v223l1028 489v-179zM130 237h1033v-162h-1033v162z" />
    <glyph glyph-name="greaterequal" unicode="&#x2265;" horiz-adv-x="1328" 
d="M162 497v159h847l-842 374v179l1028 -489v-223h-1033zM163 75v162h1033v-162h-1033z" />
    <glyph glyph-name="uni25FC" unicode="&#x25fc;" horiz-adv-x="960" 
d="M0 0v960h960v-960h-960z" />
    <glyph glyph-name="nonmarkingreturn001" horiz-adv-x="464" 
 />
    <glyph glyph-name="A.smcp" horiz-adv-x="1074" 
d="M291 225l-90 -225h-168l408 1000h192l408 -1000h-168l-90 225h-492zM537 847l-193 -487h386z" />
    <glyph glyph-name="AE.smcp" horiz-adv-x="1516" 
d="M170 0h-178l623 1000h796v-137h-547v-283h473v-135h-473v-308h560v-137h-720v220h-398zM704 863l-313 -506h313v506z" />
    <glyph glyph-name="AEacute.smcp" horiz-adv-x="1516" 
d="M1268 1487l-188 -334h-139l147 334h180zM306 220l-136 -220h-178l623 1000h796v-137h-547v-283h473v-135h-473v-308h560v-137h-720v220h-398zM704 357v506l-313 -506h313z" />
    <glyph glyph-name="Aacute.smcp" horiz-adv-x="1074" 
d="M808 1487l-188 -334h-139l147 334h180zM291 225l-90 -225h-168l408 1000h192l408 -1000h-168l-90 225h-492zM730 360l-193 487l-193 -487h386z" />
    <glyph glyph-name="Abreve.smcp" horiz-adv-x="1074" 
d="M265 1448h136q6 -66 43 -105.5t93 -39.5q57 0 94 39.5t42 105.5h136q-6 -120 -79.5 -194t-192.5 -74t-191.5 74t-80.5 194zM291 225l-90 -225h-168l408 1000h192l408 -1000h-168l-90 225h-492zM537 847l-193 -487h386z" />
    <glyph glyph-name="Acircumflex.smcp" horiz-adv-x="1074" 
d="M538 1346l-156 -221h-156l275 369h73l275 -369h-156zM201 0h-168l408 1000h192l408 -1000h-168l-90 225h-492zM730 360l-193 487l-193 -487h386z" />
    <glyph glyph-name="Adieresis.smcp" horiz-adv-x="1074" 
d="M713 1218q-43 0 -71 28t-28 71t27.5 70.5t71.5 27.5q43 0 72 -27q27 -28 27 -71t-28 -71t-71 -28zM361 1218q-43 0 -70.5 27.5t-27.5 71.5q0 43 27.5 70.5t70.5 27.5q44 0 72 -27.5t28 -70.5t-28 -71t-72 -28zM291 225l-90 -225h-168l408 1000h192l408 -1000h-168
l-90 225h-492zM537 847l-193 -487h386z" />
    <glyph glyph-name="Adotbelow.smcp" horiz-adv-x="1074" 
d="M291 225l-90 -225h-168l408 1000h192l408 -1000h-168l-90 225h-492zM730 360l-193 487l-193 -487h386zM536 -381q-43 0 -70.5 27.5t-27.5 71.5t27 71t71 27t72 -27.5t28 -70.5q0 -44 -28 -71.5t-72 -27.5z" />
    <glyph glyph-name="Agrave.smcp" horiz-adv-x="1074" 
d="M589 1156h-139l-188 334h180zM201 0h-168l408 1000h192l408 -1000h-168l-90 225h-492zM730 360l-193 487l-193 -487h386z" />
    <glyph glyph-name="Amacron.smcp" horiz-adv-x="1074" 
d="M833 1249h-591v125h591v-125zM201 0h-168l408 1000h192l408 -1000h-168l-90 225h-492zM537 847l-193 -487h386z" />
    <glyph glyph-name="Aogonek.smcp" horiz-adv-x="1074" 
d="M201 0h-168l408 1000h192l408 -1000h-18q-93 -61 -145.5 -120.5t-52.5 -106.5q0 -41 28 -64t78 -23q57 0 119 30l39 -117q-74 -46 -180 -46q-98 0 -161.5 47t-63.5 141q0 142 189 259l-90 225h-492zM730 360l-193 487l-193 -487h386z" />
    <glyph glyph-name="Aring.smcp" horiz-adv-x="1074" 
d="M325 1330q0 90 60.5 146.5t151.5 56.5t151.5 -56.5t60.5 -146.5q0 -89 -61 -144.5t-151 -55.5t-151 55.5t-61 144.5zM537 1434q-45 0 -74 -29.5t-29 -74.5q0 -44 28.5 -72t74.5 -28q45 0 73.5 28t28.5 72q0 45 -28.5 74.5t-73.5 29.5zM291 225l-90 -225h-168l408 1000
h192l408 -1000h-168l-90 225h-492zM537 847l-193 -487h386z" />
    <glyph glyph-name="Aringacute.smcp" horiz-adv-x="1074" 
d="M612 1601h-139l147 334h180zM325 1330q0 90 60.5 146.5t151.5 56.5t151.5 -56.5t60.5 -146.5q0 -89 -61 -144.5t-151 -55.5t-151 55.5t-61 144.5zM434 1330q0 -44 28.5 -72t74.5 -28q45 0 73.5 28t28.5 72q0 45 -28.5 74.5t-73.5 29.5t-74 -29.5t-29 -74.5zM201 0h-168
l408 1000h192l408 -1000h-168l-90 225h-492zM537 847l-193 -487h386z" />
    <glyph glyph-name="Atilde.smcp" horiz-adv-x="1074" 
d="M288 1219l-85 71q92 143 208 143q56 0 132 -41q74 -41 115 -41q40 0 68.5 18.5t62.5 62.5l82 -76q-47 -71 -96.5 -104t-115.5 -33q-57 0 -131 40q-77 39 -112 39q-37 0 -63 -17t-65 -62zM291 225l-90 -225h-168l408 1000h192l408 -1000h-168l-90 225h-492zM537 847
l-193 -487h386z" />
    <glyph glyph-name="B.smcp" horiz-adv-x="1031" 
d="M625 0h-470v1000h440q141 0 224 -79q84 -79 84 -196q0 -62 -33 -118.5t-86 -83.5q70 -28 114 -93.5t44 -140.5q0 -128 -93 -208.5t-224 -80.5zM313 863v-288h280q64 0 108 40t44 104q0 65 -43.5 104.5t-108.5 39.5h-280zM620 450h-307v-313h307q70 0 117 45t47 115
q0 67 -48 110t-116 43z" />
    <glyph glyph-name="C.smcp" horiz-adv-x="1126" 
d="M608 -20q-220 0 -369.5 150t-149.5 370q0 109 40 205t108.5 165.5t165 109.5t205.5 40q143 0 262 -64t186 -185l-122 -88q-112 189 -326 189q-156 0 -257.5 -107.5t-101.5 -264.5q0 -159 101.5 -265.5t258.5 -106.5q100 0 190.5 52t146.5 137l116 -91
q-71 -114 -194.5 -180t-259.5 -66z" />
    <glyph glyph-name="Cacute.smcp" horiz-adv-x="1126" 
d="M680 1153h-139l147 334h180zM89 500q0 109 40 205t108.5 165.5t165 109.5t205.5 40q143 0 262 -64t186 -185l-122 -88q-112 189 -326 189q-156 0 -257.5 -107.5t-101.5 -264.5q0 -159 101.5 -265.5t258.5 -106.5q100 0 190.5 52t146.5 137l116 -91q-71 -114 -194.5 -180
t-259.5 -66q-220 0 -369.5 150t-149.5 370z" />
    <glyph glyph-name="Ccaron.smcp" horiz-adv-x="1126" 
d="M570 1126l-275 369h156l154 -222l157 222h156l-275 -369h-73zM89 500q0 109 40 205t108.5 165.5t165 109.5t205.5 40q143 0 262 -64t186 -185l-122 -88q-112 189 -326 189q-156 0 -257.5 -107.5t-101.5 -264.5q0 -159 101.5 -265.5t258.5 -106.5q100 0 190.5 52
t146.5 137l116 -91q-71 -114 -194.5 -180t-259.5 -66q-220 0 -369.5 150t-149.5 370z" />
    <glyph glyph-name="Ccedilla.smcp" horiz-adv-x="1126" 
d="M465 -187l65 172q-195 28 -318 172.5t-123 342.5q0 109 40 205t108.5 165.5t165 109.5t205.5 40q143 0 262 -64t186 -185l-122 -88q-112 189 -326 189q-156 0 -257.5 -107.5t-101.5 -264.5q0 -159 101.5 -265.5t258.5 -106.5q100 0 190.5 52t146.5 137l116 -91
q-67 -109 -183.5 -174.5t-245.5 -70.5l-25 -78q94 -7 149 -51t55 -115q0 -86 -69 -135t-190 -49q-81 0 -135 20v114q54 -19 124 -19q128 0 128 70q0 75 -146 75h-59z" />
    <glyph glyph-name="Ccircumflex.smcp" horiz-adv-x="1126" 
d="M444 1125h-156l275 369h73l275 -369h-156l-155 221zM89 500q0 109 40 205t108.5 165.5t165 109.5t205.5 40q143 0 262 -64t186 -185l-122 -88q-112 189 -326 189q-156 0 -257.5 -107.5t-101.5 -264.5q0 -159 101.5 -265.5t258.5 -106.5q100 0 190.5 52t146.5 137l116 -91
q-71 -114 -194.5 -180t-259.5 -66q-220 0 -369.5 150t-149.5 370z" />
    <glyph glyph-name="Cdotaccent.smcp" horiz-adv-x="1126" 
d="M508 1319q0 43 27 70.5t71 27.5t72 -27t28 -71t-28 -71.5t-72 -27.5q-43 0 -70.5 27.5t-27.5 71.5zM608 -20q-220 0 -369.5 150t-149.5 370q0 109 40 205t108.5 165.5t165 109.5t205.5 40q143 0 262 -64t186 -185l-122 -88q-112 189 -326 189q-156 0 -257.5 -107.5
t-101.5 -264.5q0 -159 101.5 -265.5t258.5 -106.5q100 0 190.5 52t146.5 137l116 -91q-71 -114 -194.5 -180t-259.5 -66z" />
    <glyph glyph-name="D.smcp" horiz-adv-x="1183" 
d="M155 0v1001h415q226 0 374 -142q149 -143 149 -358q0 -146 -70 -261t-189 -177.5t-264 -62.5h-415zM317 863v-726h253q160 0 260 102t100 262t-99.5 260t-260.5 102h-253z" />
    <glyph glyph-name="Dcaron.smcp" horiz-adv-x="1183" 
d="M563 1126h-73l-275 369h156l154 -222l157 222h156zM155 0v1001h415q226 0 374 -142q149 -143 149 -358q0 -146 -70 -261t-189 -177.5t-264 -62.5h-415zM570 863h-253v-726h253q160 0 260 102t100 262t-99.5 260t-260.5 102z" />
    <glyph glyph-name="Dcroat.smcp" horiz-adv-x="1206" 
d="M55 444v135h123v422h415q226 0 374 -142q149 -143 149 -358q0 -146 -70 -261t-189 -177.5t-264 -62.5h-415v444h-123zM340 863v-284h330v-135h-330v-307h253q160 0 260 102t100 262t-99.5 260t-260.5 102h-253z" />
    <glyph glyph-name="E.smcp" horiz-adv-x="967" 
d="M875 0h-720v1000h706v-137h-547v-283h474v-135h-474v-308h561v-137z" />
    <glyph glyph-name="Eacute.smcp" horiz-adv-x="967" 
d="M570 1153h-139l147 334h180zM875 0h-720v1000h706v-137h-547v-283h474v-135h-474v-308h561v-137z" />
    <glyph glyph-name="Ebreve.smcp" horiz-adv-x="967" 
d="M243 1448h136q6 -66 43 -105.5t93 -39.5q57 0 94 39.5t42 105.5h136q-6 -120 -79.5 -194t-192.5 -74t-191.5 74t-80.5 194zM875 137v-137h-720v1000h706v-137h-547v-283h474v-135h-474v-308h561z" />
    <glyph glyph-name="Ecaron.smcp" horiz-adv-x="967" 
d="M480 1126l-275 369h156l154 -222l157 222h156l-275 -369h-73zM875 0h-720v1000h706v-137h-547v-283h474v-135h-474v-308h561v-137z" />
    <glyph glyph-name="Ecircumflex.smcp" horiz-adv-x="967" 
d="M511 1346l-156 -221h-156l275 369h73l275 -369h-156zM875 137v-137h-720v1000h706v-137h-547v-283h474v-135h-474v-308h561z" />
    <glyph glyph-name="Edieresis.smcp" horiz-adv-x="967" 
d="M778 1317q0 -43 -28 -71t-71 -28t-71 28t-28 71t27.5 70.5t71.5 27.5q43 0 72 -27q27 -28 27 -71zM229 1317q0 43 27.5 70.5t70.5 27.5q44 0 72 -27.5t28 -70.5t-28 -71t-72 -28q-43 0 -70.5 27.5t-27.5 71.5zM875 0h-720v1000h706v-137h-547v-283h474v-135h-474v-308
h561v-137z" />
    <glyph glyph-name="Edotaccent.smcp" horiz-adv-x="967" 
d="M519 1220q-43 0 -70.5 27.5t-27.5 71.5q0 43 27.5 70.5t70.5 27.5q44 0 72 -27.5t28 -70.5t-28 -71t-72 -28zM875 0h-720v1000h706v-137h-547v-283h474v-135h-474v-308h561v-137z" />
    <glyph glyph-name="Edotbelow.smcp" horiz-adv-x="967" 
d="M875 0h-720v1000h706v-137h-547v-283h474v-135h-474v-308h561v-137zM536 -381q-43 0 -70.5 27.5t-27.5 71.5t27 71t71 27t72 -27.5t28 -70.5t-28 -71t-72 -28z" />
    <glyph glyph-name="Egrave.smcp" horiz-adv-x="967" 
d="M440 1156l-188 334h180l147 -334h-139zM875 0h-720v1000h706v-137h-547v-283h474v-135h-474v-308h561v-137z" />
    <glyph glyph-name="Emacron.smcp" horiz-adv-x="967" 
d="M811 1249h-591v125h591v-125zM875 0h-720v1000h706v-137h-547v-283h474v-135h-474v-308h561v-137z" />
    <glyph glyph-name="Eng.smcp" horiz-adv-x="1216" 
d="M314 0h-159v1000h157l590 -763v763h159v-1095q0 -155 -73 -240t-210 -85q-83 0 -134 27l18 134q46 -20 106 -20q134 0 134 195v87l-588 760v-763z" />
    <glyph glyph-name="Eogonek.smcp" horiz-adv-x="967" 
d="M724 0h-569v1000h706v-137h-547v-283h474v-135h-474v-308h561v-137q-93 -61 -145.5 -120.5t-52.5 -106.5q0 -41 28 -64t78 -23q57 0 119 30l39 -117q-74 -46 -180 -46q-98 0 -161.5 47t-63.5 141q0 143 188 259z" />
    <glyph glyph-name="Eth.smcp" horiz-adv-x="1206" 
d="M55 444v135h123v422h415q226 0 374 -142q149 -143 149 -358q0 -146 -70 -261t-189 -177.5t-264 -62.5h-415v444h-123zM340 863v-284h330v-135h-330v-307h253q160 0 260 102t100 262t-99.5 260t-260.5 102h-253z" />
    <glyph glyph-name="Etilde.smcp" horiz-adv-x="967" 
d="M268 1219l-85 71q92 143 208 143q56 0 132 -41q74 -41 115 -41q40 0 68.5 18.5t62.5 62.5l82 -76q-47 -71 -96.5 -104t-115.5 -33q-57 0 -131 40q-76 39 -112 39q-37 0 -63 -17t-65 -62zM155 0v1000h706v-137h-547v-283h474v-135h-474v-308h561v-137h-720z" />
    <glyph glyph-name="Euro.onum" horiz-adv-x="1193" 
d="M226 402h-127v109h116v22q0 36 1 46h-117v109h131q38 182 161 292t306 110q127 0 235 -71t158 -188l-126 -66q-36 79 -109.5 131t-157.5 52q-113 0 -192.5 -68.5t-111.5 -191.5h446v-109h-463q-1 -10 -1 -46v-22h464v-109h-451q29 -133 111.5 -207t201.5 -74q85 0 158 50
t110 129l125 -63q-51 -116 -159 -187.5t-234 -71.5q-190 0 -315.5 117t-159.5 307z" />
    <glyph glyph-name="Euro.onum.tnum" 
d="M330 402h-127v109h116v22q0 36 1 46h-117v109h131q38 182 161 292t306 110q127 0 235 -71t158 -188l-126 -66q-36 79 -109.5 131t-157.5 52q-113 0 -192.5 -68.5t-111.5 -191.5h446v-109h-463q-1 -10 -1 -46v-22h464v-109h-451q29 -133 111.5 -207t201.5 -74q85 0 158 50
t110 129l125 -63q-51 -116 -159 -187.5t-234 -71.5q-190 0 -315.5 117t-159.5 307z" />
    <glyph glyph-name="Euro.tnum" 
d="M391 858h540v-118h-556q-2 -54 -2 -61q0 -8 2 -56h556v-121h-540q36 -163 139 -265t262 -102q121 0 220 65.5t157 180.5l132 -77q-66 -150 -205 -237t-304 -87q-232 0 -385.5 144t-196.5 378h-158v121h143q-1 12 -1 56q0 7 2 61h-144v118h158q45 232 197 376t381 144
q167 0 302.5 -86t205.5 -238l-141 -81q-52 115 -148 182.5t-219 67.5q-158 0 -259.5 -101.5t-137.5 -263.5z" />
    <glyph glyph-name="F.smcp" horiz-adv-x="939" 
d="M155 0v1000h714v-137h-555v-284h444v-137h-444v-442h-159z" />
    <glyph glyph-name="G.smcp" horiz-adv-x="1185" 
d="M609 -18q-141 -3 -262 67t-191 191t-67 261q-3 142 65.5 262.5t189.5 189.5t266 67q140 0 255.5 -65t190.5 -185l-118 -89q-55 89 -140 140t-188 51q-160 0 -260.5 -105t-100.5 -266t100.5 -266t260.5 -105q129 0 216.5 65.5t110.5 189.5h-361v137h522q2 -30 2 -58
q0 -220 -135 -351t-356 -131z" />
    <glyph glyph-name="Gbreve.smcp" horiz-adv-x="1185" 
d="M887 1448q-6 -120 -79.5 -194t-192.5 -74t-191.5 74t-80.5 194h136q6 -66 43 -105.5t93 -39.5q57 0 94 39.5t42 105.5h136zM609 -18q-141 -3 -262 67t-191 191t-67 261q-3 142 65.5 262.5t189.5 189.5t266 67q140 0 255.5 -65t190.5 -185l-118 -89q-55 89 -140 140
t-188 51q-160 0 -260.5 -105t-100.5 -266t100.5 -266t260.5 -105q129 0 216.5 65.5t110.5 189.5h-361v137h522q2 -30 2 -58q0 -220 -135 -351t-356 -131z" />
    <glyph glyph-name="Gcaron.smcp" horiz-adv-x="1185" 
d="M643 1126h-73l-275 369h156l154 -222l157 222h156zM609 -18q-141 -3 -262 67t-191 191t-67 261q-3 142 65.5 262.5t189.5 189.5t266 67q140 0 255.5 -65t190.5 -185l-118 -89q-55 89 -140 140t-188 51q-160 0 -260.5 -105t-100.5 -266t100.5 -266t260.5 -105
q129 0 216.5 65.5t110.5 189.5h-361v137h522q2 -30 2 -58q0 -220 -135 -351t-356 -131z" />
    <glyph glyph-name="Gcircumflex.smcp" horiz-adv-x="1185" 
d="M445 1125h-156l275 369h73l275 -369h-156l-155 221zM609 -18q-141 -3 -262 67t-191 191t-67 261q-3 142 65.5 262.5t189.5 189.5t266 67q140 0 255.5 -65t190.5 -185l-118 -89q-55 89 -140 140t-188 51q-160 0 -260.5 -105t-100.5 -266t100.5 -266t260.5 -105
q129 0 216.5 65.5t110.5 189.5h-361v137h522q2 -30 2 -58q0 -220 -135 -351t-356 -131z" />
    <glyph glyph-name="Gcommaaccent.smcp" horiz-adv-x="1185" 
d="M609 -18q-141 -3 -262 67t-191 191t-67 261q-3 142 65.5 262.5t189.5 189.5t266 67q140 0 255.5 -65t190.5 -185l-118 -89q-55 89 -140 140t-188 51q-160 0 -260.5 -105t-100.5 -266t100.5 -266t260.5 -105q129 0 216.5 65.5t110.5 189.5h-361v137h522q2 -30 2 -58
q0 -220 -135 -351t-356 -131zM703 -122l-53 -391h-132l14 391h171z" />
    <glyph glyph-name="Gdotaccent.smcp" horiz-adv-x="1185" 
d="M616 1220q-43 0 -70.5 27.5t-27.5 71.5q0 43 27 70.5t71 27.5t72 -27t28 -71t-28 -71.5t-72 -27.5zM609 -18q-141 -3 -262 67t-191 191t-67 261q-3 142 65.5 262.5t189.5 189.5t266 67q140 0 255.5 -65t190.5 -185l-118 -89q-55 89 -140 140t-188 51q-160 0 -260.5 -105
t-100.5 -266t100.5 -266t260.5 -105q129 0 216.5 65.5t110.5 189.5h-361v137h522q2 -30 2 -58q0 -220 -135 -351t-356 -131z" />
    <glyph glyph-name="H.smcp" horiz-adv-x="1188" 
d="M314 444v-444h-159v1000h159v-419h560v419h159v-1000h-159v444h-560z" />
    <glyph glyph-name="Hbar.smcp" horiz-adv-x="1239" 
d="M1059 1000v-133h117v-130h-117v-737h-159v444h-560v-444h-159v737h-118v130h118v133h159v-133h560v133h159zM900 581v156h-560v-156h560z" />
    <glyph glyph-name="Hcircumflex.smcp" horiz-adv-x="1188" 
d="M439 1125h-156l275 369h73l275 -369h-156l-155 221zM314 0h-159v1000h159v-419h560v419h159v-1000h-159v444h-560v-444z" />
    <glyph glyph-name="I.smcp" horiz-adv-x="469" 
d="M314 0h-159v1000h159v-1000z" />
    <glyph glyph-name="IJ.smcp" horiz-adv-x="1308" 
d="M517 133l104 108q89 -113 195 -113q91 0 140 62t49 176v634h159v-656q0 -168 -90.5 -266t-257.5 -98q-92 0 -169.5 40t-129.5 113zM155 0v1000h159v-1000h-159z" />
    <glyph glyph-name="IJacute" horiz-adv-x="1586" 
d="M1592 1807l-188 -334h-139l147 334h180zM535 1807l-188 -334h-139l147 334h180zM958 -20q-113 0 -221 50.5t-170 139.5l110 112q53 -69 127.5 -108.5t153.5 -39.5q138 0 214.5 91.5t76.5 256.5v876h166v-892q0 -224 -118 -355t-339 -131zM184 0v1358h165v-1358h-165z" />
    <glyph glyph-name="IJacute.smcp" horiz-adv-x="1308" 
d="M1343 1487l-188 -334h-139l147 334h180zM497 1487l-188 -334h-139l147 334h180zM816 -20q-92 0 -169.5 40t-129.5 113l104 108q89 -113 195 -113q91 0 140 62t49 176v634h159v-656q0 -168 -90.5 -266t-257.5 -98zM155 0v1000h159v-1000h-159z" />
    <glyph glyph-name="Iacute.smcp" horiz-adv-x="469" 
d="M312 1487h180l-188 -334h-139zM314 0h-159v1000h159v-1000z" />
    <glyph glyph-name="Ibreve.smcp" horiz-adv-x="469" 
d="M-38 1448h136q6 -66 43 -105.5t93 -39.5q57 0 94 39.5t42 105.5h136q-6 -120 -79.5 -194t-192.5 -74t-191.5 74t-80.5 194zM155 0v1000h159v-1000h-159z" />
    <glyph glyph-name="Icircumflex.smcp" horiz-adv-x="469" 
d="M79 1125h-156l275 369h73l275 -369h-156l-155 221zM314 1000v-1000h-159v1000h159z" />
    <glyph glyph-name="Idieresis.smcp" horiz-adv-x="469" 
d="M410 1218q-44 0 -71.5 28t-27.5 71t27.5 70.5t71.5 27.5t72 -27q27 -28 27 -71q0 -44 -27.5 -71.5t-71.5 -27.5zM58 1218q-43 0 -70.5 27.5t-27.5 71.5q0 43 27 70.5t71 27.5t72 -27t28 -71t-28 -71.5t-72 -27.5zM155 0v1000h159v-1000h-159z" />
    <glyph glyph-name="Idotaccent.smcp" horiz-adv-x="469" 
d="M135 1319q0 43 27.5 70.5t70.5 27.5q44 0 72 -27.5t28 -70.5t-28 -71t-72 -28q-43 0 -70.5 27.5t-27.5 71.5zM155 0v1000h159v-1000h-159z" />
    <glyph glyph-name="Idotbelow.smcp" horiz-adv-x="469" 
d="M155 0v1000h159v-1000h-159zM233 -381q-43 0 -70.5 27.5t-27.5 71.5t27.5 71t70.5 27q44 0 72 -27.5t28 -70.5t-28 -71t-72 -28z" />
    <glyph glyph-name="Igrave.smcp" horiz-adv-x="469" 
d="M153 1156l-188 334h180l147 -334h-139zM314 0h-159v1000h159v-1000z" />
    <glyph glyph-name="Imacron.smcp" horiz-adv-x="469" 
d="M530 1374v-125h-591v125h591zM314 0h-159v1000h159v-1000z" />
    <glyph glyph-name="Iogonek.smcp" horiz-adv-x="469" 
d="M-30 -259q0 143 188 259h-3v1000h159v-1000h-5q-93 -61 -145.5 -120.5t-52.5 -106.5q0 -41 28 -64t78 -23q57 0 119 30l39 -117q-74 -46 -180 -46q-98 0 -161.5 47t-63.5 141z" />
    <glyph glyph-name="Itilde.smcp" horiz-adv-x="469" 
d="M-15 1219l-85 71q92 143 208 143q56 0 132 -41q74 -41 115 -41q40 0 68.5 18.5t62.5 62.5l82 -76q-47 -71 -96.5 -104t-115.5 -33q-57 0 -131 40q-76 39 -112 39q-37 0 -63 -17t-65 -62zM314 1000v-1000h-159v1000h159z" />
    <glyph glyph-name="J.smcp" horiz-adv-x="819" 
d="M327 -20q-92 0 -169.5 40t-129.5 113l104 108q89 -113 195 -113q91 0 140 62t49 176v634h159v-656q0 -168 -90.5 -266t-257.5 -98z" />
    <glyph glyph-name="Jcircumflex.smcp" horiz-adv-x="819" 
d="M598 1346l-156 -221h-156l275 369h73l275 -369h-156zM327 -20q-92 0 -169.5 40t-129.5 113l104 108q89 -113 195 -113q91 0 140 62t49 176v634h159v-656q0 -168 -90.5 -266t-257.5 -98z" />
    <glyph glyph-name="K.smcp" horiz-adv-x="1051" 
d="M155 0v1001h159v-505l491 508h213l-435 -427l442 -576h-202l-352 468l-157 -166v-303h-159z" />
    <glyph glyph-name="Kcommaaccent.smcp" horiz-adv-x="1051" 
d="M314 303v-303h-159v1001h159v-505l491 508h213l-435 -427l442 -576h-202l-352 468zM623 -122l-53 -391h-132l14 391h171z" />
    <glyph glyph-name="L.smcp" horiz-adv-x="942" 
d="M888 137v-137h-733v1000h159v-863h574z" />
    <glyph glyph-name="Lacute.smcp" horiz-adv-x="942" 
d="M316 1487h180l-188 -334h-139zM888 137v-137h-733v1000h159v-863h574z" />
    <glyph glyph-name="Lcaron.smcp" horiz-adv-x="942" 
d="M888 137v-137h-733v1000h159v-863h574zM703 641h-124l10 346h163z" />
    <glyph glyph-name="Lcommaaccent.smcp" horiz-adv-x="942" 
d="M888 137v-137h-733v1000h159v-863h574zM550 -513h-132l14 391h171z" />
    <glyph glyph-name="Ldot.smcp" horiz-adv-x="942" 
d="M888 0h-733v1000h159v-863h574v-137zM589 496q0 44 27.5 71.5t71.5 27.5t71.5 -27.5t27.5 -71.5q0 -43 -27.5 -70.5t-71.5 -27.5t-71.5 27.5t-27.5 70.5z" />
    <glyph glyph-name="Lslash.smcp" horiz-adv-x="1004" 
d="M376 1000v-348l289 25v-131l-289 -26v-383h574v-137h-733v506l-161 -14v132l161 14v362h159z" />
    <glyph glyph-name="M.smcp" horiz-adv-x="1373" 
d="M155 0v1000h187l345 -716l344 716h187v-1000h-159v721l-316 -649h-113l-316 649v-721h-159z" />
    <glyph glyph-name="N.smcp" horiz-adv-x="1216" 
d="M314 763v-763h-159v1000h157l590 -763v763h159v-1000h-157z" />
    <glyph glyph-name="Nacute.smcp" horiz-adv-x="1216" 
d="M680 1153h-139l147 334h180zM155 0v1000h157l590 -763v763h159v-1000h-157l-590 763v-763h-159z" />
    <glyph glyph-name="Ncaron.smcp" horiz-adv-x="1216" 
d="M590 1126l-275 369h156l154 -222l157 222h156l-275 -369h-73zM155 0v1000h157l590 -763v763h159v-1000h-157l-590 763v-763h-159z" />
    <glyph glyph-name="Ncommaaccent.smcp" horiz-adv-x="1216" 
d="M155 0v1000h157l590 -763v763h159v-1000h-157l-590 763v-763h-159zM703 -122l-53 -391h-132l14 391h171z" />
    <glyph glyph-name="Nhookleft.smcp" horiz-adv-x="1216" 
d="M-103 -393l18 134q46 -20 106 -20q134 0 134 195v1084h157l590 -763v763h159v-1000h-157l-590 763v-858q0 -155 -73 -240t-210 -85q-83 0 -134 27z" />
    <glyph glyph-name="Ntilde.smcp" horiz-adv-x="1216" 
d="M359 1219l-85 71q92 143 208 143q56 0 132 -41q74 -41 115 -41q40 0 68.5 18.5t62.5 62.5l82 -76q-47 -71 -96.5 -104t-115.5 -33q-57 0 -131 40q-76 39 -112 39q-37 0 -63 -17t-65 -62zM314 0h-159v1000h157l590 -763v763h159v-1000h-157l-590 763v-763z" />
    <glyph glyph-name="O.smcp" horiz-adv-x="1225" 
d="M612 -19q-228 0 -375 145.5t-147 373.5q0 229 146.5 374.5t375.5 145.5q231 0 377 -144.5t146 -375.5q2 -148 -67 -268.5t-190 -187t-266 -63.5zM251 500q0 -164 99 -267.5t262 -103.5q166 0 264 102t98 269t-98 269.5t-264 102.5q-165 0 -263 -103.5t-98 -268.5z" />
    <glyph glyph-name="OE.smcp" horiz-adv-x="1765" 
d="M606 -20q-228 0 -372 146t-144 374q0 227 144.5 373.5t371.5 146.5q95 0 186 -35.5t160 -98.5v114h707v-137h-548v-283h475v-135h-475v-308h562v-137h-721v114q-147 -134 -346 -134zM606 872q-160 0 -257 -105.5t-97 -266.5t97 -266.5t257 -105.5q161 0 257.5 105
t96.5 267q0 163 -96.5 267.5t-257.5 104.5z" />
    <glyph glyph-name="Oacute.smcp" horiz-adv-x="1225" 
d="M668 1153h-139l147 334h180zM90 500q0 229 146.5 374.5t375.5 145.5q231 0 377 -144.5t146 -375.5q2 -148 -67 -268.5t-190 -187t-266 -63.5q-228 0 -375 145.5t-147 373.5zM612 872q-165 0 -263 -103.5t-98 -268.5q0 -164 99 -267.5t262 -103.5q166 0 264 102t98 269
t-98 269.5t-264 102.5z" />
    <glyph glyph-name="Obreve.smcp" horiz-adv-x="1225" 
d="M341 1448h136q6 -66 43 -105.5t93 -39.5q57 0 94 39.5t42 105.5h136q-6 -120 -79.5 -194t-192.5 -74t-191.5 74t-80.5 194zM612 -19q-228 0 -375 145.5t-147 373.5q0 229 146.5 374.5t375.5 145.5q231 0 377 -144.5t146 -375.5q2 -148 -67 -268.5t-190 -187t-266 -63.5z
M612 872q-165 0 -263 -103.5t-98 -268.5q0 -164 99 -267.5t262 -103.5q166 0 264 102t98 269t-98 269.5t-264 102.5z" />
    <glyph glyph-name="Ocircumflex.smcp" horiz-adv-x="1225" 
d="M613 1346l-156 -221h-156l275 369h73l275 -369h-156zM612 -19q-228 0 -375 145.5t-147 373.5q0 229 146.5 374.5t375.5 145.5q231 0 377 -144.5t146 -375.5q2 -148 -67 -268.5t-190 -187t-266 -63.5zM612 872q-165 0 -263 -103.5t-98 -268.5q0 -164 99 -267.5t262 -103.5
q166 0 264 102t98 269t-98 269.5t-264 102.5z" />
    <glyph glyph-name="Odieresis.smcp" horiz-adv-x="1225" 
d="M788 1218q-44 0 -71.5 28t-27.5 71t27.5 70.5t71.5 27.5t72 -27q27 -28 27 -71q0 -44 -27.5 -71.5t-71.5 -27.5zM436 1218q-43 0 -70.5 27.5t-27.5 71.5q0 43 27 70.5t71 27.5t72 -27t28 -71t-28 -71.5t-72 -27.5zM90 500q0 229 146.5 374.5t375.5 145.5
q231 0 377 -144.5t146 -375.5q2 -148 -67 -268.5t-190 -187t-266 -63.5q-228 0 -375 145.5t-147 373.5zM251 500q0 -164 99 -267.5t262 -103.5q166 0 264 102t98 269t-98 269.5t-264 102.5q-165 0 -263 -103.5t-98 -268.5z" />
    <glyph glyph-name="Odotbelow.smcp" horiz-adv-x="1225" 
d="M612 -19q-228 0 -375 145.5t-147 373.5q0 229 146.5 374.5t375.5 145.5q231 0 377 -144.5t146 -375.5q2 -148 -67 -268.5t-190 -187t-266 -63.5zM251 500q0 -164 99 -267.5t262 -103.5q166 0 264 102t98 269t-98 269.5t-264 102.5q-165 0 -263 -103.5t-98 -268.5z
M612 -381q-43 0 -70.5 27.5t-27.5 71.5t27 71t71 27t72 -27.5t28 -70.5q0 -44 -28 -71.5t-72 -27.5z" />
    <glyph glyph-name="Ograve.smcp" horiz-adv-x="1225" 
d="M679 1156h-139l-188 334h180zM612 -19q-228 0 -375 145.5t-147 373.5q0 229 146.5 374.5t375.5 145.5q231 0 377 -144.5t146 -375.5q2 -148 -67 -268.5t-190 -187t-266 -63.5zM251 500q0 -164 99 -267.5t262 -103.5q166 0 264 102t98 269t-98 269.5t-264 102.5
q-165 0 -263 -103.5t-98 -268.5z" />
    <glyph glyph-name="Ohungarumlaut.smcp" horiz-adv-x="1225" 
d="M1018 1487l-188 -334h-139l147 334h180zM501 1153h-139l147 334h180zM612 -19q-228 0 -375 145.5t-147 373.5q0 229 146.5 374.5t375.5 145.5q231 0 377 -144.5t146 -375.5q2 -148 -67 -268.5t-190 -187t-266 -63.5zM612 872q-165 0 -263 -103.5t-98 -268.5
q0 -164 99 -267.5t262 -103.5q166 0 264 102t98 269t-98 269.5t-264 102.5z" />
    <glyph glyph-name="Omacron.smcp" horiz-adv-x="1225" 
d="M317 1249v125h591v-125h-591zM90 500q0 229 146.5 374.5t375.5 145.5q231 0 377 -144.5t146 -375.5q2 -148 -67 -268.5t-190 -187t-266 -63.5q-228 0 -375 145.5t-147 373.5zM612 872q-165 0 -263 -103.5t-98 -268.5q0 -164 99 -267.5t262 -103.5q166 0 264 102t98 269
t-98 269.5t-264 102.5z" />
    <glyph glyph-name="Oogonek.smcp" horiz-adv-x="1225" 
d="M578 -18q-216 12 -352 157t-136 361q0 229 146.5 374.5t375.5 145.5q231 0 377 -144.5t146 -375.5q0 -185 -102.5 -321.5t-280.5 -180.5q-91 -60 -142.5 -119t-51.5 -106q0 -41 28 -64t78 -23q58 0 119 30l39 -117q-74 -46 -180 -46q-98 0 -161.5 47t-63.5 141
q0 130 161 241zM251 500q0 -164 99 -267.5t262 -103.5q166 0 264 102t98 269t-98 269.5t-264 102.5q-165 0 -263 -103.5t-98 -268.5z" />
    <glyph glyph-name="Oslash.smcp" horiz-adv-x="1225" 
d="M891 948l141 174l105 -85l-140 -172q138 -144 138 -365q2 -148 -67 -268.5t-190 -187t-266 -63.5q-152 0 -277 72l-143 -175l-103 83l141 174q-140 143 -140 365q0 229 146.5 374.5t375.5 145.5q156 0 279 -72zM329 256l466 574q-83 42 -183 42q-165 0 -263 -103.5
t-98 -268.5q0 -146 78 -244zM898 744l-467 -573q81 -42 181 -42q166 0 264 102t98 269q0 147 -76 244z" />
    <glyph glyph-name="Oslashacute.smcp" horiz-adv-x="1225" 
d="M858 1487l-188 -334h-139l147 334h180zM335 53l-143 -175l-103 83l141 174q-140 143 -140 365q0 229 146.5 374.5t375.5 145.5q156 0 279 -72l141 174l105 -85l-140 -172q138 -144 138 -365q2 -148 -67 -268.5t-190 -187t-266 -63.5q-152 0 -277 72zM329 256l466 574
q-83 42 -183 42q-165 0 -263 -103.5t-98 -268.5q0 -146 78 -244zM898 744l-467 -573q81 -42 181 -42q166 0 264 102t98 269q0 147 -76 244z" />
    <glyph glyph-name="Otilde.smcp" horiz-adv-x="1225" 
d="M364 1219l-85 71q92 143 208 143q56 0 132 -41q74 -41 115 -41q40 0 68.5 18.5t62.5 62.5l82 -76q-47 -71 -96.5 -104t-115.5 -33q-57 0 -131 40q-76 39 -112 39q-37 0 -63 -17t-65 -62zM612 -19q-228 0 -375 145.5t-147 373.5q0 229 146.5 374.5t375.5 145.5
q231 0 377 -144.5t146 -375.5q2 -148 -67 -268.5t-190 -187t-266 -63.5zM251 500q0 -164 99 -267.5t262 -103.5q166 0 264 102t98 269t-98 269.5t-264 102.5q-165 0 -263 -103.5t-98 -268.5z" />
    <glyph glyph-name="P.smcp" horiz-adv-x="986" 
d="M314 373v-373h-159v999h421q153 0 248.5 -82t95.5 -232q0 -148 -96.5 -230t-247.5 -82h-262zM571 863h-257v-356h257q90 0 140 48t50 130q0 84 -50 131t-140 47z" />
    <glyph glyph-name="Q.alt" horiz-adv-x="1584" 
d="M792 -20q-200 0 -359.5 90t-248 249.5t-88.5 359.5q0 150 51 279t141.5 221.5t221 145t282.5 52.5q200 0 358.5 -87.5t248 -247.5t89.5 -363q0 -208 -98.5 -376.5t-281.5 -254.5l339 -305l-110 -118l-406 366l1 1q-68 -12 -140 -12zM1315 679q0 239 -143 391.5
t-380 152.5t-380 -153t-143 -391q0 -156 63.5 -279.5t183.5 -194.5t276 -71q237 0 380 153.5t143 391.5z" />
    <glyph glyph-name="Q.alt.smcp" horiz-adv-x="1217" 
d="M612 -19q-228 0 -375 145.5t-147 373.5q0 229 146.5 374.5t375.5 145.5q231 0 377 -144.5t146 -375.5q0 -157 -75 -282.5t-215 -187.5l272 -247l-94 -104l-343 306q-25 -4 -68 -4zM612 872q-165 0 -263 -103.5t-98 -268.5q0 -164 99 -267.5t262 -103.5q166 0 264 102
t98 269t-98 269.5t-264 102.5z" />
    <glyph glyph-name="Q.smcp" horiz-adv-x="1225" 
d="M609 -19q-228 0 -375 145.5t-147 373.5q0 229 146.5 374.5t375.5 145.5q231 0 377 -144.5t146 -375.5q0 -122 -45 -224.5t-129 -172.5l120 -161l-115 -85l-128 170q-102 -46 -226 -46zM248 500q0 -164 99 -267.5t262 -103.5q73 0 133 21l-134 179l118 85l140 -188
q105 104 105 274q0 167 -98 269.5t-264 102.5q-165 0 -263 -103.5t-98 -268.5z" />
    <glyph glyph-name="R.smcp" horiz-adv-x="1036" 
d="M155 0v1000h440q151 0 248 -78.5t97 -226.5q0 -103 -55 -177.5t-153 -107.5l245 -410h-179l-230 390h-254v-390h-159zM591 866h-277v-344h277q91 0 140 46t49 127t-49 126t-140 45z" />
    <glyph glyph-name="Racute.smcp" horiz-adv-x="1036" 
d="M748 1487l-188 -334h-139l147 334h180zM314 0h-159v1000h440q151 0 248 -78.5t97 -226.5q0 -103 -55 -177.5t-153 -107.5l245 -410h-179l-230 390h-254v-390zM591 866h-277v-344h277q91 0 140 46t49 127t-49 126t-140 45z" />
    <glyph glyph-name="Rcaron.smcp" horiz-adv-x="1036" 
d="M551 1126h-73l-275 369h156l154 -222l157 222h156zM314 0h-159v1000h440q151 0 248 -78.5t97 -226.5q0 -103 -55 -177.5t-153 -107.5l245 -410h-179l-230 390h-254v-390zM591 866h-277v-344h277q91 0 140 46t49 127t-49 126t-140 45z" />
    <glyph glyph-name="Rcommaaccent.smcp" horiz-adv-x="1036" 
d="M314 0h-159v1000h440q151 0 248 -78.5t97 -226.5q0 -103 -55 -177.5t-153 -107.5l245 -410h-179l-230 390h-254v-390zM591 866h-277v-344h277q91 0 140 46t49 127t-49 126t-140 45zM623 -122l-53 -391h-132l14 391h171z" />
    <glyph glyph-name="S.smcp" horiz-adv-x="957" 
d="M84 213l130 87q93 -172 284 -172q91 0 148.5 34t57.5 90q0 53 -48 89q-47 36 -173 87l-55 22q-12 5 -31 12t-25 10q-47 20 -78 35.5t-66 40t-55.5 51.5t-34 66.5t-13.5 87.5q0 66 33 119t86.5 84t114.5 47.5t123 16.5q116 0 215.5 -52.5t153.5 -149.5l-115 -89
q-40 65 -106 104t-148 39q-91 0 -144 -31.5t-53 -87.5q0 -32 16 -59q11 -22 49.5 -43.5t75.5 -34.5q9 -4 48.5 -19.5t56.5 -22.5q13 -5 32 -13t31 -13t21 -9q40 -18 72 -34q43 -22 63 -37q65 -51 87.5 -92t26.5 -124q0 -69 -33.5 -123.5t-88 -85.5t-117 -47t-127.5 -16
q-134 0 -245.5 59.5t-168.5 173.5z" />
    <glyph glyph-name="Sacute.smcp" horiz-adv-x="957" 
d="M545 1153h-139l147 334h180zM84 213l130 87q93 -172 284 -172q91 0 148.5 34t57.5 90q0 53 -48 89q-47 36 -173 87l-55 22q-12 5 -31 12t-25 10q-47 20 -78 35.5t-66 40t-55.5 51.5t-34 66.5t-13.5 87.5q0 66 33 119t86.5 84t114.5 47.5t123 16.5q116 0 215.5 -52.5
t153.5 -149.5l-115 -89q-40 65 -106 104t-148 39q-91 0 -144 -31.5t-53 -87.5q0 -32 16 -59q11 -22 49.5 -43.5t75.5 -34.5q9 -4 48.5 -19.5t56.5 -22.5q13 -5 32 -13t31 -13t21 -9q40 -18 72 -34q43 -22 63 -37q65 -51 87.5 -92t26.5 -124q0 -69 -33.5 -123.5t-88 -85.5
t-117 -47t-127.5 -16q-134 0 -245.5 59.5t-168.5 173.5z" />
    <glyph glyph-name="Scaron.smcp" horiz-adv-x="957" 
d="M523 1126h-73l-275 369h156l154 -222l157 222h156zM84 213l130 87q93 -172 284 -172q91 0 148.5 34t57.5 90q0 53 -48 89q-47 36 -173 87l-55 22q-12 5 -31 12t-25 10q-47 20 -78 35.5t-66 40t-55.5 51.5t-34 66.5t-13.5 87.5q0 66 33 119t86.5 84t114.5 47.5t123 16.5
q116 0 215.5 -52.5t153.5 -149.5l-115 -89q-40 65 -106 104t-148 39q-91 0 -144 -31.5t-53 -87.5q0 -32 16 -59q11 -22 49.5 -43.5t75.5 -34.5q9 -4 48.5 -19.5t56.5 -22.5q13 -5 32 -13t31 -13t21 -9q40 -18 72 -34q43 -22 63 -37q65 -51 87.5 -92t26.5 -124
q0 -69 -33.5 -123.5t-88 -85.5t-117 -47t-127.5 -16q-134 0 -245.5 59.5t-168.5 173.5z" />
    <glyph glyph-name="Scedilla.smcp" horiz-adv-x="957" 
d="M84 213l130 87q93 -172 284 -172q91 0 148.5 34t57.5 90q0 53 -48 89q-47 36 -173 87l-55 22q-12 5 -31 12t-25 10q-47 20 -78 35.5t-66 40t-55.5 51.5t-34 66.5t-13.5 87.5q0 66 33 119t86.5 84t114.5 47.5t123 16.5q116 0 215.5 -52.5t153.5 -149.5l-115 -89
q-40 65 -106 104t-148 39q-91 0 -144 -31.5t-53 -87.5q0 -32 16 -59q11 -22 49.5 -43.5t75.5 -34.5q9 -4 48.5 -19.5t56.5 -22.5q13 -5 32 -13t31 -13t21 -9q40 -18 72 -34q43 -22 63 -37q65 -51 87.5 -92t26.5 -124q0 -67 -31 -120t-82 -84.5t-110.5 -48.5t-122.5 -19
l-25 -77q94 -7 149 -51t55 -115q0 -86 -69 -135t-190 -49q-81 0 -135 20v114q54 -19 124 -19q128 0 128 70q0 75 -146 75h-59l65 173q-112 16 -199 75.5t-132 151.5z" />
    <glyph glyph-name="Schwa.smcp" horiz-adv-x="1174" 
d="M580 -20q-128 0 -231.5 46.5t-165.5 128.5q-62 81 -85.5 186.5t-3.5 218.5h819q-16 148 -110.5 239.5t-241.5 91.5q-103 0 -193 -48t-152 -137l-125 91q78 116 203.5 179.5t268.5 63.5q150 0 269.5 -71t185.5 -194t66 -275q0 -147 -63 -265t-178.5 -186.5t-262.5 -68.5z
M912 425h-667q8 -142 97 -218.5t233 -76.5q140 0 233 79t104 216z" />
    <glyph glyph-name="Scircumflex.smcp" horiz-adv-x="957" 
d="M333 1125h-156l275 369h73l275 -369h-156l-155 221zM84 213l130 87q93 -172 284 -172q91 0 148.5 34t57.5 90q0 53 -48 89q-47 36 -173 87l-55 22q-12 5 -31 12t-25 10q-47 20 -78 35.5t-66 40t-55.5 51.5t-34 66.5t-13.5 87.5q0 66 33 119t86.5 84t114.5 47.5t123 16.5
q116 0 215.5 -52.5t153.5 -149.5l-115 -89q-40 65 -106 104t-148 39q-91 0 -144 -31.5t-53 -87.5q0 -32 16 -59q11 -22 49.5 -43.5t75.5 -34.5q9 -4 48.5 -19.5t56.5 -22.5q13 -5 32 -13t31 -13t21 -9q40 -18 72 -34q43 -22 63 -37q65 -51 87.5 -92t26.5 -124
q0 -69 -33.5 -123.5t-88 -85.5t-117 -47t-127.5 -16q-134 0 -245.5 59.5t-168.5 173.5z" />
    <glyph glyph-name="Scommaaccent.smcp" horiz-adv-x="957" 
d="M84 213l130 87q93 -172 284 -172q91 0 148.5 34t57.5 90q0 53 -48 89q-47 36 -173 87l-55 22q-12 5 -31 12t-25 10q-47 20 -78 35.5t-66 40t-55.5 51.5t-34 66.5t-13.5 87.5q0 66 33 119t86.5 84t114.5 47.5t123 16.5q116 0 215.5 -52.5t153.5 -149.5l-115 -89
q-40 65 -106 104t-148 39q-91 0 -144 -31.5t-53 -87.5q0 -32 16 -59q11 -22 49.5 -43.5t75.5 -34.5q9 -4 48.5 -19.5t56.5 -22.5q13 -5 32 -13t31 -13t21 -9q40 -18 72 -34q43 -22 63 -37q65 -51 87.5 -92t26.5 -124q0 -69 -33.5 -123.5t-88 -85.5t-117 -47t-127.5 -16
q-134 0 -245.5 59.5t-168.5 173.5zM578 -122l-53 -391h-132l14 391h171z" />
    <glyph glyph-name="T.smcp" horiz-adv-x="903" 
d="M372 862h-322v138h803v-138h-322v-862h-159v862z" />
    <glyph glyph-name="Tbar.smcp" horiz-adv-x="945" 
d="M393 862h-322v138h803v-138h-322v-279h263v-132h-263v-451h-159v451h-263v132h263v279z" />
    <glyph glyph-name="Tcaron.smcp" horiz-adv-x="903" 
d="M415 1126l-275 369h156l154 -222l157 222h156l-275 -369h-73zM372 0v862h-322v138h803v-138h-322v-862h-159z" />
    <glyph glyph-name="Tcommaaccent.smcp" horiz-adv-x="903" 
d="M372 0v862h-322v138h803v-138h-322v-862h-159zM478 -513h-132l14 391h171z" />
    <glyph glyph-name="Thorn.smcp" horiz-adv-x="1069" 
d="M314 0h-159v1000h159v-151h297q166 0 265.5 -92.5t99.5 -256.5q0 -159 -102.5 -254t-262.5 -95h-297v-151zM599 711h-285v-423h285q95 0 154 59t59 153q0 98 -57.5 154.5t-155.5 56.5z" />
    <glyph glyph-name="U.smcp" horiz-adv-x="1152" 
d="M1008 359q0 -180 -124 -279.5t-309 -99.5t-308 99.5t-123 279.5v641h159v-626q0 -117 76 -181.5t196 -64.5t196.5 64.5t76.5 181.5v626h160v-641z" />
    <glyph glyph-name="Uacute.smcp" horiz-adv-x="1152" 
d="M630 1153h-139l147 334h180zM144 359v641h159v-626q0 -117 76 -181.5t196 -64.5t196.5 64.5t76.5 181.5v626h160v-641q0 -180 -124 -279.5t-309 -99.5t-308 99.5t-123 279.5z" />
    <glyph glyph-name="Ubreve.smcp" horiz-adv-x="1152" 
d="M848 1448q-6 -120 -79.5 -194t-192.5 -74t-191.5 74t-80.5 194h136q6 -66 43 -105.5t93 -39.5q57 0 94 39.5t42 105.5h136zM144 359v641h159v-626q0 -117 76 -181.5t196 -64.5t196.5 64.5t76.5 181.5v626h160v-641q0 -180 -124 -279.5t-309 -99.5t-308 99.5t-123 279.5z
" />
    <glyph glyph-name="Ucircumflex.smcp" horiz-adv-x="1152" 
d="M577 1346l-156 -221h-156l275 369h73l275 -369h-156zM144 359v641h159v-626q0 -117 76 -181.5t196 -64.5t196.5 64.5t76.5 181.5v626h160v-641q0 -180 -124 -279.5t-309 -99.5t-308 99.5t-123 279.5z" />
    <glyph glyph-name="Udieresis.smcp" horiz-adv-x="1152" 
d="M851 1317q0 -44 -27.5 -71.5t-71.5 -27.5t-71.5 28t-27.5 71t27.5 70.5t71.5 27.5t72 -27q27 -28 27 -71zM400 1218q-43 0 -70.5 27.5t-27.5 71.5q0 43 27 70.5t71 27.5t72 -27t28 -71t-28 -71.5t-72 -27.5zM144 359v641h159v-626q0 -117 76 -181.5t196 -64.5t196.5 64.5
t76.5 181.5v626h160v-641q0 -180 -124 -279.5t-309 -99.5t-308 99.5t-123 279.5z" />
    <glyph glyph-name="Udotbelow.smcp" horiz-adv-x="1152" 
d="M1008 359q0 -180 -124 -279.5t-309 -99.5t-308 99.5t-123 279.5v641h159v-626q0 -117 76 -181.5t196 -64.5t196.5 64.5t76.5 181.5v626h160v-641zM575 -381q-43 0 -70.5 27.5t-27.5 71.5t27.5 71t70.5 27q44 0 72 -27.5t28 -70.5t-28 -71t-72 -28z" />
    <glyph glyph-name="Ugrave.smcp" horiz-adv-x="1152" 
d="M510 1156l-188 334h180l147 -334h-139zM144 359v641h159v-626q0 -117 76 -181.5t196 -64.5t196.5 64.5t76.5 181.5v626h160v-641q0 -180 -124 -279.5t-309 -99.5t-308 99.5t-123 279.5z" />
    <glyph glyph-name="Uhungarumlaut.smcp" horiz-adv-x="1152" 
d="M791 1153h-139l147 334h180zM471 1153h-139l147 334h180zM1008 359q0 -180 -124 -279.5t-309 -99.5t-308 99.5t-123 279.5v641h159v-626q0 -117 76 -181.5t196 -64.5t196.5 64.5t76.5 181.5v626h160v-641z" />
    <glyph glyph-name="Umacron.smcp" horiz-adv-x="1152" 
d="M872 1374v-125h-591v125h591zM144 359v641h159v-626q0 -117 76 -181.5t196 -64.5t196.5 64.5t76.5 181.5v626h160v-641q0 -180 -124 -279.5t-309 -99.5t-308 99.5t-123 279.5z" />
    <glyph glyph-name="Uogonek.smcp" horiz-adv-x="1152" 
d="M144 359v641h159v-626q0 -117 76 -181.5t196 -64.5t196.5 64.5t76.5 181.5v626h160v-641q0 -134 -74 -228.5t-204 -130.5h1q-93 -61 -145.5 -120.5t-52.5 -106.5q0 -41 28 -64t78 -23q57 0 119 30l39 -117q-74 -46 -180 -46q-98 0 -161.5 47t-63.5 141q0 129 158 239
q-115 5 -205.5 48.5t-145.5 129t-55 201.5z" />
    <glyph glyph-name="Uring.smcp" horiz-adv-x="1152" 
d="M364 1330q0 90 60.5 146.5t151.5 56.5t151.5 -56.5t60.5 -146.5q0 -89 -61 -144.5t-151 -55.5t-151 55.5t-61 144.5zM473 1330q0 -44 28.5 -72t74.5 -28q45 0 73.5 28t28.5 72q0 45 -28.5 74.5t-73.5 29.5t-74 -29.5t-29 -74.5zM1008 359q0 -180 -124 -279.5t-309 -99.5
t-308 99.5t-123 279.5v641h159v-626q0 -117 76 -181.5t196 -64.5t196.5 64.5t76.5 181.5v626h160v-641z" />
    <glyph glyph-name="Utilde.smcp" horiz-adv-x="1152" 
d="M327 1219l-85 71q92 143 208 143q56 0 132 -41q74 -41 115 -41q40 0 68.5 18.5t62.5 62.5l82 -76q-47 -71 -96.5 -104t-115.5 -33q-57 0 -131 40q-77 39 -112 39q-37 0 -63 -17t-65 -62zM144 359v641h159v-626q0 -117 76 -181.5t196 -64.5t196.5 64.5t76.5 181.5v626h160
v-641q0 -180 -124 -279.5t-309 -99.5t-308 99.5t-123 279.5z" />
    <glyph glyph-name="V.smcp" horiz-adv-x="1067" 
d="M434 0l-395 1000h170l325 -839l327 839h168l-394 -1000h-201z" />
    <glyph glyph-name="W.smcp" horiz-adv-x="1574" 
d="M347 0l-299 1000h164l244 -816l257 808h148l257 -808l244 816h164l-299 -1000h-208l-232 723l-232 -723h-208z" />
    <glyph glyph-name="Wacute.smcp" horiz-adv-x="1574" 
d="M1068 1487l-188 -334h-139l147 334h180zM555 0h-208l-299 1000h164l244 -816l257 808h148l257 -808l244 816h164l-299 -1000h-208l-232 723z" />
    <glyph glyph-name="Wcircumflex.smcp" horiz-adv-x="1574" 
d="M632 1125h-156l275 369h73l275 -369h-156l-155 221zM347 0l-299 1000h164l244 -816l257 808h148l257 -808l244 816h164l-299 -1000h-208l-232 723l-232 -723h-208z" />
    <glyph glyph-name="Wdieresis.smcp" horiz-adv-x="1574" 
d="M1062 1317q0 -43 -28 -71t-71 -28t-71 28t-28 71t27.5 70.5t71.5 27.5q43 0 72 -27q27 -28 27 -71zM513 1317q0 43 27.5 70.5t70.5 27.5q44 0 72 -27.5t28 -70.5t-28 -71t-72 -28q-43 0 -70.5 27.5t-27.5 71.5zM555 0h-208l-299 1000h164l244 -816l257 808h148l257 -808
l244 816h164l-299 -1000h-208l-232 723z" />
    <glyph glyph-name="Wgrave.smcp" horiz-adv-x="1574" 
d="M830 1156h-139l-188 334h180zM347 0l-299 1000h164l244 -816l257 808h148l257 -808l244 816h164l-299 -1000h-208l-232 723l-232 -723h-208z" />
    <glyph glyph-name="X.smcp" horiz-adv-x="1030" 
d="M515 392l-293 -392h-191l388 513l-369 487h189l276 -367l276 367h190l-370 -487l389 -513h-191z" />
    <glyph glyph-name="Y.smcp" horiz-adv-x="1022" 
d="M433 0v391l-395 609h179l294 -455l294 455h179l-394 -608v-392h-157z" />
    <glyph glyph-name="Yacute.smcp" horiz-adv-x="1022" 
d="M570 1153h-139l147 334h180zM433 0v391l-395 609h179l294 -455l294 455h179l-394 -608v-392h-157z" />
    <glyph glyph-name="Ycircumflex.smcp" horiz-adv-x="1022" 
d="M356 1125h-156l275 369h73l275 -369h-156l-155 221zM433 0v391l-395 609h179l294 -455l294 455h179l-394 -608v-392h-157z" />
    <glyph glyph-name="Ydieresis.smcp" horiz-adv-x="1022" 
d="M687 1218q-43 0 -71 28t-28 71t27.5 70.5t71.5 27.5q43 0 72 -27q27 -28 27 -71t-28 -71t-71 -28zM335 1218q-43 0 -70.5 27.5t-27.5 71.5q0 43 27.5 70.5t70.5 27.5q44 0 72 -27.5t28 -70.5t-28 -71t-72 -28zM433 391l-395 609h179l294 -455l294 455h179l-394 -608v-392
h-157v391z" />
    <glyph glyph-name="Ygrave.smcp" horiz-adv-x="1022" 
d="M579 1156h-139l-188 334h180zM433 0v391l-395 609h179l294 -455l294 455h179l-394 -608v-392h-157z" />
    <glyph glyph-name="Ymacron.smcp" horiz-adv-x="1022" 
d="M216 1249v125h591v-125h-591zM433 0v391l-395 609h179l294 -455l294 455h179l-394 -608v-392h-157z" />
    <glyph glyph-name="Ytilde.smcp" horiz-adv-x="1022" 
d="M262 1219l-85 71q92 143 208 143q56 0 132 -41q74 -41 115 -41q40 0 68.5 18.5t62.5 62.5l82 -76q-47 -71 -96.5 -104t-115.5 -33q-57 0 -131 40q-76 39 -112 39q-37 0 -63 -17t-65 -62zM433 0v391l-395 609h179l294 -455l294 455h179l-394 -608v-392h-157z" />
    <glyph glyph-name="Z.smcp" horiz-adv-x="980" 
d="M92 0v122l588 741h-581v137h781v-125l-587 -738h595v-137h-796z" />
    <glyph glyph-name="Zacute.smcp" horiz-adv-x="980" 
d="M534 1487h180l-188 -334h-139zM92 0v122l588 741h-581v137h781v-125l-587 -738h595v-137h-796z" />
    <glyph glyph-name="Zcaron.smcp" horiz-adv-x="980" 
d="M460 1126l-275 369h156l154 -222l157 222h156l-275 -369h-73zM888 137v-137h-796v122l588 741h-581v137h781v-125l-587 -738h595z" />
    <glyph glyph-name="Zdotaccent.smcp" horiz-adv-x="980" 
d="M388 1319q0 43 27 70.5t71 27.5t72 -27t28 -71t-28 -71.5t-72 -27.5q-43 0 -70.5 27.5t-27.5 71.5zM92 0v122l588 741h-581v137h781v-125l-587 -738h595v-137h-796z" />
    <glyph glyph-name="ampersand.smcp" horiz-adv-x="1060" 
d="M462 -20q-166 0 -273 81q-107 80 -107 207q0 162 218 269q-66 59 -94 111.5t-28 115.5q0 62 26 112t69.5 81t98 47t114.5 16q118 0 202 -67t84 -182q0 -155 -247 -268l238 -224q30 47 30 143q0 45 -11 124h143q8 -64 8 -121q0 -141 -69 -235l199 -190h-201l-94 87
q-128 -107 -306 -107zM488 895q-67 0 -116 -32t-49 -95q0 -49 26 -87q24 -35 84 -89q194 86 194 178q0 56 -39 90.5t-100 34.5zM463 111q129 0 211 67l-291 268l-1 -1h2q-47 -22 -75.5 -41t-52 -54.5t-23.5 -81.5q0 -54 39 -91.5t88.5 -51.5t102.5 -14z" />
    <glyph glyph-name="approxequal.onum" horiz-adv-x="1198" 
d="M210 626l-97 121q147 144 295 144q113 0 199 -53q84 -53 178 -53q51 0 94 21t99 69l97 -121q-147 -144 -295 -144q-113 0 -196 54q-86 53 -181 53q-86 0 -193 -91zM220 182l-97 121q147 144 295 144q113 0 199 -53q84 -53 178 -53q51 0 94 21t99 69l97 -121
q-147 -144 -295 -144q-113 0 -196 54q-86 53 -181 53q-86 0 -193 -91z" />
    <glyph glyph-name="approxequal.onum.tnum" 
d="M276 626l-97 121q147 144 294 144q113 0 199 -53t179 -53q51 0 93 20.5t99 69.5l97 -121q-147 -144 -294 -144q-112 0 -197 54q-86 53 -180 53q-87 0 -193 -91zM286 182l-97 121q147 144 294 144q113 0 199 -53t179 -53q51 0 93 20.5t99 69.5l97 -121
q-147 -144 -294 -144q-112 0 -197 54q-86 53 -180 53q-87 0 -193 -91z" />
    <glyph glyph-name="approxequal.tnum" 
d="M276 769l-97 121q147 144 295 144q113 0 199 -53q84 -53 178 -53q51 0 94 21t99 69l97 -121q-147 -144 -295 -144q-113 0 -196 54q-86 53 -181 53q-86 0 -193 -91zM286 325l-97 121q147 144 295 144q113 0 199 -53q84 -53 178 -53q51 0 94 21t99 69l97 -121
q-147 -144 -295 -144q-113 0 -196 54q-86 53 -181 53q-86 0 -193 -91z" />
    <glyph glyph-name="cent.onum" horiz-adv-x="1147" 
d="M550 62q-127 15 -228 83.5t-157.5 177t-56.5 235.5q0 193 125.5 333t316.5 163v167h131v-167q124 -14 222 -79.5t154 -172.5l-127 -78q-89 153 -249 181v-693q77 13 141.5 59t103.5 116l127 -78q-53 -104 -153 -169t-219 -78v-182h-131v182zM267 558q0 -129 78 -226
t205 -120v692q-125 -23 -204 -120.5t-79 -225.5z" />
    <glyph glyph-name="cent.onum.tnum" 
d="M623 63q-189 27 -310.5 165.5t-121.5 329.5q0 190 122 329t310 166v168h131v-166q127 -12 228 -78t158 -175l-127 -78q-92 158 -259 182v-696q81 12 148 59t107 118l127 -78q-54 -105 -157.5 -170.5t-224.5 -77.5v-181h-131v183zM350 558q0 -126 75 -222t198 -122v688
q-122 -28 -197.5 -123.5t-75.5 -220.5z" />
    <glyph glyph-name="cent.tnum" 
d="M262 678q0 191 121 330t310 164v169h131v-165q128 -12 229 -78.5t158 -175.5l-127 -78q-92 159 -260 182v-696q81 12 148.5 58.5t107.5 118.5l127 -78q-54 -106 -157 -171t-226 -77v-181h-131v184q-188 25 -309.5 164.5t-121.5 329.5zM421 678q0 -126 75 -222.5
t197 -121.5v687q-121 -26 -196.5 -122.5t-75.5 -220.5z" />
    <glyph glyph-name="currency.onum" horiz-adv-x="1181" 
d="M266 748l-177 174l112 111l173 -173q106 65 214 65q113 0 220 -65l172 173l110 -111l-176 -173q65 -97 65 -210q0 -108 -68 -214l181 -178l-112 -110l-179 179q-102 -60 -213 -60q-108 0 -208 61l-181 -180l-110 110l180 178q-66 101 -66 214q0 111 63 209zM338 538
q0 -102 73.5 -171.5t175.5 -69.5q104 0 180.5 69t76.5 172q0 106 -75.5 177t-181.5 71q-104 0 -176.5 -72t-72.5 -176z" />
    <glyph glyph-name="currency.onum.tnum" 
d="M454 218l-181 -180l-111 110l180 177q-66 104 -66 214q0 108 63 210l-176 173l111 112l173 -173q107 65 215 65q112 0 219 -66l172 173l110 -111l-175 -173q64 -94 64 -210q0 -109 -68 -213l182 -178l-113 -111l-179 180q-101 -61 -212 -61q-107 0 -208 62zM411 539
q0 -101 74 -171t176 -70q104 0 180 69t76 172q0 105 -75 176.5t-181 71.5q-105 0 -177.5 -71.5t-72.5 -176.5z" />
    <glyph glyph-name="currency.tnum" 
d="M455 337l-181 -180l-111 110l180 177q-66 104 -66 214q0 108 63 210l-176 173l111 112l173 -173q107 65 215 65q113 0 219 -66l172 173l110 -111l-175 -173q64 -94 64 -210q0 -109 -68 -213l182 -178l-113 -111l-179 180q-101 -61 -212 -61q-107 0 -208 62zM412 658
q0 -101 74 -171t176 -70q104 0 180 69t76 172q0 105 -75 176.5t-181 71.5q-105 0 -177.5 -71.5t-72.5 -176.5z" />
    <glyph glyph-name="degree.onum" horiz-adv-x="914" 
d="M456 478q-153 0 -254 98t-101 250q0 153 101 252.5t254 99.5q154 0 255.5 -99t101.5 -253q0 -153 -101.5 -250.5t-255.5 -97.5zM235 825q0 -96 62.5 -160t158.5 -64t157 64t61 160q0 97 -60.5 163t-157.5 66t-159 -65.5t-62 -163.5z" />
    <glyph glyph-name="degree.onum.tnum" 
d="M664 478q-153 0 -254 98t-101 250q0 153 101 252.5t254 99.5q154 0 255.5 -99t101.5 -253q0 -153 -101.5 -250.5t-255.5 -97.5zM443 825q0 -96 62.5 -160t158.5 -64t157 64t61 160q0 97 -60.5 163t-157.5 66t-159 -65.5t-62 -163.5z" />
    <glyph glyph-name="degree.tnum" 
d="M664 678q-153 0 -254 98t-101 250q0 153 101 252.5t254 99.5q154 0 255.5 -99t101.5 -253q0 -153 -101.5 -250.5t-255.5 -97.5zM443 1025q0 -96 62.5 -160t158.5 -64t157 64t61 160q0 97 -60.5 163t-157.5 66t-159 -65.5t-62 -163.5z" />
    <glyph glyph-name="divide.onum" horiz-adv-x="1237" 
d="M723 940q0 -44 -27.5 -71.5t-71.5 -27.5t-71 28q-28 27 -28 71q0 43 27.5 70.5t71.5 27.5t71.5 -27.5t27.5 -70.5zM105 457v158h1027v-158h-1027zM525 138q0 44 27.5 71.5t71.5 27.5t71.5 -27.5t27.5 -71.5q0 -43 -27.5 -70.5t-71.5 -27.5t-71.5 27.5t-27.5 70.5z" />
    <glyph glyph-name="divide.onum.tnum" 
d="M766 939q0 -43 -28 -70.5t-72 -27.5t-71 27.5t-27 70.5q0 44 27.5 71.5t70.5 27.5q44 0 72 -28t28 -71zM151 457v158h1027v-158h-1027zM596 67q-28 27 -28 71t27 71t71 27t72 -27t28 -71t-28 -71.5t-72 -27.5q-43 0 -70 28z" />
    <glyph glyph-name="divide.tnum" 
d="M765 1081q0 -43 -27.5 -70.5t-71.5 -27.5t-71 28q-28 27 -28 70t27.5 71t71.5 28t71.5 -27.5t27.5 -71.5zM151 600v158h1027v-158h-1027zM567 280q0 43 27.5 70.5t71.5 27.5t71.5 -27.5t27.5 -70.5q0 -44 -27.5 -71.5t-71.5 -27.5t-71.5 27.5t-27.5 71.5z" />
    <glyph glyph-name="dollar.onum" horiz-adv-x="1030" 
d="M451 -161v144q-113 16 -211.5 83t-141.5 166l130 80q72 -149 223 -180v355q-52 17 -91 33t-82.5 42t-71 56.5t-46 75t-18.5 97.5q0 124 90 200.5t219 91.5v130h131v-131q110 -15 192.5 -71t126.5 -139l-124 -90q-30 54 -81 94.5t-114 55.5v-329q86 -29 149 -57
q95 -44 140 -104t49 -161q0 -67 -29 -122.5t-77.5 -91.5t-107.5 -58t-124 -28v-142h-131zM304 793q0 -52 37.5 -87t109.5 -61v290q-65 -13 -106 -51t-41 -91zM582 129q69 11 122.5 50t53.5 101q0 35 -15 62.5t-44.5 47.5t-54.5 31.5t-62 24.5v-317z" />
    <glyph glyph-name="dollar.onum.tnum" 
d="M620 -161v144q-113 16 -211.5 83t-141.5 166l130 80q72 -149 223 -180v355q-52 17 -91 33t-82.5 42t-71 56.5t-46 75t-18.5 97.5q0 124 90 200.5t219 91.5v130h131v-131q110 -15 192.5 -71t126.5 -139l-124 -90q-30 54 -81 94.5t-114 55.5v-329q86 -29 149 -57
q95 -44 140 -104t49 -161q0 -67 -29 -122.5t-77.5 -91.5t-107.5 -58t-124 -28v-142h-131zM473 793q0 -52 37.5 -87t109.5 -61v290q-65 -13 -106 -51t-41 -91zM751 129q69 11 122.5 50t53.5 101q0 35 -15 62.5t-44.5 47.5t-54.5 31.5t-62 24.5v-317z" />
    <glyph glyph-name="dollar.tnum" 
d="M145 273l124 89q111 -197 326 -227v491q-48 17 -81.5 30.5t-78.5 35t-76 42.5t-64 51t-53 63t-33 76t-13 92q0 81 33.5 148t90 110.5t127 69.5t148.5 32v160h131v-164q124 -16 225.5 -81.5t163.5 -171.5l-129 -94q-101 159 -260 193v-460q54 -20 87.5 -32.5t84 -36
t81.5 -44.5t67.5 -53t57 -66.5t34.5 -81t14 -99.5q0 -146 -119 -247t-307 -116v-158h-131v159q-146 15 -269 90t-181 200zM368 1018q0 -76 54 -123q55 -47 173 -92v422q-95 -10 -161 -63t-66 -144zM726 133q46 6 88.5 20.5t81 39t61.5 63.5t23 87q0 82 -59 135
q-60 52 -195 102v-447z" />
    <glyph glyph-name="dotlessi.smcp" horiz-adv-x="469" 
d="M314 0h-159v1000h159v-1000z" />
    <glyph glyph-name="dotlessj.smcp" horiz-adv-x="819" 
d="M327 -20q-92 0 -169.5 40t-129.5 113l104 108q89 -113 195 -113q91 0 140 62t49 176v634h159v-656q0 -168 -90.5 -266t-257.5 -98z" />
    <glyph glyph-name="eight.onum" horiz-adv-x="1157" 
d="M577 -20q-216 0 -348 108q-133 106 -133 284q0 118 64 207t183 135q-194 95 -194 305q0 90 34.5 161t94.5 114.5t136 65.5t163 22q88 0 164 -22t136.5 -65t95.5 -114t35 -162q0 -211 -192 -305q118 -45 181 -134t63 -208q0 -99 -40.5 -176t-109.5 -123t-153.5 -69.5
t-179.5 -23.5zM311 1010q0 -111 76 -171t190 -60q115 0 191.5 59.5t76.5 171.5q0 108 -78.5 169t-189.5 61q-110 0 -188 -61.5t-78 -168.5zM577 640q-84 0 -153 -25t-116 -84t-47 -145q0 -115 88 -190q87 -75 228 -75q84 0 154.5 28t117.5 89.5t47 147.5q0 65 -27 115.5
t-73 80t-101.5 44t-117.5 14.5z" />
    <glyph glyph-name="eight.onum.tnum" 
d="M664 -20q-216 0 -348 108q-133 106 -133 284q0 118 64 207t183 135q-194 95 -194 305q0 90 34.5 161t94.5 114.5t136 65.5t163 22q88 0 164 -22t136.5 -65t95.5 -114t35 -162q0 -211 -192 -305q118 -45 181 -134t63 -208q0 -99 -40.5 -176t-109.5 -123t-153.5 -69.5
t-179.5 -23.5zM398 1010q0 -111 76 -171t190 -60q115 0 191.5 59.5t76.5 171.5q0 108 -78.5 169t-189.5 61q-110 0 -188 -61.5t-78 -168.5zM664 640q-84 0 -153 -25t-116 -84t-47 -145q0 -115 88 -190q87 -75 228 -75q84 0 154.5 28t117.5 89.5t47 147.5q0 65 -27 115.5
t-73 80t-101.5 44t-117.5 14.5z" />
    <glyph glyph-name="eight.tnum" 
d="M664 -20q-216 0 -348 108q-133 106 -133 284q0 118 64 207t183 135q-194 95 -194 305q0 90 34.5 161t94.5 114.5t136 65.5t163 22q88 0 164 -22t136.5 -65t95.5 -114t35 -162q0 -211 -192 -305q118 -45 181 -134t63 -208q0 -99 -40.5 -176t-109.5 -123t-153.5 -69.5
t-179.5 -23.5zM398 1010q0 -111 76 -171t190 -60q115 0 191.5 59.5t76.5 171.5q0 108 -78.5 169t-189.5 61q-110 0 -188 -61.5t-78 -168.5zM664 640q-84 0 -153 -25t-116 -84t-47 -145q0 -115 88 -190q87 -75 228 -75q84 0 154.5 28t117.5 89.5t47 147.5q0 65 -27 115.5
t-73 80t-101.5 44t-117.5 14.5z" />
    <glyph glyph-name="equal.onum" horiz-adv-x="1298" 
d="M1165 868v-161h-1032v161h1032zM133 202v162h1032v-162h-1032z" />
    <glyph glyph-name="equal.onum.tnum" 
d="M1181 868v-161h-1032v161h1032zM149 202v162h1032v-162h-1032z" />
    <glyph glyph-name="equal.tnum" 
d="M1181 1011v-161h-1032v161h1032zM149 345v162h1032v-162h-1032z" />
    <glyph glyph-name="five.onum" horiz-adv-x="1074" 
d="M520 -311q-154 0 -281.5 73t-183.5 209l134 79q43 -99 132 -153t199 -54q131 0 218.5 77t87.5 206q0 135 -84.5 213.5t-220.5 78.5q-148 0 -255 -97l-136 55l64 691h739v-157h-597l-42 -424q36 35 102 58.5t147 23.5q200 0 328 -121.5t128 -320.5q0 -133 -65.5 -234
t-173.5 -152t-240 -51z" />
    <glyph glyph-name="five.onum.tnum" 
d="M668 -311q-154 0 -281.5 73t-183.5 209l134 79q43 -99 132 -153t199 -54q131 0 218.5 77t87.5 206q0 135 -84.5 213.5t-220.5 78.5q-148 0 -255 -97l-136 55l64 691h739v-157h-597l-42 -424q36 35 102 58.5t147 23.5q200 0 328 -121.5t128 -320.5q0 -133 -65.5 -234
t-173.5 -152t-240 -51z" />
    <glyph glyph-name="five.tnum" 
d="M668 -20q-154 0 -281.5 73t-183.5 209l134 79q44 -98 133 -152.5t198 -54.5q130 0 218 77.5t88 205.5q0 135 -84.5 213.5t-220.5 78.5q-148 0 -255 -97l-136 55l64 691h739v-157h-597l-42 -424q36 35 102 58.5t147 23.5q200 0 328 -121.5t128 -320.5q0 -133 -66 -234
t-174 -152t-239 -51z" />
    <glyph glyph-name="florin.onum" horiz-adv-x="1154" 
d="M47 -107l68 128q58 -35 129 -35q80 0 133.5 51.5t63.5 139.5l54 434h-189l16 137h189l20 159q19 153 121.5 242.5t257.5 89.5q106 0 183 -52l-67 -128q-59 35 -129 35q-84 0 -140.5 -51.5t-67.5 -139.5l-19 -155h290l-16 -137h-290l-54 -438q-18 -152 -117.5 -242
t-251.5 -90q-107 0 -184 52z" />
    <glyph glyph-name="florin.onum.tnum" 
d="M159 -128l32 132q47 -25 120 -25q100 0 159 64.5t73 183.5l46 383h-189l17 136h191l16 132q18 169 120 261.5t268 92.5q95 0 158 -29l-29 -133q-58 23 -120 23q-212 0 -241 -230l-15 -117h291l-17 -136h-288l-49 -390q-24 -184 -124 -282.5t-260 -98.5q-46 0 -91.5 10
t-67.5 23z" />
    <glyph glyph-name="florin.tnum" 
d="M147 32l68 128q58 -35 129 -35q80 0 133.5 51.5t63.5 139.5l54 434h-189l16 137h189l20 159q19 153 121.5 242.5t257.5 89.5q106 0 183 -52l-67 -128q-59 35 -129 35q-84 0 -140.5 -51.5t-67.5 -139.5l-19 -155h290l-16 -137h-290l-54 -438q-18 -152 -117.5 -242
t-251.5 -90q-107 0 -184 52z" />
    <glyph glyph-name="foundryicon" horiz-adv-x="2281" 
d="M293 951h-103v71h295v-71h-112v-302h-80v302zM1169 951h-101v71h283v-71h-101v-302h-81v302zM1664 553h-81v349h66l8 -24l7 7q22 22 60 22q48 0 75.5 -35t27.5 -94q0 -60 -33 -96.5t-88 -36.5q-25 0 -42 10v-102zM584 553v349h65l9 -24l8 7q19 22 58 22q48 0 75.5 -34.5
t27.5 -94.5t-32.5 -96.5t-88.5 -36.5q-24 0 -40 10v-102h-82zM864 773q0 61 34 97.5t94 36.5t94 -34.5t34 -94.5q0 -61 -35 -97t-96 -36q-57 0 -91 35t-34 93zM1862 773q0 61 34.5 97.5t93.5 36.5q47 0 74 -26t27 -69q0 -31 -8 -52h-139q4 -49 55 -49q39 0 69 13l17 -58
q-39 -21 -95 -21q-59 0 -93.5 35t-34.5 93zM1385 638l-9 27l-89 237h89l51 -173h3l41 173h88l-80 -257q-19 -54 -48.5 -78t-77.5 -24q-33 0 -60 13l9 59q30 -6 46 -6q31 0 37 29zM439 649v253h81v-253h-81zM991 849q-45 0 -45 -71q0 -75 46 -75q45 0 45 72q0 74 -46 74z
M1944 803h70q4 21 -4 33.5t-26 12.5q-36 0 -40 -46zM1664 832v-117q16 -9 33 -9q21 0 33.5 19t12.5 50q0 69 -46 69q-19 0 -33 -12zM666 832v-117q9 -9 30 -9q48 0 48 69t-46 69q-20 0 -32 -12zM1800 376q-2 27 15.5 44.5t41.5 17.5q23 0 37 -17q25 -27 11 -69t-51 -38
q-23 0 -38.5 17t-15.5 45zM1142 314q-24 0 -39 17t-15 45q0 27 15.5 44.5t39.5 17.5q23 0 38.5 -17.5t15.5 -44.5t-15 -44.5t-40 -17.5zM1684 376q0 27 16 44.5t42 17.5q16 0 27 -7l-1 -24h-6l-1 21q-12 3 -19 3q-22 0 -35 -14t-13 -40q0 -56 53 -56q13 0 22 4l3 -6
q-13 -5 -27 -5q-28 0 -44.5 17t-16.5 45zM940 316h-9v120h9v-120zM263 316l-39 120h9l35 -110l35 105h9l35 -105l35 110h10l-40 -120h-10l-34 104l-35 -104h-10zM987 316v120h34q39 0 39 -35q0 -16 -11 -25.5t-29 -9.5h-24v-50h-9zM1456 316h-9v120h34q39 0 39 -35t-41 -35
h-23v-50zM454 316l-39 120h9l35 -110l35 105h9l36 -105l34 110h10l-40 -120h-9l-35 104l-35 -104h-10zM1957 316h-8v120h14l45 -93l45 93h14v-120h-9v111l-46 -94h-8l-47 94v-111zM645 316l-39 120h9l35 -110l35 105h9l36 -105l35 110h9l-40 -120h-9l-35 104l-35 -104h-10z
M1363 363l-42 73h10l37 -66l37 66h9l-42 -73v-47h-9v47zM1623 322v-6h-67v120h65v-6h-57v-50h55v-7h-55v-51h59zM1256 316v114h-37v6h83v-6h-37v-114h-9zM852 316v114h-38v6h84v-6h-38v-114h-8zM1823 417q-21 -23 -9.5 -61.5t41.5 -34.5q19 0 31.5 14.5t12.5 38.5
q0 26 -12.5 41.5t-32.5 15.5q-19 0 -31 -14zM1142 431q-19 0 -31.5 -15t-12.5 -39q0 -25 12.5 -40.5t32.5 -15.5q19 0 31.5 14.5t12.5 38.5q0 26 -12.5 41.5t-32.5 15.5zM1020 430h-24v-58h25q30 0 30 28q0 30 -31 30zM1456 430v-58h25q30 0 30 28q0 30 -32 30h-23z
M1663 321q0 -7 -7 -7t-7 7t7 7t7 -7zM805 321q0 -7 -7 -7t-7 7t7 7t7 -7z" />
    <glyph glyph-name="four.onum" horiz-adv-x="1159" 
d="M727 71h-671v151l617 845h218v-850h207v-145h-207v-364h-164v363zM727 217v670l-484 -670h484z" />
    <glyph glyph-name="four.onum.tnum" 
d="M842 71h-671v151l617 845h218v-850h207v-145h-207v-364h-164v363zM842 217v670l-484 -670h484z" />
    <glyph glyph-name="four.tnum" 
d="M832 362h-671v151l617 845h218v-850h207v-145h-207v-364h-164v363zM832 508v670l-484 -670h484z" />
    <glyph glyph-name="greater.onum" horiz-adv-x="1124" 
d="M121 212l758 323l-758 332v173l914 -412v-189l-914 -400v173z" />
    <glyph glyph-name="greater.onum.tnum" 
d="M208 212l757 323l-757 332v173l914 -412v-189l-914 -400v173z" />
    <glyph glyph-name="greater.tnum" 
d="M208 355l757 323l-757 332v173l914 -412v-189l-914 -400v173z" />
    <glyph glyph-name="greaterequal.onum" horiz-adv-x="1306" 
d="M154 354v159h847l-842 374v179l1028 -489v-223h-1033zM155 -68v162h1033v-162h-1033z" />
    <glyph glyph-name="greaterequal.onum.tnum" 
d="M148 354v159h846l-842 374v179l1029 -489v-223h-1033zM1181 94v-162h-1033v162h1033z" />
    <glyph glyph-name="greaterequal.tnum" 
d="M148 497v159h846l-842 374v179l1029 -489v-223h-1033zM1181 237v-162h-1033v162h1033z" />
    <glyph glyph-name="i.TRK" horiz-adv-x="479" 
d="M169 1211q-28 27 -28 71t27.5 71t70.5 27q44 0 72 -27.5t28 -70.5t-28 -71t-72 -28q-43 0 -70 28zM160 0v960h159v-960h-159z" />
    <glyph glyph-name="ijacute" horiz-adv-x="978" 
d="M818 1113h-139l147 334h180zM496 1447l-188 -334h-139l147 334h180zM515 -420q-94 0 -151 27l18 134q54 -20 123 -20q154 0 154 195v1044h159v-1055q0 -155 -78.5 -240t-224.5 -85zM160 0v960h159v-960h-159z" />
    <glyph glyph-name="kgreenlandic.smcp" horiz-adv-x="1051" 
d="M155 0v1001h159v-505l491 508h213l-435 -427l442 -576h-202l-352 468l-157 -166v-303h-159z" />
    <glyph glyph-name="less.onum" horiz-adv-x="1124" 
d="M1003 212v-173l-914 400v189l914 412v-173l-757 -332z" />
    <glyph glyph-name="less.onum.tnum" 
d="M1122 212v-173l-914 400v189l914 412v-173l-757 -332z" />
    <glyph glyph-name="less.tnum" 
d="M1122 355v-173l-914 400v189l914 412v-173l-757 -332z" />
    <glyph glyph-name="lessequal.onum" horiz-adv-x="1306" 
d="M305 513h847v-159h-1033v223l1028 489v-179zM116 94h1033v-162h-1033v162z" />
    <glyph glyph-name="lessequal.onum.tnum" 
d="M336 513h847v-159h-1033v223l1028 489v-179zM147 94h1033v-162h-1033v162z" />
    <glyph glyph-name="lessequal.tnum" 
d="M336 656h847v-159h-1033v223l1028 489v-179zM147 237h1033v-162h-1033v162z" />
    <glyph glyph-name="logicalnot.onum" horiz-adv-x="1313" 
d="M1174 285h-162v391h-919v159h1081v-550z" />
    <glyph glyph-name="logicalnot.onum.tnum" 
d="M1205 285h-162v391h-919v159h1081v-550z" />
    <glyph glyph-name="logicalnot.tnum" 
d="M1205 428h-162v391h-919v159h1081v-550z" />
    <glyph glyph-name="minus.onum" horiz-adv-x="1128" 
d="M105 623h918v-159h-918v159z" />
    <glyph glyph-name="minus.onum.tnum" 
d="M206 623h918v-159h-918v159z" />
    <glyph glyph-name="minus.tnum" 
d="M206 766h918v-159h-918v159z" />
    <glyph glyph-name="mu.onum" horiz-adv-x="1209" 
d="M319 -400h-159v1360h159v-503q0 -166 64.5 -246t206.5 -80q130 0 215 79t85 208v542h159v-960h-159v144q-49 -79 -138 -121.5t-187 -42.5q-167 0 -246 84v-464z" />
    <glyph glyph-name="mu.onum.tnum" 
d="M379 -400h-159v1360h159v-503q0 -166 64.5 -246t206.5 -80q130 0 215 79t85 208v542h159v-960h-159v144q-49 -79 -138 -121.5t-187 -42.5q-167 0 -246 84v-464z" />
    <glyph glyph-name="mu.tnum" 
d="M379 -400h-159v1360h159v-503q0 -166 64.5 -246t206.5 -80q130 0 215 79t85 208v542h159v-960h-159v144q-49 -79 -138 -121.5t-187 -42.5q-167 0 -246 84v-464z" />
    <glyph glyph-name="multiply.onum" horiz-adv-x="1144" 
d="M77 145l382 382l-382 382l114 113l381 -382l382 382l113 -113l-382 -382l382 -382l-113 -113l-382 382l-382 -382z" />
    <glyph glyph-name="multiply.onum.tnum" 
d="M665 414l-382 -382l-113 113l382 382l-382 382l113 113l382 -382l382 382l113 -113l-382 -382l382 -382l-113 -113z" />
    <glyph glyph-name="multiply.tnum" 
d="M665 557l-382 -382l-113 113l382 382l-382 382l113 113l382 -382l382 382l113 -113l-382 -382l382 -382l-113 -113z" />
    <glyph glyph-name="napostrophe.smcp" horiz-adv-x="1451" 
d="M198 911h-146l121 475h179zM549 0h-159v1000h157l590 -763v763h159v-1000h-157l-590 763v-763z" />
    <glyph glyph-name="nine.onum" horiz-adv-x="1172" 
d="M75 634q0 138 65.5 242.5t176 158t247.5 53.5q106 0 192 -32.5t144 -89t97 -135t56.5 -167.5t17.5 -190q0 -387 -147.5 -585.5t-434.5 -198.5q-195 0 -337 88l64 137q122 -75 264 -75q202 0 308.5 134t118.5 417q-51 -93 -151 -144t-212 -51q-132 0 -238 51.5t-168.5 152
t-62.5 234.5zM244 641q0 -137 89 -217t228 -80q131 0 221 83t90 213q0 131 -89 216t-221 85q-138 0 -228 -81.5t-90 -218.5z" />
    <glyph glyph-name="nine.onum.tnum" 
d="M147 634q0 138 65.5 242.5t176 158t247.5 53.5q106 0 192 -32.5t144 -89t97 -135t56.5 -167.5t17.5 -190q0 -387 -147.5 -585.5t-434.5 -198.5q-195 0 -337 88l64 137q122 -75 264 -75q202 0 308.5 134t118.5 417q-51 -93 -151 -144t-212 -51q-132 0 -238 51.5
t-168.5 152t-62.5 234.5zM316 641q0 -137 89 -217t228 -80q131 0 221 83t90 213q0 131 -89 216t-221 85q-138 0 -228 -81.5t-90 -218.5z" />
    <glyph glyph-name="nine.tnum" 
d="M137 924q0 138 65.5 242.5t176 158t247.5 53.5q106 0 192 -32.5t144 -89t97 -135t56.5 -167.5t17.5 -190q0 -387 -147.5 -585.5t-434.5 -198.5q-195 0 -337 88l64 137q122 -75 264 -75q202 0 308.5 134t118.5 417q-51 -93 -151 -144t-212 -51q-132 0 -238 51.5
t-168.5 152t-62.5 234.5zM306 931q0 -137 89 -217t228 -80q131 0 221 83t90 213q0 131 -89 216t-221 85q-138 0 -228 -81.5t-90 -218.5z" />
    <glyph glyph-name="notequal.onum" horiz-adv-x="1274" 
d="M292 -73l123 275h-301v162h374l152 343h-526v161h598l140 313l122 -47l-120 -266h292v-161h-365l-154 -343h519v-162h-592l-146 -325z" />
    <glyph glyph-name="notequal.onum.tnum" 
d="M327 -73l123 275h-301v162h373l152 343h-525v161h598l140 313l121 -47l-119 -266h292v-161h-366l-153 -343h519v-162h-592l-147 -325z" />
    <glyph glyph-name="notequal.tnum" 
d="M327 70l123 275h-301v162h373l152 343h-525v161h598l140 313l121 -47l-119 -266h292v-161h-366l-153 -343h519v-162h-592l-147 -325z" />
    <glyph glyph-name="numbersign.onum" horiz-adv-x="1288" 
d="M305 275h-230l22 120h229l54 300h-230l23 119h228l46 253h136l-45 -253h312l46 253h137l-46 -253h229l-23 -119h-227l-53 -300h226l-22 -120h-226l-48 -275h-138l49 275h-312l-49 -275h-137zM829 695h-312l-54 -300h312z" />
    <glyph glyph-name="numbersign.onum.tnum" 
d="M324 275h-230l23 120h229l54 300h-230l22 119h229l45 253h137l-46 -253h313l45 253h137l-45 -253h228l-22 -119h-227l-54 -300h227l-23 -120h-225l-49 -275h-137l48 275h-312l-48 -275h-138zM849 695h-313l-53 -300h312z" />
    <glyph glyph-name="numbersign.tnum" 
d="M228 -1l67 365h-249l23 125h250q12 72 36 202q31 177 37 209h-251l23 124h248l60 334h145l-58 -334h323l60 334h146l-59 -334h254l-23 -124h-253l-73 -411h253l-24 -125h-250l-67 -365h-147l67 365h-324l-67 -365h-147zM863 900h-326l-73 -411h326z" />
    <glyph glyph-name="one.onum" horiz-adv-x="993" 
d="M952 150v-150h-869v150h367v767h-336v150h496v-917h342z" />
    <glyph glyph-name="one.onum.tnum" 
d="M1120 150v-150h-869v150h367v767h-336v150h496v-917h342z" />
    <glyph glyph-name="one.tnum" 
d="M1113 150v-150h-874v150h363v1058h-326v150h491v-1208h346z" />
    <glyph glyph-name="onehalf.onum" horiz-adv-x="1741" 
d="M1212 1194l-732 -1334h-126v26l734 1332h124v-24zM324 390v706h-188v118h319v-824h-131zM1137 455l-111 57q32 88 107 140t169 52q121 0 203 -70t82 -188q0 -72 -38 -136q-34 -53 -168 -149l-49 -35q-136 -97 -148 -145h417v-121h-565v56q0 100 66 170q53 57 138 118
l64 47q81 59 104 87q44 50 44 106q0 65 -42.5 104.5t-110.5 39.5q-55 0 -98 -36t-64 -97z" />
    <glyph glyph-name="onequarter.onum" horiz-adv-x="1669" 
d="M354 -140v26l734 1332h124v-24l-732 -1334h-126zM324 1096h-188v118h319v-824h-131v706zM926 77v106l389 501h155v-496h124v-110h-124v-218h-129v217h-415zM1341 188v336l-261 -336h261z" />
    <glyph glyph-name="onethird.onum" horiz-adv-x="1748" 
d="M1211 1194l-732 -1334h-126v26l734 1332h124v-24zM323 390v706h-188v118h319v-824h-131zM1024 29l110 60q24 -61 73.5 -97t111.5 -36q63 0 108.5 34.5t45.5 95.5q0 68 -51 104.5t-122 36.5h-109v109h109q68 0 111.5 33.5t43.5 92.5t-40.5 92.5t-104.5 33.5
q-62 0 -107.5 -35t-68.5 -92l-110 60q34 82 109.5 132.5t178.5 50.5q116 0 195 -63t79 -177q0 -62 -33 -110t-90 -70q63 -22 103.5 -77.5t40.5 -122.5q0 -114 -83.5 -179t-201.5 -65q-105 0 -183.5 49.5t-114.5 139.5z" />
    <glyph glyph-name="ordfeminine.onum" horiz-adv-x="823" 
d="M142 737q0 65 41.5 110t98 62.5t120.5 17.5q86 0 151 -27v30q0 58 -42.5 95t-111.5 37q-99 0 -176 -83l-78 82q45 54 115 86.5t141 32.5q120 0 197 -61t77 -178v-378h-122l2 78q-27 -42 -76.5 -66t-110.5 -24q-94 0 -160 48t-66 138zM262 739q0 -41 32.5 -65t84.5 -24
q69 0 121.5 40t52.5 107q-56 34 -148 34q-66 0 -104.5 -23.5t-38.5 -68.5zM678 333h-525v120h525v-120z" />
    <glyph glyph-name="ordfeminine.onum.tnum" 
d="M377 737q0 65 41.5 110t98 62.5t120.5 17.5q87 0 151 -27v30q0 58 -42.5 95t-111.5 37q-99 0 -176 -83l-78 82q45 54 115 86.5t141 32.5q120 0 197 -61t77 -178v-378h-122l2 78q-27 -42 -76.5 -66t-110.5 -24q-94 0 -160 48t-66 138zM497 739q0 -41 32.5 -65t84.5 -24
q69 0 121.5 40t52.5 107q-56 34 -148 34q-66 0 -104.5 -23.5t-38.5 -68.5zM913 333h-525v120h525v-120z" />
    <glyph glyph-name="ordfeminine.tnum" 
d="M373 937q0 65 41.5 110t98 62.5t120.5 17.5q87 0 151 -27v30q0 58 -42.5 95t-111.5 37q-99 0 -176 -83l-78 82q45 54 115 86.5t141 32.5q120 0 197 -61t77 -178v-378h-122l2 78q-27 -42 -76.5 -66t-110.5 -24q-94 0 -160 48t-66 138zM493 939q0 -41 32.5 -65t84.5 -24
q69 0 121.5 40t52.5 107q-56 34 -148 34q-66 0 -104.5 -23.5t-38.5 -68.5zM909 533h-525v120h525v-120z" />
    <glyph glyph-name="ordmasculine.onum" horiz-adv-x="905" 
d="M134 867q0 136 90.5 223.5t227.5 87.5t228 -87t91 -224q0 -135 -91.5 -221.5t-227.5 -86.5q-135 0 -226.5 86.5t-91.5 221.5zM264 867q0 -80 54 -132.5t134 -52.5t133.5 52.5t53.5 132.5q0 82 -52.5 135t-134.5 53t-135 -53t-53 -135zM154 331v120h597v-120h-597z" />
    <glyph glyph-name="ordmasculine.onum.tnum" 
d="M346 867q0 136 90.5 223.5t227.5 87.5t228 -87t91 -224q0 -135 -91.5 -221.5t-227.5 -86.5q-135 0 -226.5 86.5t-91.5 221.5zM476 867q0 -80 54 -132.5t134 -52.5t133.5 52.5t53.5 132.5q0 82 -52.5 135t-134.5 53t-135 -53t-53 -135zM366 331v120h597v-120h-597z" />
    <glyph glyph-name="ordmasculine.tnum" 
d="M346 1067q0 136 90.5 223.5t227.5 87.5t228 -87t91 -224q0 -135 -91.5 -221.5t-227.5 -86.5q-135 0 -226.5 86.5t-91.5 221.5zM476 1067q0 -80 54 -132.5t134 -52.5t133.5 52.5t53.5 132.5q0 82 -52.5 135t-134.5 53t-135 -53t-53 -135zM366 531v120h597v-120h-597z" />
    <glyph glyph-name="percent.onum" horiz-adv-x="1808" 
d="M797 875q0 -155 -105.5 -257.5t-261.5 -102.5t-261.5 102.5t-105.5 257.5q0 156 105.5 258t261.5 102t261.5 -102t105.5 -258zM476 -143v26l734 1332h124v-24l-732 -1334h-126zM659 875q0 98 -65.5 163.5t-163.5 65.5t-163 -65.5t-65 -163.5t65 -163.5t163 -65.5
t163.5 65.5t65.5 163.5zM1747 197q0 -155 -105.5 -257.5t-261.5 -102.5t-261.5 102.5t-105.5 257.5q0 156 105.5 258t261.5 102t261.5 -102t105.5 -258zM1609 197q0 98 -65.5 163.5t-163.5 65.5t-163 -65.5t-65 -163.5t65 -163.5t163 -65.5t163.5 65.5t65.5 163.5z" />
    <glyph glyph-name="perthousand.onum" horiz-adv-x="2645" 
d="M797 875q0 -155 -105.5 -257.5t-261.5 -102.5t-261.5 102.5t-105.5 257.5q0 156 105.5 258t261.5 102t261.5 -102t105.5 -258zM476 -143v26l734 1332h124v-24l-732 -1334h-126zM430 1104q-98 0 -163 -65.5t-65 -163.5t65 -163.5t163 -65.5t163.5 65.5t65.5 163.5
t-65.5 163.5t-163.5 65.5zM1747 197q0 -155 -105.5 -257.5t-261.5 -102.5t-261.5 102.5t-105.5 257.5q0 156 105.5 258t261.5 102t261.5 -102t105.5 -258zM2581 197q0 -155 -105.5 -257.5t-261.5 -102.5t-261.5 102.5t-105.5 257.5q0 156 105.5 258t261.5 102t261.5 -102
t105.5 -258zM1609 197q0 98 -65.5 163.5t-163.5 65.5t-163 -65.5t-65 -163.5t65 -163.5t163 -65.5t163.5 65.5t65.5 163.5zM2214 426q-98 0 -163 -65.5t-65 -163.5t65 -163.5t163 -65.5t163.5 65.5t65.5 163.5t-65.5 163.5t-163.5 65.5z" />
    <glyph glyph-name="pi.onum" horiz-adv-x="1265" 
d="M232 0v938h-187v157h1133v-157h-189v-612q0 -105 32 -153.5t129 -48.5h21v-140q-15 -3 -52 -3q-284 0 -284 308v649h-448v-938h-155z" />
    <glyph glyph-name="pi.onum.tnum" 
d="M285 0v938h-187v157h1133v-157h-189v-612q0 -105 32 -153.5t129 -48.5h21v-140q-15 -3 -52 -3q-284 0 -284 308v649h-448v-938h-155z" />
    <glyph glyph-name="pi.tnum" 
d="M285 0v938h-187v157h1133v-157h-189v-612q0 -105 32 -153.5t129 -48.5h21v-140q-15 -3 -52 -3q-284 0 -284 308v649h-448v-938h-155z" />
    <glyph glyph-name="plus.onum" horiz-adv-x="1241" 
d="M88 459v158h450v445h163v-445h452v-158h-452v-451h-163v451h-450z" />
    </font>
</defs>
</svg>
